<?xml version="1.0" encoding="UTF-8"?>
<svg xmlns="http://www.w3.org/2000/svg" version="1.1" xmlns:xlink="http://www.w3.org/1999/xlink" viewBox="0 0 595.28 496.18">
  <defs>
    <style>
      .cls-1 {
        fill: url(#_Áåçûìÿííûé_ãðàäèåíò_460);
      }

      .cls-2 {
        fill: #f5832d;
      }

      .cls-3 {
        opacity: .4;
      }

      .cls-3, .cls-4, .cls-5, .cls-6, .cls-7, .cls-8, .cls-9, .cls-10 {
        mix-blend-mode: multiply;
      }

      .cls-3, .cls-6, .cls-7 {
        fill: #c9627f;
      }

      .cls-11 {
        fill: url(#_Áåçûìÿííûé_ãðàäèåíò_453);
      }

      .cls-4 {
        fill: #2a4b63;
      }

      .cls-4, .cls-12 {
        display: none;
      }

      .cls-4, .cls-5, .cls-7, .cls-10 {
        opacity: .5;
      }

      .cls-13 {
        fill: url(#_Áåçûìÿííûé_ãðàäèåíò_447);
      }

      .cls-14 {
        fill: #812828;
      }

      .cls-15 {
        fill: url(#_Áåçûìÿííûé_ãðàäèåíò_3);
      }

      .cls-16 {
        fill: #c45428;
      }

      .cls-12 {
        fill: #5aab46;
      }

      .cls-17 {
        isolation: isolate;
      }

      .cls-18 {
        fill: url(#_Áåçûìÿííûé_ãðàäèåíò_2);
      }

      .cls-5 {
        fill: #943e8f;
      }

      .cls-6, .cls-9 {
        opacity: .3;
      }

      .cls-19 {
        fill: #5a1132;
      }

      .cls-20 {
        fill: #fdbf73;
      }

      .cls-21 {
        fill: url(#_Áåçûìÿííûé_ãðàäèåíò_468);
      }

      .cls-8 {
        opacity: .2;
      }

      .cls-8, .cls-9 {
        fill: #d04a9a;
      }

      .cls-22 {
        fill: #c4e8ef;
        mix-blend-mode: soft-light;
      }

      .cls-23 {
        fill: #f7915c;
      }

      .cls-24 {
        fill: #d66a27;
      }

      .cls-25 {
        fill: url(#linear-gradient);
      }

      .cls-26 {
        fill: #e26626;
      }

      .cls-10 {
        fill: #b64298;
      }
    </style>
    <linearGradient id="_Áåçûìÿííûé_ãðàäèåíò_468" data-name="Áåçûìÿííûé ãðàäèåíò 468" x1="-1252.05" y1="488.44" x2="-1252.05" y2="7.89" gradientTransform="translate(62.35 4.58) rotate(-180) scale(.2 -.99) skewX(-1.62)" gradientUnits="userSpaceOnUse">
      <stop offset="0" stop-color="#7b1233"/>
      <stop offset="1" stop-color="#912825"/>
    </linearGradient>
    <linearGradient id="_Áåçûìÿííûé_ãðàäèåíò_3" data-name="Áåçûìÿííûé ãðàäèåíò 3" x1="-1053.97" y1="490.11" x2="-1053.97" y2="11.22" gradientTransform="translate(62.35 4.58) rotate(-180) scale(.2 -.99) skewX(-1.62)" gradientUnits="userSpaceOnUse">
      <stop offset="0" stop-color="#943a33"/>
      <stop offset="1" stop-color="#cb532a"/>
    </linearGradient>
    <linearGradient id="_Áåçûìÿííûé_ãðàäèåíò_447" data-name="Áåçûìÿííûé ãðàäèåíò 447" x1="-979.82" y1="306.16" x2="-979.82" y2="57.14" gradientTransform="translate(64.71) rotate(-180) scale(.2 -1)" gradientUnits="userSpaceOnUse">
      <stop offset="0" stop-color="#c35639"/>
      <stop offset="1" stop-color="#d4662c"/>
    </linearGradient>
    <linearGradient id="_Áåçûìÿííûé_ãðàäèåíò_453" data-name="Áåçûìÿííûé ãðàäèåíò 453" x1="-1176.34" y1="306.69" x2="-1176.34" y2="56.96" gradientTransform="translate(64.71) rotate(-180) scale(.2 -1)" gradientUnits="userSpaceOnUse">
      <stop offset="0" stop-color="#90332c"/>
      <stop offset="1" stop-color="#c74a27"/>
    </linearGradient>
    <linearGradient id="_Áåçûìÿííûé_ãðàäèåíò_2" data-name="Áåçûìÿííûé ãðàäèåíò 2" x1="-2358.76" y1="119.5" x2="-1471.03" y2="119.5" gradientTransform="translate(64.71) rotate(-180) scale(.2 -1)" gradientUnits="userSpaceOnUse">
      <stop offset="0" stop-color="#721232"/>
      <stop offset="1" stop-color="#8c2d25"/>
    </linearGradient>
    <linearGradient id="_Áåçûìÿííûé_ãðàäèåíò_460" data-name="Áåçûìÿííûé ãðàäèåíò 460" x1="-222.12" y1="299.34" x2="-222.12" y2="176.27" gradientTransform="translate(64.71) rotate(-180) scale(.2 -1)" gradientUnits="userSpaceOnUse">
      <stop offset="0" stop-color="#720f33"/>
      <stop offset="1" stop-color="#992e26"/>
    </linearGradient>
    <linearGradient id="linear-gradient" x1="280.97" y1="500.45" x2="280.97" y2="371.44" gradientUnits="userSpaceOnUse">
      <stop offset="0" stop-color="#49ab48"/>
      <stop offset="1" stop-color="#8db53f"/>
    </linearGradient>
  </defs>
  <!-- Generator: Adobe Illustrator 28.7.1, SVG Export Plug-In . SVG Version: 1.2.0 Build 142)  -->
  <g class="cls-17">
    <g id="Layer_1">
      <g>
        <path class="cls-21" d="M375.35,43.32c-7.56-26.01-47.11-30.92-71.48-30.92s-47.18,12.8-49.11,22.37c-1.93,9.57,17.66,429.42,24.59,441.81.9,1.61,2.63,3.12,4.94,4.48,1.46.02,2.92.06,4.38.12.41-.1.86-.16,1.34-.16,9.56.05,19.21.9,28.67-.82.54-.1,1.04-.11,1.52-.06,9.03-1.08,18.08-2,27.19-2.1.27-.47.51-.95.72-1.45,3.01-7.48,34.82-407.24,27.25-433.25Z"/>
        <path class="cls-15" d="M290,481c3.11.02,6.23.12,9.35.19-2.19-63.88-15.97-460.04-20.15-464.24-4.56-4.56-22.6,3.67-24.89,17.81-2.29,14.13,22.64,431.47,25.04,441.81.39,1.67,1.19,3.14,2.25,4.45,2.36.01,4.71.06,7.07.15.41-.1.86-.16,1.34-.16Z"/>
        <path class="cls-13" d="M32.16,167.58c.15,11.97,65.15,117.78,95.52,127.47,17.28,5.58,119.64,11.53,207.59,11.09,45.15-.15,86.55-1.91,110.67-6.31,11.1-1.98,18.6-4.55,21.1-7.71,18.46-23.57,31.25-186.36,24.12-202.37-3.02-6.76-237.37-26.21-323.78-31.94-13.9-.88-27.94-.88-31.4,0-16.99,4.26-104.05,94.28-103.83,109.77Z"/>
        <path class="cls-11" d="M63.48,167.58c.22,11.31,57.95,105.96,89.93,124.9h.07c1.99,1.17,3.82,2.06,5.52,2.57,14.49,4.63,94.86,9.55,176.27,11.09,89.34,1.76,180.01-.37,186.41-11.01,4.12-6.9,7.79-23.64,10.74-44.79,8.24-57.93,11.54-148.84,6.32-160.59-3.53-7.86-346.57-38.18-371.35-31.94-16.99,4.26-104.13,94.28-103.91,109.77Z"/>
        <path class="cls-2" d="M373.72,39.05s-37.77-21.72-74.66-22.1c-36.9-.38-44.56,15.59-44.56,15.59,0,0,3.16-24.72,50.86-28.14,47.69-3.42,66.74,30.38,68.37,34.64Z"/>
        <path class="cls-16" d="M279.25,18.46s34.71-13.67,53.44-11.65c18.73,2.03,33.11,18.34,41.03,32.23,0,0-78.14.2-94.47-20.59Z"/>
        <path class="cls-23" d="M173.44,57.15s-31.46-3.69-39.66,1.55c-8.21,5.24-93.35,78.45-101.63,106.61,0,0,27.75,5.04,31.35,2.26,3.61-2.77,57.84-73.17,109.95-110.42Z"/>
        <path class="cls-26" d="M70.34,159.74s.97,20.18,0,21.95c-.97,1.77-25.66-3.07-30.59-4.6-4.94-1.53-7.61-11.78-7.61-11.78,0,0-3.67-14.46,38.21-5.57Z"/>
        <path class="cls-20" d="M538.75,89.75s-50.17-16.09-216.3-29.53c-166.13-13.44-188.68-1.53-188.68-1.53l39.66,1.14s181.15.95,365.31,29.91Z"/>
        <path class="cls-5" d="M361.28,326.91s-2.88,46.38-19.8,43.66c-25.91-4.17-47.35-36.04-47.35-36.04l-27.31-13.35-.39-15.72,96.41.78-1.55,20.68Z"/>
        <path class="cls-19" d="M290,481c9.56.05,19.21.9,28.67-.82.53-.1,1.04-.11,1.52-.07,4.81-.58,9.63-1.11,14.45-1.5-12.99.09-32.03.33-35.49,1.01-5.35,1.04-18.75.04-18.75.04,0,0,.22.52.72,1.34,2.52.01,5.03.05,7.54.15.41-.1.85-.16,1.34-.16Z"/>
        <path class="cls-5" d="M127.68,295.05c17.28,5.58,119.64,11.53,207.59,11.09,89.34,1.76,180.01-.37,186.41-11.01,4.12-6.9,7.79-23.64,10.74-44.79-.88,5.8-8.91,34.85-19.84,40.01-39.67,18.74-285.49,11.1-315.2,8.77-31-2.43-34.4-6.64-43.89-6.64h-.07c-17.13,0-25.74,2.57-25.74,2.57Z"/>
        <path class="cls-9" d="M93.89,93.1s26.53-6.33,43.7-6.01c17.17.32,252.18,20.19,340.42,54.31,88.24,34.12,47.76,119.23-105.12,123.86-152.87,4.63-205.64-74.69-199.46-108.42,6.18-33.73,115.55-37.07,192.19,11.56,76.63,48.63-25.41,70.15-75.4,56.95-49.99-13.2-8.63-43.8,18.76-38.93,27.39,4.87-7.49,28.52,30.5,21.56,37.99-6.96,10.39-61.78-94.59-60.8-104.98.98-18.57,116.33,131.55,105.61,150.11-10.72,70.21-101.2-55.4-131.06-125.61-29.87-204.84-13.57-209.55-8.55-4.71,5.03-29.64-9.54-29.64-9.54l12.04-10.54Z"/>
        <path class="cls-10" d="M523.33,197.37s3.45-37.15-91.76-65.9c-95.21-28.75-297.8-40.77-297.8-40.77h-33.81s28-4.16,37.63-3.6c9.63.56,191.56,16.26,279.46,37.04,87.9,20.78,105.62,36.65,106.28,73.24Z"/>
        <path class="cls-10" d="M390.2,190.69s-21.26-25.14-87.25-43.57c-65.98-18.44-110.23-8.55-110.23-8.55,0,0,32.82-15.31,103.32.62,70.5,15.93,94.15,51.5,94.15,51.5Z"/>
        <path class="cls-10" d="M424.02,244.77s-38.65,17.12-114.59,8.02c-75.94-9.1-106.98-65.25-106.98-65.25,0,0,26.92,45.84,101.69,60.44,74.77,14.61,119.87-3.21,119.87-3.21Z"/>
        <path class="cls-8" d="M440.16,274.07c28.06-1.06-90.86,33.49-186.01,27.23-95.15-6.25-130.04-32.2-154.19-79.8-24.15-47.6,61.33-6.27,137.27,31.29,75.94,37.56,166.01,22.67,202.93,21.28Z"/>
        <path class="cls-8" d="M527.94,92.23c17.43,5.18,9.06,33.81,7.66,54.96-1.39,21.15-75.53-30.27-209.84-44.91-134.31-14.64,93.5-42.34,202.18-10.05Z"/>
        <path class="cls-20" d="M86.74,140.52c2.54-5.12-39.49,12.04-44.14,13.67-4.64,1.62,25.05,8.73,27.74,5.55,2.68-3.18,16.4-19.22,16.4-19.22Z"/>
        <path class="cls-26" d="M237.23,61.53s-51.82,4.31-67.14,10.25c-15.32,5.94-32.5,15.31-32.5,15.31,0,0,23.97-23.62,32.3-27.36,8.33-3.74,67.34,1.8,67.34,1.8Z"/>
        <path class="cls-18" d="M541.26,137.5s-6.11-12.06-14.94-17.62c-8.82-5.57-164.41-22.27-164.41-22.27,0,0,131.9,28.96,148.62,31.88,16.72,2.91,30.73,11.92,30.73,11.92v-3.91Z"/>
        <path class="cls-5" d="M526.32,119.87c9.23,5.44-3.48,5.81-35.99,2.2-32.52-3.6-105.67-21.96-105.67-21.96,0,0,132.03,14.08,141.67,19.76Z"/>
        <path class="cls-24" d="M531.21,136.11s-76.65-18.78-159.32-35.99c0,0,147.27,27.07,159.32,35.99Z"/>
        <path class="cls-1" d="M184.03,299.34s-27.55-2.72-37.11-11.45c-9.56-8.73-76.58-106.21-76.58-106.21l-35.2-5.42s57.56,110.77,92.54,118.78l56.35,4.3Z"/>
        <path class="cls-5" d="M127.68,272.68s-53.38-85.21-57.67-88.81c-4.3-3.59-31.29-5.1-31.29-5.1,0,0,16.18,34.78,25.77,44.35,9.59,9.56,63.2,49.56,63.2,49.56Z"/>
        <path class="cls-14" d="M254.16,301.3s-44.81-8.07-80.72-16.45c-35.91-8.38-63.85-46.59-63.85-46.59,0,0,31.93,48.77,43.83,54.21,11.9,5.44,100.74,8.82,100.74,8.82Z"/>
        <path class="cls-3" d="M108,157.65c.09,22.15,7.82,41.1,19.05,33.51,13.42-9.08,30.47-15.04,28.59-35.45-.35-3.58-.55-7.37-.89-11.18-1.47-17.87-4.09-35.97-21.52-30.66,0,0-21.07,4.71-24.49,31.32-.57,4.16-.8,8.39-.75,12.47Z"/>
        <path class="cls-7" d="M108,157.65l.47,2.67s.07-13.71,6.4-25.13c6.33-11.36,15.04-20.18,25.59-15.36,10.48,4.87,14.3,24.7,14.3,24.7-1.47-17.87-4.09-35.97-21.52-30.66,0,0-21.07,4.71-24.49,31.32-.57,4.16-.8,8.39-.75,12.47Z"/>
        <path class="cls-6" d="M493.86,248.34c-4.11,11.09-3.53,22.15,3.89,20.65,8.87-1.8,19.09-1.3,21.92-11.88.48-1.86,1.09-3.8,1.62-5.77,2.56-9.23,4.56-18.82-5.74-19.73,0,0-12.13-1.95-18.95,10.65-1.08,1.96-2,4.03-2.74,6.08Z"/>
        <path class="cls-7" d="M493.86,248.34l-.25,1.43s2.61-6.84,8.13-11.25c5.51-4.39,11.82-7.02,16.55-2.45,4.68,4.58,3,15.27,3,15.27,2.56-9.23,4.56-18.82-5.74-19.73,0,0-12.13-1.95-18.95,10.65-1.08,1.96-2,4.03-2.74,6.08Z"/>
        <path class="cls-3" d="M148.31,195.6c1.09,7.59,4.85,13.71,8.61,10.56,4.49-3.76,10.47-6.63,8.8-13.54-.3-1.21-.56-2.5-.86-3.79-1.4-6.05-3.23-12.13-9.38-9.46,0,0-7.51,2.63-7.49,11.92,0,1.45.11,2.91.32,4.31Z"/>
        <path class="cls-7" d="M148.31,195.6l.3.89s-.63-4.7,1.15-8.92c1.78-4.2,4.56-7.65,8.66-6.51,4.08,1.16,6.44,7.77,6.44,7.77-1.4-6.05-3.23-12.13-9.38-9.46,0,0-7.51,2.63-7.49,11.92,0,1.45.11,2.91.32,4.31Z"/>
        <path class="cls-22" d="M348.1,476.57s-.49-60.09-1.1-81.31c-.61-21.22,13.42-57.2,13.42-57.2,0,0-8.49,110.08-12.33,138.5Z"/>
        <path class="cls-22" d="M532.42,250.33s2.66-94.92,2.19-100.21c-.47-5.29,6.65-8.72,6.65-8.72,0,0-8.81-12.92-8.84-18.83-.02-5.91,6.33-32.83,6.33-32.83,0,0,10.06,42.78-6.33,160.58Z"/>
      </g>
      <path class="cls-25" d="M276.36,480.22c-34.2-20.65-63.05-55.6-64.12-63.79-1.07-8.2,71.48,46.54,71.48,46.54,0,0-27.14-55.63-19.05-79.71,11.07-24.91,14.04-30.49,19.05-31.25,9.67.18,42,111.55,41.79,117.89-.21,6.34,9.94-41.09,12.45-46.91,2.51-5.83,16.5,56.42,10.04,58.91-6.73,2.05-27.84,2.97-44.09.26-11,.6-23.9.27-27.56-1.93Z"/>
      <path class="cls-12" d="M325.58,470.44s-.02-.04-.03-.07c0,.03.02.06.03.07Z"/>
      <path class="cls-12" d="M325.52,469.89c0,.18,0,.3,0,.39,0-.1-.01-.22,0-.39Z"/>
      <path class="cls-12" d="M325.67,470.39s-.03.04-.04.05c.01,0,.03-.03.04-.05Z"/>
      <path class="cls-12" d="M272.31,366.53c.24-.5.48-1,.73-1.49-.24.48-.48.98-.73,1.49Z"/>
      <path class="cls-4" d="M333.5,439.48c-3.16,12.97-6.82,28.9-7.75,30.79-.28,5.19-2.14,4.54-5.57,4-7.48-1.19-33.13-48.79-39.21-60.68-4.48-8.76-13.53-28.16-8.67-47.04-2.05,4.26-4.52,9.73-7.62,16.71-8.08,24.08,19.05,79.71,19.05,79.71-2.76.18-19.12-1.78-25-6.42-5-3.95-30-21.18-45.67-40.94-.59,0-.89.25-.82.83,1.07,8.2,29.92,43.14,64.12,63.79,3.65,2.21,16.56,2.53,27.56,1.93,16.25,2.7,37.36,1.78,44.09-.26.68-.26,1.14-1.2,1.4-2.65-5.71-2.33-13.59-15.6-15.91-39.76Z"/>
    </g>
  </g>
</svg>