<?xml version="1.0" encoding="UTF-8"?>
<svg xmlns="http://www.w3.org/2000/svg" version="1.1" xmlns:xlink="http://www.w3.org/1999/xlink" viewBox="0 0 595.28 496.18">
  <defs>
    <style>
      .cls-1 {
        fill: url(#_Áåçûìÿííûé_ãðàäèåíò_460);
      }

      .cls-2 {
        fill: #f5832d;
      }

      .cls-3 {
        opacity: .4;
      }

      .cls-3, .cls-4, .cls-5, .cls-6, .cls-7, .cls-8, .cls-9, .cls-10 {
        mix-blend-mode: multiply;
      }

      .cls-3, .cls-5, .cls-6 {
        fill: #c9627f;
      }

      .cls-11 {
        fill: url(#_Áåçûìÿííûé_ãðàäèåíò_453);
      }

      .cls-12 {
        fill: url(#_Áåçûìÿííûé_ãðàäèåíò_447);
      }

      .cls-13 {
        fill: #812828;
      }

      .cls-14 {
        fill: url(#_Áåçûìÿííûé_ãðàäèåíò_3);
      }

      .cls-15 {
        fill: #c45428;
      }

      .cls-16 {
        isolation: isolate;
      }

      .cls-17 {
        fill: url(#_Áåçûìÿííûé_ãðàäèåíò_2);
      }

      .cls-4 {
        fill: #943e8f;
      }

      .cls-4, .cls-6, .cls-7, .cls-10 {
        opacity: .5;
      }

      .cls-5, .cls-9 {
        opacity: .3;
      }

      .cls-18 {
        fill: #5a1132;
      }

      .cls-19 {
        fill: #fdbf73;
      }

      .cls-20 {
        fill: url(#_Áåçûìÿííûé_ãðàäèåíò_468);
      }

      .cls-7 {
        fill: #2a4b63;
      }

      .cls-8 {
        opacity: .2;
      }

      .cls-8, .cls-9 {
        fill: #d04a9a;
      }

      .cls-21 {
        fill: #c4e8ef;
        mix-blend-mode: soft-light;
      }

      .cls-22 {
        fill: #f7915c;
      }

      .cls-23 {
        fill: #d66a27;
      }

      .cls-24 {
        fill: url(#linear-gradient);
      }

      .cls-25 {
        fill: #e26626;
      }

      .cls-10 {
        fill: #b64298;
      }
    </style>
    <linearGradient id="_Áåçûìÿííûé_ãðàäèåíò_468" data-name="Áåçûìÿííûé ãðàäèåíò 468" x1="269.34" y1="487.66" x2="269.34" y2="7.11" gradientTransform="translate(11.7 4.58) skewX(-1.62)" gradientUnits="userSpaceOnUse">
      <stop offset="0" stop-color="#7b1233"/>
      <stop offset="1" stop-color="#912825"/>
    </linearGradient>
    <linearGradient id="_Áåçûìÿííûé_ãðàäèåíò_3" data-name="Áåçûìÿííûé ãðàäèåíò 3" x1="314.11" y1="489.34" x2="314.11" y2="10.45" gradientTransform="translate(11.7 4.58) skewX(-1.62)" gradientUnits="userSpaceOnUse">
      <stop offset="0" stop-color="#943a33"/>
      <stop offset="1" stop-color="#cb532a"/>
    </linearGradient>
    <linearGradient id="_Áåçûìÿííûé_ãðàäèåíò_447" data-name="Áåçûìÿííûé ãðàäèåíò 447" x1="332.57" y1="305.39" x2="332.57" y2="56.37" gradientUnits="userSpaceOnUse">
      <stop offset="0" stop-color="#c35639"/>
      <stop offset="1" stop-color="#d4662c"/>
    </linearGradient>
    <linearGradient id="_Áåçûìÿííûé_ãðàäèåíò_453" data-name="Áåçûìÿííûé ãðàäèåíò 453" x1="292.92" y1="305.92" x2="292.92" y2="56.19" gradientUnits="userSpaceOnUse">
      <stop offset="0" stop-color="#90332c"/>
      <stop offset="1" stop-color="#c74a27"/>
    </linearGradient>
    <linearGradient id="_Áåçûìÿííûé_ãðàäèåíò_2" data-name="Áåçûìÿííûé ãðàäèåíò 2" x1="54.39" y1="118.73" x2="233.47" y2="118.73" gradientUnits="userSpaceOnUse">
      <stop offset="0" stop-color="#721232"/>
      <stop offset="1" stop-color="#8c2d25"/>
    </linearGradient>
    <linearGradient id="_Áåçûìÿííûé_ãðàäèåíò_460" data-name="Áåçûìÿííûé ãðàäèåíò 460" x1="485.42" y1="298.57" x2="485.42" y2="175.5" gradientUnits="userSpaceOnUse">
      <stop offset="0" stop-color="#720f33"/>
      <stop offset="1" stop-color="#992e26"/>
    </linearGradient>
    <linearGradient id="linear-gradient" x1="292.33" y1="501.7" x2="292.33" y2="369.36" gradientUnits="userSpaceOnUse">
      <stop offset="0" stop-color="#49ab48"/>
      <stop offset="1" stop-color="#8db53f"/>
    </linearGradient>
  </defs>
  <!-- Generator: Adobe Illustrator 28.7.1, SVG Export Plug-In . SVG Version: 1.2.0 Build 142)  -->
  <g class="cls-16">
    <g id="Layer_1">
      <g>
        <path class="cls-20" d="M249.49,479.32c1.05.02,2.09.04,3.14.06,19.57-3.12,40.42-.24,60.14-.27,1.41-1.04,2.49-2.15,3.14-3.31,6.91-12.38,26.48-432.24,24.55-441.81-1.93-9.57-24.69-22.37-49.03-22.37s-63.83,4.92-71.38,30.92c-7.55,26.01,24.21,425.77,27.21,433.25.52,1.3,1.28,2.46,2.23,3.52Z"/>
        <path class="cls-14" d="M314.49,479.11c.64-1.01,1.14-2.11,1.42-3.31,2.39-10.34,27.29-427.67,25-441.81-2.28-14.13-20.3-22.37-24.85-17.81-4.14,4.16-17.69,393.31-20.06,462.47,6.23.28,12.42.52,18.5.45Z"/>
        <path class="cls-12" d="M562.73,166.81c-.15,11.97-65.06,117.78-95.38,127.47-17.26,5.58-119.47,11.53-207.29,11.09-45.08-.15-86.42-1.91-110.51-6.31-11.09-1.98-18.58-4.55-21.07-7.71-18.43-23.57-31.21-186.36-24.08-202.37,3.01-6.76,237.02-26.21,323.3-31.94,13.88-.88,27.9-.88,31.35,0,16.96,4.26,103.9,94.28,103.68,109.77Z"/>
        <path class="cls-11" d="M531.45,166.81c-.22,11.31-57.86,105.96-89.8,124.9h-.07c-1.98,1.17-3.82,2.06-5.51,2.57-14.47,4.63-94.72,9.55-176.01,11.09-89.21,1.76-179.75-.37-186.14-11.01-4.11-6.9-7.78-23.64-10.72-44.79-8.22-57.93-11.53-148.84-6.31-160.59,3.52-7.86,346.06-38.18,370.81-31.94,16.96,4.26,103.97,94.28,103.75,109.77Z"/>
        <path class="cls-2" d="M221.68,38.28s37.71-21.72,74.55-22.1c36.84-.38,44.5,15.59,44.5,15.59,0,0-3.16-24.72-50.78-28.14-47.62-3.42-66.64,30.38-68.27,34.64Z"/>
        <path class="cls-15" d="M316.01,17.69s-34.66-13.67-53.36-11.65c-18.7,2.03-33.06,18.34-40.97,32.23,0,0,78.02.2,94.33-20.59Z"/>
        <path class="cls-22" d="M421.66,56.38s31.41-3.69,39.61,1.55c8.19,5.24,93.21,78.45,101.48,106.61,0,0-27.71,5.04-31.31,2.26-3.6-2.77-57.76-73.17-109.78-110.42Z"/>
        <path class="cls-25" d="M524.6,158.97s-.97,20.18,0,21.95c.97,1.77,25.62-3.07,30.55-4.6,4.93-1.53,7.6-11.78,7.6-11.78,0,0,3.66-14.46-38.15-5.57Z"/>
        <path class="cls-19" d="M56.89,88.98s50.09-16.09,215.98-29.53c165.89-13.44,188.4-1.53,188.4-1.53l-39.61,1.14s-180.89.95-364.78,29.91Z"/>
        <path class="cls-4" d="M234.1,326.14s2.88,46.38,19.77,43.66c25.87-4.17,47.28-36.04,47.28-36.04l27.27-13.35.39-15.72-96.27.78,1.55,20.68Z"/>
        <path class="cls-18" d="M314.76,479.11c.06-.13.1-.21.1-.21,0,0-1.46.11-3.6.22,1.17,0,2.34,0,3.51,0Z"/>
        <path class="cls-18" d="M252.63,479.38c6.18-.98,12.48-1.36,18.84-1.43-11.72-.15-23.11-.15-23.11-.15,0,0,.5.58,1.45,1.53.94.02,1.88.04,2.82.05Z"/>
        <path class="cls-4" d="M467.35,294.28c-17.26,5.58-119.47,11.53-207.29,11.09-89.21,1.76-179.75-.37-186.14-11.01-4.11-6.9-7.78-23.64-10.72-44.79.88,5.8,8.9,34.85,19.81,40.01,39.61,18.74,285.07,11.1,314.73,8.77,30.96-2.43,34.35-6.64,43.82-6.64h.07c17.11,0,25.7,2.57,25.7,2.57Z"/>
        <path class="cls-9" d="M501.09,92.33s-26.49-6.33-43.64-6.01c-17.15.32-251.81,20.19-339.92,54.31-88.11,34.12-47.69,119.23,104.96,123.86,152.65,4.63,205.34-74.69,199.17-108.42-6.17-33.73-115.38-37.07-191.9,11.56-76.52,48.63,25.37,70.15,75.29,56.95,49.92-13.2,8.61-43.8-18.73-38.93-27.35,4.87,7.48,28.52-30.46,21.56-37.93-6.96-10.37-61.78,94.45-60.8,104.83.98,18.54,116.33-131.35,105.61-149.89-10.72-70.11-101.2,55.32-131.06,125.42-29.87,204.53-13.57,209.24-8.55,4.7,5.03,29.59-9.54,29.59-9.54l-12.02-10.54Z"/>
        <path class="cls-10" d="M72.28,196.6s-3.44-37.15,91.63-65.9c95.07-28.75,297.36-40.77,297.36-40.77h33.76s-27.96-4.16-37.57-3.6c-9.61.56-191.27,16.26-279.05,37.04-87.77,20.78-105.46,36.65-106.12,73.24Z"/>
        <path class="cls-10" d="M205.22,189.92s21.23-25.14,87.12-43.57c65.89-18.44,110.07-8.55,110.07-8.55,0,0-32.77-15.31-103.17.62-70.4,15.93-94.01,51.5-94.01,51.5Z"/>
        <path class="cls-10" d="M171.45,244s38.6,17.12,114.42,8.02c75.82-9.1,106.82-65.25,106.82-65.25,0,0-26.88,45.84-101.54,60.44-74.66,14.61-119.7-3.21-119.7-3.21Z"/>
        <path class="cls-8" d="M155.33,273.3c-28.02-1.06,90.72,33.49,185.73,27.23,95.01-6.25,129.85-32.2,153.97-79.8,24.11-47.6-61.24-6.27-137.07,31.29-75.82,37.56-165.76,22.67-202.63,21.28Z"/>
        <path class="cls-8" d="M67.68,91.45c-17.41,5.18-9.04,33.81-7.65,54.96,1.39,21.15,75.42-30.27,209.53-44.91,134.11-14.64-93.36-42.34-201.88-10.05Z"/>
        <path class="cls-19" d="M508.23,139.75c-2.54-5.12,39.43,12.04,44.07,13.67,4.64,1.62-25.02,8.73-27.7,5.55-2.68-3.18-16.38-19.22-16.38-19.22Z"/>
        <path class="cls-25" d="M357.96,60.76s51.74,4.31,67.04,10.25c15.3,5.94,32.45,15.31,32.45,15.31,0,0-23.93-23.62-32.25-27.36-8.32-3.74-67.24,1.8-67.24,1.8Z"/>
        <path class="cls-17" d="M54.39,136.72s6.11-12.06,14.92-17.62c8.81-5.57,164.17-22.27,164.17-22.27,0,0-131.7,28.96-148.4,31.88-16.7,2.91-30.68,11.92-30.68,11.92v-3.91Z"/>
        <path class="cls-4" d="M69.3,119.1c-9.21,5.44,3.47,5.81,35.94,2.2,32.47-3.6,105.52-21.96,105.52-21.96,0,0-131.84,14.08-141.46,19.76Z"/>
        <path class="cls-23" d="M64.41,135.33s76.54-18.78,159.09-35.99c0,0-147.05,27.07-159.09,35.99Z"/>
        <path class="cls-1" d="M411.09,298.57s27.51-2.72,37.05-11.45c9.54-8.73,76.46-106.21,76.46-106.21l35.15-5.42s-57.47,110.77-92.4,118.78l-56.26,4.3Z"/>
        <path class="cls-4" d="M467.35,271.91s53.3-85.21,57.59-88.81c4.29-3.59,31.25-5.1,31.25-5.1,0,0-16.15,34.78-25.73,44.35-9.57,9.56-63.1,49.56-63.1,49.56Z"/>
        <path class="cls-13" d="M341.06,300.53s44.75-8.07,80.6-16.45c35.85-8.38,63.76-46.59,63.76-46.59,0,0-31.88,48.77-43.77,54.21-11.88,5.44-100.59,8.82-100.59,8.82Z"/>
        <path class="cls-3" d="M487,156.88c-.09,22.15-7.81,41.1-19.02,33.51-13.4-9.08-30.43-15.04-28.55-35.45.35-3.58.55-7.37.89-11.18,1.47-17.87,4.09-35.97,21.49-30.66,0,0,21.04,4.71,24.45,31.32.57,4.16.8,8.39.75,12.47Z"/>
        <path class="cls-6" d="M487,156.88l-.47,2.67s-.07-13.71-6.39-25.13c-6.32-11.36-15.02-20.18-25.55-15.36-10.46,4.87-14.27,24.7-14.27,24.7,1.47-17.87,4.09-35.97,21.49-30.66,0,0,21.04,4.71,24.45,31.32.57,4.16.8,8.39.75,12.47Z"/>
        <path class="cls-5" d="M101.71,247.57c4.1,11.09,3.53,22.15-3.88,20.65-8.85-1.8-19.06-1.3-21.88-11.88-.48-1.86-1.09-3.8-1.62-5.77-2.56-9.23-4.55-18.82,5.73-19.73,0,0,12.11-1.95,18.92,10.65,1.08,1.96,2,4.03,2.73,6.08Z"/>
        <path class="cls-6" d="M101.71,247.57l.25,1.43s-2.6-6.84-8.12-11.25c-5.5-4.39-11.8-7.02-16.52-2.45-4.67,4.58-3,15.27-3,15.27-2.56-9.23-4.55-18.82,5.73-19.73,0,0,12.11-1.95,18.92,10.65,1.08,1.96,2,4.03,2.73,6.08Z"/>
        <path class="cls-3" d="M446.75,194.83c-1.09,7.59-4.84,13.71-8.59,10.56-4.49-3.76-10.46-6.63-8.79-13.54.3-1.21.56-2.5.86-3.79,1.4-6.05,3.23-12.13,9.36-9.46,0,0,7.5,2.63,7.48,11.92,0,1.45-.11,2.91-.32,4.31Z"/>
        <path class="cls-6" d="M446.75,194.83l-.3.89s.63-4.7-1.14-8.92c-1.78-4.2-4.55-7.65-8.65-6.51-4.08,1.16-6.43,7.77-6.43,7.77,1.4-6.05,3.23-12.13,9.36-9.46,0,0,7.5,2.63,7.48,11.92,0,1.45-.11,2.91-.32,4.31Z"/>
        <path class="cls-21" d="M247.26,475.8s.49-60.09,1.1-81.31c.61-21.22-13.4-57.2-13.4-57.2,0,0,8.48,110.08,12.31,138.5Z"/>
        <path class="cls-21" d="M63.21,249.56s-2.66-94.92-2.19-100.21c.47-5.29-6.64-8.72-6.64-8.72,0,0,8.8-12.92,8.82-18.83.02-5.91-6.32-32.83-6.32-32.83,0,0-10.05,42.78,6.32,160.58Z"/>
      </g>
      <path class="cls-24" d="M242.72,482.75c12.54,3.08,44.59,0,44.59,0,0,0,16.23,1.37,24.75-.89,5.44-1.44,29.8-53.62,29.87-64.76.09-14.28-46.16,46.14-46.16,46.14,0,0,37.79-86.92,34.55-101.75-3.25-14.83-22.48-40.26-31.43-41.39-6.42-.81-27.81,140.25-27.81,140.25,0,0-3.01-71.92-9.74-80.11-9.43-11.48-18.63,102.51-18.63,102.51Z"/>
      <path class="cls-7" d="M340.32,414.94c-7.38,16.53-20.7,35.25-22.44,37.59-2.16,2.91-17.31,9.3-22.1,10.72,0,0,37.79-86.92,34.55-101.75-2.04-9.34-10.43-22.87-18.59-31.91,12.53,19.01,9.85,33.98,8.04,43.93-2.43,13.43-43.01,102.67-45.44,101.69-1.13-.45-2.25-8-2.65-18.73h0c-.38,2.47-.59,3.86-.59,3.86,0,0-1.79-42.78-5.7-66.11-1.74,34.92-15.36,80.07-21.87,79.35-.51,5.68-.79,9.16-.79,9.16,12.54,3.08,44.59,0,44.59,0,0,0,16.23,1.37,24.75-.89,5.44-1.44,29.8-53.62,29.87-64.76,0-1.62-.58-2.27-1.62-2.17Z"/>
    </g>
  </g>
</svg>