<?xml version="1.0" encoding="UTF-8"?>
<svg xmlns="http://www.w3.org/2000/svg" version="1.1" viewBox="0 0 279 519.76">
  <defs>
    <style>
      .cls-1 {
        fill: #663614;
      }

      .cls-2 {
        fill: #611935;
      }

      .cls-3 {
        fill: #fcb432;
      }

      .cls-4 {
        fill: #fff;
      }

      .cls-5 {
        fill: none;
      }

      .cls-6 {
        fill: #d1b786;
      }

      .cls-7 {
        fill: #6cab43;
      }

      .cls-8 {
        fill: #af9874;
      }

      .cls-9 {
        fill: #bf3f27;
      }
    </style>
  </defs>
  <!-- Generator: Adobe Illustrator 28.7.1, SVG Export Plug-In . SVG Version: 1.2.0 Build 142)  -->
  <g>
    <g id="Layer_1">
      <g>
        <path class="cls-2" d="M89.8,241.9c0-2.65,34.31-63.64,34.31-63.64V-2.07l3.61,2.65-1.81,177.67,45.33,49.97-7.41.41-37.92-47.73-23.47,58.34-12.64,2.65Z"/>
        <g id="color_logo">
          <g>
            <path class="cls-5" d="M164.21,362.51c.4-.55.79-1.12,1.16-1.69-.37.58-.76,1.14-1.16,1.69Z"/>
            <path class="cls-5" d="M162.96,364.12c.43-.52.85-1.07,1.24-1.62-.4.55-.82,1.09-1.24,1.62Z"/>
            <path class="cls-5" d="M158.6,368.59c.42-.36.84-.73,1.24-1.12-.41.38-.82.76-1.24,1.12Z"/>
            <path class="cls-5" d="M167.71,356.57c-.3.63-.61,1.25-.94,1.86.33-.61.65-1.23.95-1.86h0Z"/>
            <rect class="cls-5" x="106.86" y="360.47" width=".11" height="0" transform="translate(-223.44 180.93) rotate(-44.96)"/>
            <path class="cls-5" d="M142.13,366.05c.26,0,.52,0,.77,0-.58-.02-1.16-.03-1.74-.05v.03c.32,0,.64,0,.97,0Z"/>
            <path class="cls-5" d="M139.96,376.29h0c-.31.02-.63.03-.94.05.31,0,.63-.03.94-.05Z"/>
            <path class="cls-5" d="M168.46,361.91c-.1.16-.2.31-.3.46.11-.16.21-.32.3-.46Z"/>
            <path class="cls-5" d="M160.53,366.81h0c-.07.07-.13.13-.2.2-.16.16-.32.31-.49.47.17-.15.33-.31.5-.47.06-.06.13-.13.2-.2Z"/>
            <path class="cls-8" d="M77.58,369.94l.93-6.86,1.47-10.83-1.48,10.9-.92,6.79s0,0,0,0Z"/>
            <path class="cls-8" d="M138.03,239.08c-6.29,4.28-17.4,12.09-29.96,22.06-17.55,13.91-32.46,27.6-44.31,40.7-9.09,10.05-16.33,19.71-21.53,28.76.02.03.04.07.06.1.5.87,1.02,1.74,1.56,2.62.2-.31.4-.61.61-.92,26.98-40.48,80.66-78.55,97.87-90.16.05-.04.1-.07.15-.1-.81-.56-1.58-1.1-2.32-1.61-.75-.51-1.46-1-2.13-1.46Z"/>
            <path class="cls-4" d="M198.53,369.94l-2.47-17.79-.07-.5-.27-1.99-.33-2.43-1.94-14.34-.51-3.75-2.52-18.6-15.75,26.6v2.51c0,3.81-.5,7.5-1.42,10.99l-3-1.17c.79-3.12,1.22-6.42,1.22-9.82v-25.69l-6.98-8.55h-17.1l-9.31,10.21-9.31-10.21h-17.1l-6.99,8.56v25.68c0,3.39.42,6.68,1.2,9.79l-2.99,1.17c-.91-3.49-1.4-7.17-1.4-10.97v-2.27l-15.89-26.84-2.52,18.6-.51,3.75-1.95,14.43-.33,2.49-.2,1.5-.13.93-1.47,10.83-.93,6.86s0,0,0,0l-.2,1.43c2.61-.52,5.2-1,7.79-1.43,8.84-1.49,17.55-2.52,26.06-3.16-.08-.09-.16-.19-.24-.28-.19-.22-.37-.45-.55-.67-.1-.12-.2-.24-.29-.37-.09-.12-.19-.25-.28-.37-.12-.15-.23-.31-.34-.46-.12-.16-.25-.33-.36-.5-.28-.39-.55-.78-.81-1.18-.15-.21-.28-.42-.41-.63-.19-.3-.37-.59-.55-.89-.18-.3-.36-.6-.52-.9h0c-.06-.11-.12-.23-.19-.34,0,0,0,0,0,0-.38-.7-.75-1.42-1.09-2.14-.12-.24-.23-.48-.34-.73h0l3.17-.73c.6,1.27,1.26,2.49,1.98,3.67.19.31.38.61.58.92.46.69.93,1.37,1.43,2.03.14.18.27.36.42.54.19.25.39.49.59.73.13.16.27.32.41.48.16.2.33.39.51.58.16.19.33.37.51.56.08.09.16.18.26.26.05.05.1.11.15.16.11.12.22.23.34.34.03.04.06.06.09.1l.08.08c.17.17.35.34.52.51.05.05.11.11.17.16.15.14.29.27.44.4.13.12.26.24.39.35.19.17.38.34.58.5.18.15.36.3.54.44.5.4,1.01.78,1.53,1.15.25.18.5.35.75.51.26.17.51.34.77.5,1.15.73,2.35,1.39,3.58,1.96,1.73.8,3.53,1.45,5.4,1.92,1.86.47,3.79.77,5.76.89l-.58-4.77-.66-5.45v-.02l-.02-.13-1.5-12.38,4.63-1.73,4.55,1.66-1.48,12.52c.58.01,1.16.03,1.74.05-.26,0-.51,0-.77,0-.32,0-.65,0-.97,0h0s-.65,5.49-.65,5.49l-.56,4.75c3.9-.24,7.61-1.21,11.05-2.79,1.24-.57,2.43-1.23,3.59-1.96h0c.27-.17.53-.34.79-.51.22-.14.44-.29.65-.45.06-.04.12-.08.18-.12.24-.17.48-.35.71-.52.25-.18.49-.37.73-.56.04-.03.08-.06.11-.09.21-.16.41-.33.61-.5.07-.06.14-.12.21-.18.42-.36.84-.73,1.24-1.12.16-.16.33-.31.49-.47.07-.06.13-.13.2-.2h0s.04-.04.05-.06h0c.17-.16.33-.33.49-.5.19-.2.38-.39.56-.59.46-.5.9-1.01,1.33-1.53.43-.52.84-1.07,1.24-1.62.4-.55.78-1.12,1.16-1.69.37-.58.73-1.17,1.07-1.77.11-.2.23-.4.34-.61.33-.61.65-1.23.94-1.86h0l3.18.73c-.35.76-.71,1.52-1.1,2.25-.21.39-.41.76-.62,1.14-.24.41-.47.82-.72,1.21-.09.14-.19.3-.3.46-1.06,1.65-2.22,3.23-3.49,4.69-.01.01-.03.03-.04.05,0,0-.02.02-.02.03h0c-.07.08-.14.15-.2.23,12.63,1.18,24.24,2.98,34.48,5v-.1s-.34-2.32-.34-2.32ZM144.49,324.98l19.5,2.74h-.02s-19.48,3.43-19.48,3.43v-6.17ZM131.62,324.98v6.17l-19.48-3.42h-.02s19.5-2.74,19.5-2.74ZM179.2,356.2l-.13-.03-1.19-.28-.89-.2-.68-.16-.98-.22-.38-.09h-.04s-.06-.02-.06-.02l-1.6-.37-1.21-.28-3.14-.72-30.84-7.1-30.79,7.09-2.84.65-.29.07-.57.13-.44.1-2.08.48-1.26.29-.87.2-.69.15-1.32.31-.07.02-.15.03-.3.07.28-.11.11-.05.09-.04,1.08-.42.66-.26,1.88-.74,1.54-.61.29-.12.98-.39.42-.16,2.97-1.17,3.06-1.2,28.28-11.12,31.4,12.35,2.96,1.17,1.58.62,1.07.42.09.04.68.27.87.35.59.23.83.33,1.01.39.08.03.48.19-.51-.12Z"/>
            <path class="cls-6" d="M162.24,273.99c-.1-.11-.19-.21-.29-.32-.11-.12-.22-.24-.33-.36,0,0-.02-.02-.03-.03.33.36.66.72.97,1.09-.11-.13-.22-.26-.33-.39Z"/>
            <path class="cls-6" d="M161.01,272.67c-.1-.1-.2-.2-.3-.3.26.26.53.53.78.8-.16-.17-.32-.34-.48-.5Z"/>
            <path class="cls-6" d="M160.21,271.88c-.17-.16-.34-.33-.51-.49-.08-.08-.16-.15-.25-.22-.03-.03-.06-.06-.1-.08.31.28.61.56.91.85-.02-.02-.03-.03-.05-.05Z"/>
            <path class="cls-6" d="M44.45,332.41c-.21.31-.41.61-.61.92,5.05,8.26,11.73,17.01,19.92,26.05,3.27,3.61,6.78,7.28,10.53,10.99l2.21-16.34.51-3.75,2.74-20.21.51-3.75,2.86-21.17,11.63-14.86h-4.45c-1.33,0-2.4-1.07-2.4-2.39s1.07-2.39,2.4-2.39h10.94l5-4.95h-5.13c-1.32,0-2.39-1.07-2.39-2.4s1.07-2.4,2.39-2.4h7.22c3.18-4.65,7.27-8.53,11.99-11.33,5.24-3.11,11.27-4.88,17.66-4.88s12.43,1.78,17.68,4.89c4.72,2.8,8.8,6.68,11.98,11.33h7.23c1.32,0,2.39,1.07,2.39,2.4s-1.07,2.4-2.39,2.4h-5.49l4.32,4.95h11.98c1.33,0,2.4,1.07,2.4,2.39s-1.07,2.39-2.4,2.39h-4.41l11.63,14.86,2.86,21.17.51,3.75,2.72,20.14.51,3.74,2.11,15.57.11.85c.29-.28.57-.56.86-.85,3.42-3.42,6.65-6.81,9.69-10.16,9.09-10.04,16.33-19.71,21.53-28.76-5.21-9.06-12.45-18.73-21.54-28.78-8.31-9.18-18.24-18.77-29.51-28.48-15.48-13.34-30.37-24.28-40.29-31.19-.05.03-.1.06-.15.1-17.21,11.61-70.89,49.68-97.87,90.16Z"/>
            <polygon class="cls-6" points="162.72 274.54 162.72 274.54 162.72 274.54 162.72 274.54"/>
            <path class="cls-6" d="M157.69,269.68c-.29-.23-.59-.46-.88-.67h-.02c.37.26.73.54,1.09.82-.06-.05-.12-.1-.19-.15Z"/>
            <path class="cls-6" d="M112.28,275.76s0,0,0,0h51.42c-.14-.18-.28-.36-.43-.54-.03-.04-.06-.08-.1-.12-.1-.12-.2-.25-.31-.37.28.34.56.68.83,1.03h-51.42Z"/>
            <path class="cls-6" d="M158.98,270.75c-.2-.17-.4-.35-.6-.51-.03-.02-.05-.04-.08-.06-.06-.05-.12-.1-.18-.15.34.27.67.55.99.84-.04-.04-.09-.08-.13-.12Z"/>
            <path class="cls-6" d="M121.19,267.64c-.1.06-.2.13-.29.19.32-.21.64-.41.96-.6-.22.13-.45.27-.67.41Z"/>
            <path class="cls-6" d="M119.04,269.12c-.17.12-.34.25-.5.38,0,0-.02.02-.03.02-.1.08-.2.16-.29.23.28-.22.57-.44.86-.66,0,0-.02.01-.03.02Z"/>
            <path class="cls-6" d="M119.68,268.65c-.07.05-.14.1-.21.15.29-.21.58-.41.87-.6-.22.15-.44.3-.66.46Z"/>
            <path class="cls-6" d="M138.54,262.74c-.11,0-.23,0-.34,0,.2,0,.41,0,.61.01-.09,0-.18,0-.27,0Z"/>
            <path class="cls-6" d="M115.13,272.52c-.15.15-.29.29-.43.44-.03.03-.06.07-.09.1.26-.27.51-.53.78-.79-.09.09-.17.17-.26.26Z"/>
            <path class="cls-6" d="M117.37,270.45c-.15.12-.29.25-.44.38.27-.23.54-.46.81-.69-.12.1-.25.2-.37.31Z"/>
            <path class="cls-6" d="M113.87,273.86c-.13.15-.26.29-.38.43h0c.21-.23.42-.47.64-.7-.08.09-.17.18-.25.27Z"/>
            <path class="cls-6" d="M139.82,262.79c-.13,0-.26-.01-.39-.02-.04,0-.07,0-.1,0-.04,0-.07,0-.11,0,.21,0,.43.02.64.03-.01,0-.03,0-.04,0Z"/>
            <path class="cls-6" d="M116.15,271.52c-.14.13-.28.27-.42.4.28-.27.57-.54.86-.8-.15.13-.29.26-.44.4Z"/>
            <path class="cls-6" d="M156.07,268.48c-.08-.05-.15-.1-.23-.15-.06-.04-.13-.08-.19-.13.31.21.61.42.91.63-.16-.12-.33-.24-.49-.35Z"/>
            <path class="cls-6" d="M151.82,265.97c-.06-.03-.12-.06-.18-.09,0,0,0,0,0,0,.08.04.16.08.24.12-.02,0-.04-.02-.05-.03Z"/>
            <path class="cls-6" d="M151.13,265.64c-.1-.05-.21-.1-.33-.15,0,0,0,0,0,0,.13.06.27.12.4.18-.02-.01-.04-.02-.06-.03Z"/>
            <path class="cls-6" d="M149.71,265.03s-.09-.04-.13-.05c-.01,0-.03-.01-.05-.02-.01,0-.02,0-.03-.01.09.04.18.08.28.11-.02,0-.05-.02-.07-.03Z"/>
            <path class="cls-6" d="M140.89,262.87s-.05,0-.08,0c-.13-.01-.25-.02-.38-.03,0,0-.02,0-.02,0,.22.02.44.04.65.06-.06,0-.11-.01-.17-.02Z"/>
            <path class="cls-6" d="M154.98,267.75c-.15-.1-.3-.19-.45-.28-.02-.01-.04-.03-.06-.04-.03-.02-.05-.03-.08-.05-.03-.02-.05-.03-.08-.05l-.07-.04s-.02-.01-.03-.02c-.02,0-.03-.02-.05-.03.34.2.68.42,1.02.64-.06-.04-.12-.08-.19-.12Z"/>
            <path class="cls-6" d="M141.75,262.96s-.09-.01-.14-.02c.06,0,.12.01.18.02-.02,0-.03,0-.05,0Z"/>
            <path class="cls-6" d="M145.9,263.76c-.08-.02-.15-.04-.23-.06.12.03.24.06.35.09-.04-.01-.08-.02-.12-.03Z"/>
            <path class="cls-6" d="M143.85,263.29s-.04,0-.06-.01c.09.02.18.03.27.05-.07-.01-.14-.03-.21-.04Z"/>
            <path class="cls-6" d="M144.88,263.51c-.06-.01-.12-.03-.19-.04.17.04.34.08.51.12-.11-.03-.22-.05-.32-.07Z"/>
            <path class="cls-6" d="M113.13,274.71s-.01.01-.02.02c-.04.05-.08.09-.11.13-.12.15-.25.3-.36.45-.1.12-.2.25-.29.37.28-.36.57-.71.86-1.05-.02.03-.05.05-.07.08Z"/>
            <g>
              <polygon class="cls-7" points="120.21 239.15 130.91 232.43 119.64 225.71 120.21 239.15"/>
              <polygon class="cls-7" points="104.88 251.26 114.57 243.16 102.5 238.03 104.88 251.26"/>
              <polygon class="cls-7" points="88.47 265.68 97.92 257.29 85.7 252.52 88.47 265.68"/>
              <polygon class="cls-7" points="72.18 280.88 80.87 271.71 68.28 268.01 72.18 280.88"/>
              <polygon class="cls-7" points="41.11 297.01 45 309.88 53.7 300.71 41.11 297.01"/>
              <polygon class="cls-7" points="58.07 295.9 66.76 286.73 54.17 283.03 58.07 295.9"/>
              <polygon class="cls-7" points="42.09 314.69 29.06 313.17 35.07 325.2 42.09 314.69"/>
              <polygon class="cls-7" points="30.88 350.82 44.27 349.62 37.06 339.24 30.88 350.82"/>
              <polygon class="cls-7" points="45.24 370.14 58.35 367.13 49.79 357.83 45.24 370.14"/>
              <polygon class="cls-7" points="218.68 366.04 231.26 369.74 227.37 356.87 218.68 366.04"/>
              <polygon class="cls-7" points="232.42 350.89 245.45 352.42 239.44 340.39 232.42 350.89"/>
              <polygon class="cls-7" points="233.42 316.05 240.59 326.45 240.79 326.1 246.82 314.91 234.13 315.99 233.42 316.05"/>
              <polygon class="cls-7" points="234.58 297.03 221.46 299.93 229.94 309.3 234.58 297.03"/>
              <polygon class="cls-7" points="206.41 284.1 215.16 293.21 219.45 280.81 206.41 284.1"/>
              <polygon class="cls-7" points="200.08 276.74 203.28 264.02 190.58 268.41 200.08 276.74"/>
              <polygon class="cls-7" points="168.51 249.98 171.67 237.25 158.98 241.69 168.51 249.98"/>
              <polygon class="cls-7" points="154.93 238.33 155.89 225.24 144.13 231.76 154.93 238.33"/>
              <polygon class="cls-7" points="183.53 263.32 186.69 250.59 174 255.03 183.53 263.32"/>
            </g>
            <g>
              <path class="cls-9" d="M138.08,213.47c-3.83,0-6.94,3.37-6.94,7.51s3.11,7.51,6.94,7.51,6.94-3.37,6.94-7.51-3.11-7.51-6.94-7.51ZM138.08,226.22c-2.57,0-4.67-2.35-4.67-5.24,0-1.66.69-3.14,1.77-4.1-.22.55-.35,1.17-.35,1.82,0,2.27,1.48,4.1,3.3,4.1s3.3-1.84,3.3-4.1c0-.59-.1-1.15-.28-1.65h0c.97.96,1.58,2.37,1.58,3.93,0,2.89-2.09,5.24-4.67,5.24Z"/>
              <path class="cls-9" d="M24.35,323.44c-4.14,0-7.51,3.11-7.51,6.94s3.37,6.94,7.51,6.94,7.51-3.11,7.51-6.94-3.37-6.94-7.51-6.94ZM24.35,335.05c-1.66,0-3.14-.69-4.1-1.77h0c.55.22,1.17.35,1.83.35,2.27,0,4.1-1.48,4.1-3.3s-1.84-3.3-4.1-3.3c-.59,0-1.14.1-1.65.28h0c.95-.97,2.36-1.59,3.92-1.59,2.89,0,5.24,2.09,5.24,4.67s-2.35,4.67-5.24,4.67Z"/>
              <path class="cls-9" d="M256.03,326.63c-1.47-1.23-3.37-1.85-5.36-1.77-1.99.08-3.83.87-5.19,2.22-1.38,1.38-2.1,3.17-2.02,5.04.16,3.72,3.47,6.62,7.45,6.62.12,0,.24,0,.35,0,4.14-.18,7.38-3.43,7.21-7.26-.08-1.87-.95-3.59-2.45-4.85ZM255.04,334.7h0c-.92,1.02-2.3,1.7-3.86,1.76-2.88.14-5.32-1.87-5.43-4.44-.05-1.23.43-2.41,1.35-3.33.48-.47,1.04-.85,1.67-1.12.62-.26,1.3-.42,2.01-.45.09,0,.17,0,.26,0,1.32,0,2.57.44,3.54,1.25.14.11.26.23.38.35,0,0,0,0,0,0-.56-.2-1.19-.3-1.85-.27-2.26.1-4.04,1.65-3.96,3.47.08,1.82,1.98,3.22,4.24,3.12.59-.03,1.15-.15,1.65-.36,0,0,0,0,0,0Z"/>
            </g>
            <path class="cls-4" d="M163.71,275.76c-.27-.35-.55-.69-.83-1.03-.05-.05-.09-.11-.13-.16,0,0-.01-.02-.02-.03,0,0,0,0,0,0-.03-.04-.07-.08-.11-.13-.01-.01-.02-.02-.03-.04-.32-.37-.64-.74-.97-1.09-.04-.04-.07-.07-.11-.11-.26-.27-.52-.54-.78-.8-.15-.15-.3-.3-.45-.44-.3-.29-.6-.57-.91-.85-.08-.08-.17-.15-.25-.22-.33-.29-.66-.57-.99-.84-.08-.06-.16-.13-.23-.19-.36-.29-.72-.57-1.09-.84-.08-.06-.15-.11-.23-.16-.3-.22-.6-.43-.91-.63-.16-.11-.32-.21-.48-.32-.34-.22-.67-.43-1.02-.64-.04-.02-.07-.04-.11-.07-.3-.18-.6-.35-.91-.52-.24-.13-.48-.26-.73-.39-.05-.02-.1-.05-.15-.08-.05-.03-.1-.05-.15-.07-.08-.04-.16-.08-.24-.12-.08-.04-.16-.08-.24-.12-.14-.07-.29-.14-.44-.21-.13-.06-.27-.12-.4-.18-.33-.15-.67-.3-1.02-.44-.09-.04-.18-.08-.28-.11-.17-.07-.33-.13-.5-.19-.08-.03-.15-.06-.23-.09-.2-.08-.4-.15-.59-.21t0,0s0,0-.01,0c-.25-.09-.5-.17-.76-.25-.33-.1-.66-.21-1-.3-.13-.04-.26-.07-.38-.1-.12-.03-.23-.06-.35-.09-.09-.02-.19-.05-.28-.07-.06-.02-.13-.03-.19-.04-.17-.04-.34-.08-.51-.12-.14-.03-.28-.06-.42-.09-.07-.02-.14-.03-.21-.04-.09-.02-.18-.03-.27-.05-.15-.03-.31-.06-.46-.09-.51-.09-1.02-.16-1.53-.23-.06,0-.12-.02-.18-.02-.13-.02-.26-.03-.39-.04-.06,0-.11-.01-.17-.02-.22-.02-.43-.04-.65-.06-.18-.02-.36-.03-.54-.04-.21-.01-.43-.02-.64-.03-.07,0-.13,0-.2,0-.07,0-.14,0-.21,0-.2,0-.41,0-.61-.01-.07,0-.13,0-.2,0-5.81,0-11.26,1.6-16.04,4.43-.04.02-.07.04-.1.06-.32.19-.64.4-.96.6-.16.1-.31.2-.47.3-.03.02-.06.04-.08.06-.29.2-.58.4-.87.6-.04.03-.08.06-.12.08-.1.07-.19.14-.28.21h-.01c-.29.22-.57.44-.86.67-.07.06-.14.11-.22.17-.08.07-.17.14-.25.21-.27.23-.54.45-.81.69-.06.05-.12.1-.18.15-.05.05-.11.1-.16.15-.29.26-.58.53-.86.8-.06.05-.11.11-.17.16-.06.06-.12.12-.18.18-.26.26-.52.52-.78.79-.17.17-.33.35-.49.53-.21.24-.43.47-.64.71-.09.11-.18.21-.28.32-.29.34-.58.69-.86,1.05-.02.03-.04.05-.06.08h51.42Z"/>
            <polygon class="cls-4" points="106.25 280.55 101.25 285.5 173.72 285.5 169.4 280.55 106.25 280.55"/>
            <polygon class="cls-4" points="177.24 290.28 98.81 290.28 86.58 305.91 101.51 331.12 101.51 312.84 110.17 302.23 130.2 302.23 138.1 310.89 145.99 302.23 166.02 302.23 174.32 312.38 174.68 312.83 174.68 330.88 189.47 305.91 189.47 305.9 177.24 290.28"/>
          </g>
          <g>
            <g>
              <path class="cls-3" d="M138.08,226.22c2.57,0,4.67-2.35,4.67-5.24,0-1.56-.62-2.96-1.58-3.92h0c.18.5.28,1.06.28,1.65,0,2.27-1.48,4.1-3.3,4.1s-3.3-1.84-3.3-4.1c0-.66.13-1.27.35-1.82-1.08.96-1.77,2.44-1.77,4.1,0,2.89,2.09,5.24,4.67,5.24Z"/>
              <path class="cls-3" d="M249.15,331.94c-.08-1.82,1.69-3.38,3.96-3.47.66-.03,1.29.07,1.85.27,0,0,0,0,0,0-.12-.12-.25-.24-.38-.35-.97-.81-2.22-1.25-3.54-1.25-.09,0-.17,0-.26,0-.71.03-1.39.18-2.01.45-.62.26-1.19.64-1.67,1.12-.92.92-1.4,2.1-1.35,3.33.11,2.57,2.55,4.58,5.43,4.44,1.57-.06,2.95-.74,3.86-1.76h0s0,0,0,0c-.5.2-1.06.33-1.65.36-2.26.1-4.16-1.3-4.24-3.12Z"/>
              <path class="cls-3" d="M24.35,325.71c-1.56,0-2.97.61-3.92,1.58h0c.5-.18,1.06-.28,1.65-.28,2.27,0,4.1,1.48,4.1,3.3s-1.84,3.3-4.1,3.3c-.66,0-1.28-.13-1.83-.35h0c.96,1.08,2.44,1.77,4.1,1.77,2.89,0,5.24-2.09,5.24-4.67s-2.35-4.67-5.24-4.67Z"/>
              <path class="cls-3" d="M261.06,326.14c-6.11-12.29-15.07-25.09-26.77-38.34-11.7-13.26-26.15-26.98-43.26-41.08-12.62-10.4-24.29-19.01-32.93-25.09-4.32-3.04-7.88-5.46-10.42-7.14-2.54-1.69-4.05-2.65-4.3-2.81l-5.36-3.39-5.35,3.39h0s-.03.02-.05.04c-.22.14-.85.54-1.84,1.18-.21.14-.44.29-.69.46-.25.16-.52.34-.81.53-.28.19-.58.39-.9.6-7.61,5.06-24.41,16.63-43.34,32.23-17.12,14.1-31.57,27.82-43.26,41.08-11.7,13.26-20.66,26.06-26.77,38.34l-2.21,4.46,2.21,4.46c6.11,12.29,15.06,25.09,26.77,38.35,1.72,1.94,3.49,3.9,5.33,5.87,6.5-2.12,12.97-3.94,19.4-5.5,1.99-.48,3.98-.94,5.96-1.37-3.67-3.65-7.27-7.38-10.71-11.19-7.44-8.22-14.17-16.76-19.53-25.34-.55-.87-1.08-1.74-1.59-2.61-.53-.88-1.04-1.77-1.53-2.66,5.75-10.32,13.68-20.69,22.65-30.59,13.9-15.36,30.25-29.61,44.63-41.01,13.48-10.69,25.24-18.89,31.66-23.22,8.69,5.86,27.2,18.83,46.52,35.49,3.63,3.13,7.29,6.39,10.92,9.75,1.42,1.32,2.83,2.65,4.23,3.99.02.01.04.03.05.05,5.01,4.81,9.91,9.8,14.55,14.93,8.97,9.9,16.9,20.28,22.65,30.61-5.75,10.32-13.68,20.69-22.65,30.59-3.61,3.99-7.39,7.91-11.25,11.72,0,0-.02.02-.05.06.02,0,.04,0,.06.02.39.09.77.18,1.16.27,1.57.37,3.13.75,4.67,1.15.92.24,1.84.48,2.76.73,0,0,0,0,0,0,6.48,1.53,12.18,3.08,16.94,4.49,1.96-2.09,3.85-4.16,5.67-6.22,11.7-13.26,20.66-26.06,26.77-38.35l2.21-4.46-2.21-4.46ZM240.79,326.1l-.19.36-7.17-10.4.71-.06,12.69-1.08-6.03,11.19ZM234.58,297.03l-4.65,12.27-8.48-9.36,13.13-2.91ZM219.45,280.81l-4.29,12.4-8.75-9.11,13.04-3.29ZM203.28,264.02l-3.2,12.72-9.5-8.32,12.71-4.4ZM186.69,250.59l-3.16,12.73-9.53-8.29,12.69-4.44ZM171.67,237.25l-3.16,12.73-9.53-8.29,12.69-4.44ZM155.89,225.24l-.96,13.08-10.8-6.56,11.76-6.52ZM138.08,213.47c3.83,0,6.94,3.37,6.94,7.51s-3.11,7.51-6.94,7.51-6.94-3.37-6.94-7.51,3.11-7.51,6.94-7.51ZM130.91,232.43l-10.7,6.72-.57-13.43,11.27,6.72ZM114.57,243.16l-9.69,8.11-2.39-13.23,12.08,5.12ZM97.92,257.29l-9.45,8.39-2.77-13.16,12.22,4.77ZM80.87,271.71l-8.69,9.17-3.9-12.87,12.59,3.7ZM66.76,286.73l-8.69,9.17-3.9-12.87,12.59,3.7ZM53.7,300.71l-8.69,9.17-3.9-12.87,12.59,3.7ZM42.09,314.69l-7.02,10.5-6.01-12.03,13.03,1.52ZM24.35,337.33c-4.14,0-7.51-3.11-7.51-6.94s3.37-6.94,7.51-6.94,7.51,3.11,7.51,6.94-3.37,6.94-7.51,6.94ZM30.88,350.82l6.18-11.58,7.21,10.37-13.39,1.2ZM45.24,370.14l4.55-12.31,8.56,9.3-13.1,3.01ZM218.68,366.04l8.69-9.17,3.9,12.87-12.59-3.7ZM232.42,350.89l7.02-10.5,6.01,12.03-13.03-1.52ZM251.27,338.74c-.11,0-.23,0-.35,0-3.98,0-7.29-2.91-7.45-6.62-.08-1.87.64-3.66,2.02-5.04,1.36-1.34,3.2-2.14,5.19-2.22,1.98-.09,3.88.54,5.36,1.77,1.5,1.25,2.37,2.97,2.45,4.85.16,3.83-3.07,7.09-7.21,7.26Z"/>
              <path class="cls-3" d="M107.99,420.24l2.8,5.05h19.86l1.18,2.71.6,1.37.37.85.41.94.25-.13.89-.49.28-.15,4.29-2.34-1.2-2.76h66.85l1.18,2.71.59,1.37.78,1.79.25-.13,1.17-.64.33-.18,3.97-2.16-1.2-2.76h18.24l.37-3.68.14-1.37.14-1.34h-21.68l-8.44-19.35h24.91l.38-3.68.14-1.37.14-1.34h-28.36l-1.18-2.71-.2-.45-.54-1.25-.97-2.24-1.35.74-4.36,2.38,1.54,3.53h-1.72l-.65,6.39h5.16l1.18,2.71.6,1.37,6.67,15.28h-22.03l-12.61-28.91-.54-1.25-.97-2.24-2.1,1.15-3.61,1.97.09.2,2.49,5.7-14.98,23.38h-12.58l-11.38-26.09-.54-1.25-.97-2.24-5.71,3.11,3.03,6.94,8.52,19.52h-20.61l.74,1.34ZM159.96,410.49l5.39-8.41,1.89,4.34.64,1.47,4.8,11.01h-18.11l5.39-8.41Z"/>
              <path class="cls-3" d="M59.86,428l-.03.05,2.15,1.32.06.05.87.53.26.16,1.72,1.05,3.76-5.87h24.99l1.18,2.71.6,1.37,1.13,2.61.25-.14,1.17-.64,4.29-2.34-10.21-23.42-6.74-15.45-.54-1.25-.97-2.24-2.1,1.15-3.6,1.97.08.2,2.49,5.7-6.78,10.58-8.19,12.8h-10.61l-.65,6.39h7.16l-1.73,2.71ZM78.14,410.49l5.39-8.41,1.89,4.34.64,1.47,4.8,11.01h-18.11l5.39-8.41Z"/>
              <polygon class="cls-3" points="57.53 393.47 57.67 392.1 57.75 391.33 49.38 391.33 48.89 396.13 48.73 397.72 49.47 397.72 50.8 397.72 57.1 397.72 57.53 393.47"/>
              <polygon class="cls-3" points="69.43 397.72 69.74 394.68 69.86 393.47 70 392.1 70.08 391.33 61.71 391.33 61.06 397.72 61.8 397.72 63.13 397.72 69.43 397.72"/>
              <polygon class="cls-3" points="226.51 445 226.51 445 225.96 443.75 224.98 441.51 223.48 442.33 219.28 444.63 237.01 485.1 237.25 484.97 238.42 484.33 238.42 484.33 240.52 483.18 242.71 481.99 241.93 480.2 226.51 445"/>
              <path class="cls-3" d="M209.03,443.75l-.98-2.23-1.33.72-4.38,2.39,12.54,28.57h-15.76l-8.21-18.83-.57-1.32-.54-1.25-.98-2.24-1.92,1.05-3.78,2.06.02.05h-24.01l-.4-.92-.98-2.24-1.26.69-4.45,2.43,8.95,20.52h-9.02l-2.76-6.33-.55-1.25-.97-2.24-2.86,1.55-2.85,1.56,2.92,6.7h-12.29l-8.79-20.15-.55-1.25-.97-2.24-1.12.61-4.59,2.5,8.95,20.52h-21.22l-4.04-9.28-4.74-10.87-.55-1.25-.97-2.24-2.32,1.27-3.39,1.85,8.95,20.52h-25.33l-8.79-20.15-.55-1.25-.97-2.24-.67.37-5.03,2.75,2.35,5.38,6.6,15.14h-5.4l-.65,6.39h8.83l1.18,2.71.6,1.37,1.29,2.96.25-.14.74-.4.43-.24,4.29-2.34-.33-.75-1.38-3.17h25.33l1.16,2.67.02.04.59,1.37.83,1.89.25-.14,1.17-.64,4.29-2.34-1.25-2.86h21.22l1.18,2.71.6,1.37.17.4.25-.14,1.17-.64,2.96-1.62,1.33-.72-.59-1.36h13.6l1.18,2.71.6,1.37.18.4.25-.14,1.17-.64,4.29-2.34-.33-.76-.27-.61h7.7l1.18,2.71.59,1.37,1.04,2.39.25-.14,1.17-.64,4.28-2.34-1.45-3.35h24.01l.38.86.81,1.85.6,1.37.17.4.25-.14,1.17-.64,4.29-2.34-.15-.36-.44-1h15.29l.09-.87,1.56,3.58.36.84.23.53.63,1.43.25-.13,1.17-.64,3.21-1.75,1.08-.59-16.21-36.99-.55-1.25ZM168.05,473.2l-3.66-8.39-2.48-5.69h24.01l1.18,2.71.59,1.37,2.54,5.81,1.83,4.19h-24.01Z"/>
              <polygon class="cls-3" points="104.34 501.9 104.9 501.9 106.23 501.9 106.23 501.9 112.7 501.9 113.03 498.68 113.17 497.31 113.19 497.11 113.36 495.51 104.99 495.51 104.34 501.9"/>
              <polygon class="cls-3" points="74.3 449.63 75.62 449.63 80.78 449.63 81.16 445.95 81.3 444.58 81.43 443.24 73.06 443.24 72.41 449.63 74.3 449.63"/>
              <polygon class="cls-3" points="117.16 497.11 116.67 501.9 117.23 501.9 118.56 501.9 118.56 501.9 125.03 501.9 125.36 498.68 125.5 497.31 125.69 495.51 117.32 495.51 117.16 497.11"/>
              <polygon class="cls-3" points="56.73 500.3 58.61 500.3 95.71 500.3 95.79 499.6 95.94 497.68 56.95 497.68 56.73 500.3"/>
            </g>
            <g>
              <path class="cls-1" d="M265.72,329.38l-1-2.02-1.14-2.3-.07-.15-1.22-2.45h-.03c-6.12-11.66-14.83-23.92-25.92-36.49-11.75-13.31-26.41-27.24-43.58-41.38-10.56-8.71-21.7-17.19-33.09-25.22-3.64-2.56-7.16-4.98-10.47-7.18-2.79-1.85-4.34-2.83-4.36-2.84l-5.35-3.39-1.46-.92-1.46.92-5.34,3.38h0s-.01,0-.01,0c-.12.08-1.62,1.03-4.34,2.84-8.21,5.46-24.8,16.93-43.57,32.4-17.16,14.14-31.83,28.06-43.57,41.38-11.86,13.44-21,26.54-27.16,38.93l-2.22,4.46-.6,1.22.6,1.22,2.22,4.46c6.16,12.4,15.3,25.5,27.16,38.94,1.47,1.66,2.97,3.33,4.53,5.01.95-.33,1.9-.64,2.85-.95-1.84-1.97-3.62-3.92-5.33-5.87-11.7-13.26-20.66-26.06-26.77-38.35l-2.21-4.46,2.21-4.46c6.11-12.29,15.06-25.09,26.77-38.34,11.7-13.26,26.15-26.98,43.26-41.08,18.93-15.6,35.73-27.17,43.34-32.23.32-.21.62-.41.9-.6.29-.19.56-.37.81-.53.25-.16.48-.32.69-.46.99-.65,1.62-1.04,1.84-1.18.02-.02.04-.03.05-.04h0l5.35-3.39,5.36,3.39c.25.15,1.76,1.12,4.3,2.81,2.54,1.68,6.1,4.1,10.42,7.14,8.63,6.08,20.3,14.69,32.93,25.09,17.12,14.1,31.57,27.82,43.26,41.08,11.7,13.26,20.66,26.06,26.77,38.34l2.21,4.46-2.21,4.46c-6.11,12.29-15.07,25.09-26.77,38.35-1.82,2.06-3.71,4.13-5.67,6.22,1.02.3,1.99.6,2.91.88,1.65-1.78,3.26-3.54,4.8-5.3,11.86-13.44,21-26.54,27.16-38.94l2.22-4.46.6-1.22-.6-1.22Z"/>
              <path class="cls-1" d="M214.31,299.99c-4.64-5.12-9.54-10.12-14.55-14.93-.02-.02-.04-.04-.05-.05-1.4-1.34-2.81-2.68-4.23-3.99-3.62-3.36-7.29-6.62-10.92-9.75-19.32-16.66-37.83-29.63-46.52-35.49-6.42,4.33-18.18,12.53-31.66,23.22-14.39,11.4-30.74,25.65-44.63,41.01-8.97,9.9-16.9,20.27-22.65,30.59.49.89,1,1.78,1.53,2.66.51.87,1.05,1.74,1.59,2.61,5.36,8.57,12.09,17.11,19.53,25.34,3.45,3.81,7.04,7.54,10.71,11.19.54-.12,1.08-.24,1.62-.35.53-.11,1.07-.22,1.6-.33.31-.06.63-.13.94-.19.22-.05.43-.09.65-.13.04,0,.08-.01.12-.02l.2-1.43.92-6.79,1.48-10.9.13-.93.2-1.5.33-2.49,1.95-14.43.51-3.75,2.52-18.6,15.89,26.84v2.27c0,3.8.5,7.48,1.4,10.97l2.99-1.17c-.78-3.12-1.2-6.4-1.2-9.79v-25.68l6.99-8.56h17.1l9.31,10.21,9.31-10.21h17.1l6.98,8.55v25.69c0,3.4-.43,6.69-1.22,9.82l3,1.17c.92-3.49,1.42-7.18,1.42-10.99v-2.51l15.75-26.6,2.52,18.6.51,3.75,1.94,14.34.33,2.43.27,1.99.07.5,2.47,17.79.32,2.32v.1c.26.05.51.1.75.15.85.17,1.68.34,2.5.51.24.05.48.1.72.15.07-.08.14-.15.18-.2h0s.05-.05.05-.06c3.86-3.81,7.64-7.72,11.25-11.72,8.96-9.9,16.9-20.27,22.65-30.59-5.75-10.33-13.69-20.71-22.65-30.61ZM174.68,330.88v-18.05l-.36-.44-8.3-10.16h-20.03l-7.9,8.67-7.9-8.67h-20.02l-8.67,10.61v18.29l-14.93-25.21,12.23-15.63h78.43l12.23,15.62h0s-14.79,24.97-14.79,24.97ZM212.29,359.36c-3.03,3.35-6.26,6.74-9.69,10.16-.28.28-.57.57-.86.85l-.11-.85-2.11-15.57-.51-3.74-2.72-20.14-.51-3.75-2.86-21.17-11.63-14.86h4.41c1.33,0,2.4-1.07,2.4-2.39s-1.07-2.39-2.4-2.39h-95.39c-1.33,0-2.4,1.07-2.4,2.39s1.07,2.39,2.4,2.39h4.45l-11.63,14.86-2.86,21.17-.51,3.75-2.74,20.21-.51,3.75-2.21,16.34c-3.75-3.71-7.26-7.39-10.53-10.99-8.19-9.04-14.87-17.79-19.92-26.05-.54-.88-1.06-1.75-1.56-2.62-.02-.03-.04-.07-.06-.1,5.2-9.05,12.44-18.72,21.53-28.76,11.85-13.1,26.76-26.79,44.31-40.7,12.56-9.97,23.67-17.78,29.96-22.06.67.46,1.38.94,2.13,1.46.74.51,1.51,1.04,2.32,1.61,9.92,6.92,24.81,17.85,40.29,31.19,11.27,9.71,21.2,19.3,29.51,28.48,9.09,10.05,16.33,19.72,21.54,28.78-5.2,9.05-12.45,18.72-21.53,28.76Z"/>
              <path class="cls-1" d="M174.89,275.76h-7.23c-3.18-4.64-7.26-8.53-11.98-11.33-5.25-3.11-11.27-4.89-17.68-4.89s-12.42,1.78-17.66,4.88c-4.72,2.81-8.82,6.68-11.99,11.33h-7.22c-1.32,0-2.39,1.07-2.39,2.4s1.07,2.4,2.39,2.4h73.77c1.32,0,2.39-1.07,2.39-2.4s-1.07-2.4-2.39-2.4ZM112.64,275.31c.12-.15.24-.3.36-.45.03-.05.07-.09.11-.13,0,0,.01-.01.02-.02.02-.03.05-.05.07-.08.09-.11.18-.22.28-.32h0c.12-.15.25-.3.38-.44.08-.09.17-.18.25-.27.16-.18.32-.35.49-.53.03-.03.06-.07.09-.1.14-.15.28-.29.43-.44.08-.09.17-.17.26-.26.11-.11.23-.23.34-.34.14-.14.28-.27.42-.4.15-.14.29-.27.44-.4.11-.1.23-.2.34-.3.15-.13.29-.26.44-.38.12-.1.25-.21.37-.31.15-.13.31-.25.47-.38.1-.08.19-.16.29-.23,0,0,.02-.01.03-.02.16-.13.33-.26.5-.38,0,0,.02-.01.03-.02h.01s.06-.06.09-.08c.1-.08.2-.15.31-.22.07-.05.14-.1.21-.15.22-.16.44-.31.66-.46.18-.12.37-.24.55-.36.1-.06.2-.13.29-.19.22-.14.44-.27.67-.41.03-.02.07-.04.1-.06,4.78-2.83,10.23-4.43,16.04-4.43.07,0,.13,0,.2,0,.11,0,.23,0,.34,0,.09,0,.18,0,.27,0,.14,0,.27,0,.41.01.04,0,.07,0,.11,0,.04,0,.07,0,.1,0,.13,0,.26.01.39.02.01,0,.03,0,.04,0,.18.01.36.02.54.04,0,0,.02,0,.02,0,.12,0,.25.02.38.03.03,0,.05,0,.08,0,.06,0,.11.01.17.02.19.02.37.04.56.06.05,0,.09,0,.14.02.02,0,.03,0,.05,0,.44.05.88.12,1.32.19.22.04.45.07.67.12.02,0,.04,0,.06.01.07.01.14.03.21.04.21.04.42.09.63.13.06.01.12.03.19.04.11.02.21.05.32.07.16.04.31.08.47.12.08.02.15.04.23.06.04,0,.08.02.12.03.56.15,1.12.32,1.67.5.06.02.12.04.18.06.55.18,1.1.38,1.63.59.01,0,.02,0,.03.01.01,0,.03.01.05.02.04.02.09.04.13.05.02,0,.05.02.07.03.34.14.68.29,1.02.44,0,0,0,0,0,0,.11.05.22.1.33.15.02.01.04.02.06.03.15.07.29.14.44.21,0,0,0,0,0,0,.06.03.12.05.18.09.02,0,.04.02.05.03.28.14.56.28.83.43.12.07.25.13.37.2.11.06.21.12.32.18.22.12.43.24.65.37.04.02.08.04.11.07.02,0,.03.02.05.03,0,0,.02.01.03.02l.07.04s.05.03.08.05c.03.02.05.03.08.05.02.01.04.03.06.04.15.09.31.19.45.28.06.04.12.08.19.12.16.11.32.21.48.32.06.04.13.08.19.13.07.05.15.1.23.15.16.12.33.23.49.35.08.06.15.11.23.16h.02c.3.23.59.46.88.69.06.05.12.1.19.15.08.06.16.12.23.19.06.05.12.1.18.15.02.02.05.04.08.06.2.17.4.34.6.51.04.04.09.08.13.12.08.07.17.15.25.22.03.03.06.06.1.08.08.07.16.15.25.22.17.16.34.32.51.49.02.02.03.03.05.05.15.14.3.29.45.44.1.1.2.2.3.3.16.16.32.33.48.5.04.04.07.07.11.11,0,0,.02.02.03.03.11.12.22.24.33.36.1.1.19.21.29.32.11.13.22.26.33.39.01.01.02.03.03.04.04.04.08.08.11.13,0,0,0,0,0,0,0,0,0,0,0,0,0,0,.01.02.02.03.05.05.09.11.13.16.1.12.21.24.31.37.03.04.06.08.1.12.15.18.29.36.43.54h-51.42s0,0,0,0c.02-.03.04-.05.06-.08.1-.12.19-.25.29-.37Z"/>
              <path class="cls-1" d="M113.06,368.8c.15.16.31.32.47.48.16.16.32.31.49.47.16.15.33.31.5.46.5.46,1.01.9,1.53,1.33,2.35,1.94,4.93,3.58,7.69,4.86,3.98,1.84,8.32,2.94,12.89,3.12l1.5,12.37,1.46-12.37c4.52-.21,8.83-1.3,12.76-3.12,2.77-1.28,5.36-2.92,7.72-4.85,1.53-1.25,2.97-2.64,4.34-4.18.07-.07.14-.15.2-.23h0s.01-.02.02-.03c.01-.01.03-.03.04-.05,1.27-1.46,2.44-3.03,3.49-4.69.1-.15.2-.31.3-.46.25-.4.48-.8.72-1.21.21-.37.42-.75.62-1.14.39-.73.76-1.48,1.1-2.25l-3.18-.73c-.3.63-.61,1.25-.95,1.86-.11.2-.22.41-.34.61-.34.6-.7,1.19-1.07,1.77-.37.58-.76,1.14-1.16,1.69-.4.55-.81,1.09-1.24,1.62-.43.53-.87,1.04-1.33,1.53-.18.2-.37.4-.56.59-.16.17-.32.33-.49.5h0s-.04.04-.05.06c-.06.07-.13.13-.2.2-.16.16-.33.32-.5.47-.41.39-.82.76-1.24,1.12-.07.06-.14.12-.21.18-.2.17-.41.34-.61.5-.04.03-.08.06-.11.09-.24.19-.48.38-.73.56-.24.18-.47.36-.71.52-.06.05-.12.09-.18.12-.21.15-.43.31-.65.45-.26.18-.52.35-.79.51h0c-1.16.73-2.35,1.39-3.59,1.96-3.43,1.58-7.15,2.55-11.05,2.79h0c-.31.02-.63.04-.94.05.31-.01.63-.03.94-.05l.56-4.75.65-5.49h0s0-.04,0-.04l1.48-12.52-4.55-1.66-4.63,1.73,1.5,12.38.02.13v.02l.66,5.45.58,4.77c-1.97-.11-3.9-.41-5.76-.89-1.86-.47-3.67-1.12-5.4-1.92-1.23-.57-2.43-1.23-3.58-1.96-.26-.16-.51-.33-.77-.5-.25-.16-.5-.34-.75-.51-.52-.36-1.03-.75-1.53-1.15-.18-.14-.36-.29-.54-.44-.2-.16-.39-.32-.58-.5-.13-.11-.26-.23-.39-.35-.15-.13-.29-.26-.44-.4-.06-.05-.12-.1-.17-.16-.18-.17-.35-.34-.52-.51l-.08-.08s-.06-.06-.09-.1c-.12-.11-.23-.22-.34-.34-.05-.05-.1-.11-.15-.16-.09-.09-.18-.17-.26-.26-.18-.18-.35-.37-.51-.56-.18-.19-.35-.39-.51-.58-.15-.16-.28-.32-.41-.48-.2-.24-.4-.49-.59-.73-.15-.18-.28-.36-.42-.54-.5-.66-.98-1.34-1.43-2.03-.2-.3-.39-.61-.58-.92-.72-1.17-1.38-2.4-1.98-3.67l-3.17.73h0c.11.25.22.49.34.73.34.73.71,1.44,1.09,2.14,0,0,0,0,0,0,.06.11.12.22.19.33l.07-.07h0l-.08.08c.17.31.35.61.52.9.18.3.36.6.55.89.14.21.27.42.41.63.26.4.53.8.81,1.18.11.16.24.33.36.5.11.15.22.31.34.46.09.12.19.25.28.37.1.13.19.25.29.37.18.23.36.45.55.67.08.1.15.19.24.28.14.17.28.34.43.5.02.03.05.06.07.09.06.08.13.15.2.22.06.07.13.15.2.22h0c.31.34.61.66.93.99Z"/>
              <polygon class="cls-1" points="144.49 324.98 144.49 331.15 163.97 327.73 163.99 327.72 144.49 324.98"/>
              <polygon class="cls-1" points="131.62 324.98 112.12 327.72 112.15 327.73 131.62 331.15 131.62 324.98"/>
              <polygon class="cls-1" points="106.71 352.26 103.74 353.43 103.32 353.59 102.34 353.98 102.05 354.1 100.5 354.7 98.63 355.44 97.97 355.7 96.88 356.12 96.79 356.16 96.68 356.2 96.4 356.31 96.7 356.25 96.85 356.21 96.91 356.2 98.23 355.89 98.92 355.74 99.79 355.54 101.04 355.24 103.13 354.77 103.57 354.67 104.14 354.53 104.43 354.47 107.27 353.81 138.06 346.73 168.9 353.83 172.04 354.55 173.25 354.82 174.85 355.19 174.91 355.21 174.95 355.22 175.33 355.31 176.31 355.53 176.99 355.69 177.88 355.89 179.07 356.17 179.2 356.2 179.71 356.31 179.23 356.12 179.15 356.09 178.14 355.7 177.31 355.37 176.72 355.14 175.84 354.79 175.16 354.52 175.07 354.49 174.01 354.07 172.42 353.45 169.46 352.28 138.06 339.93 109.77 351.05 106.71 352.26"/>
              <path class="cls-1" d="M60.13,401.23l.13-1.22h0s1.31,0,1.31,0l-.12,1.23h11.02l.12-1.22.66-6.39.15-1.51h-1.19l.05-.53.26-2.51h-25.12l-.21,2.04-.66,6.39-.25,2.51h2.96l-.13,1.23h11.02ZM61.71,391.33h8.37l-.08.77-.14,1.37-.12,1.21-.31,3.04h-8.37l.66-6.39ZM48.73,397.72l.16-1.6.49-4.79h8.36l-.08.77-.14,1.37-.43,4.25h-8.37Z"/>
              <path class="cls-1" d="M228.54,442.34l-.63.35-.93-2.11-.96-2.2-2.06,1.12-5.71,3.11-1.84,1,.86,1.95,17.73,40.47.97,2.2,2.06-1.12.13-.07.58,1.33.58,1.32,1.24-.67,5.71-3.11,1.1-.6-.51-1.17-17.73-40.47-.58-1.32ZM242.71,481.99l-2.19,1.19-2.1,1.15-1.17.64-.24.13-17.73-40.47,4.2-2.3,1.5-.82.98,2.23.55,1.25,15.42,35.2.78,1.79Z"/>
              <path class="cls-1" d="M140.66,484.27l-.26-.61h7.99l.58,1.34.96,2.2,2.06-1.13.13-.07.58,1.33.58,1.32,1.24-.68,5.71-3.11,1.1-.6-.26-.61h2.08l1.44,3.32.96,2.21,2.07-1.13.13-.07.58,1.33.57,1.33,1.24-.68,5.71-3.11,1.1-.6-.51-1.17-.61-1.42h18.4l.58,1.34.96,2.2,2.07-1.13.13-.07.58,1.33.58,1.32,1.24-.68,5.71-3.11,1.1-.6-.26-.61h10.15l1.04,2.37.96,2.2,2.06-1.12.13-.07.58,1.33.58,1.32,1.24-.67,5.71-3.11,1.1-.6-.51-1.17-17.73-40.47-.58-1.32-.63.35-.92-2.11-.97-2.2-2.06,1.12-5.71,3.11-1.84,1,.86,1.96,11.12,25.35h-10.14l-6.28-14.41-2.09-4.8-.58-1.33-.64.35-.92-2.11-.96-2.2-2.06,1.13-5.31,2.9h-21.16l-.03-.06-.1.06h-.66l-.8-1.82-.96-2.2-2.07,1.13-5.71,3.11-1.83,1,.85,1.95,7.55,17.3h-3.4l-2.35-5.39-.58-1.32-.64.35-.92-2.11-.96-2.2-2.07,1.12-5.71,3.11-1.83,1,.85,1.95,1.52,3.49h-6.67l-8.38-19.21-.58-1.33-.64.35-.92-2.11-.96-2.2-2.07,1.13-5.71,3.11-1.83,1,.85,1.95,7.55,17.3h-15.6l-8.38-19.21-.58-1.33-.64.35-.92-2.11-.96-2.2-2.07,1.13-5.71,3.11-1.83,1,.85,1.95,7.55,17.3h-19.71l-8.38-19.21-.58-1.33-.64.35-.92-2.11-.96-2.2-2.07,1.13-5.71,3.11-1.83,1,.85,1.95,7.55,17.3h-3.97l-.21,2.04-.65,6.39-.26,2.52h4.1l-.03.29-.15,1.51h6.73l1.7,3.9.96,2.2,2.07-1.13.13-.07.58,1.33.58,1.32,1.24-.67,5.71-3.11,1.1-.6-.51-1.17-.87-1.99h19.71l1.23,2.83.96,2.2,2.07-1.12.13-.07.58,1.33.57,1.33,1.24-.68,5.71-3.11,1.1-.6-.51-1.17-.41-.92h15.6l.58,1.34.96,2.2,2.07-1.13.13-.07.58,1.33.57,1.32,1.24-.68,5.71-3.11,1.1-.6ZM134.68,481.67l-2.96,1.62-1.17.64-.25.14-.18-.4h0l-.6-1.37-1.18-2.71h-21.22l1.25,2.86-4.29,2.34-1.17.64-.25.14-.83-1.89-.59-1.37-.02-.04-1.16-2.67h-25.33l1.38,3.17.33.75-4.29,2.34-.43.24-.74.4-.25.14-1.29-2.96-.6-1.37-1.18-2.71h-8.83l.65-6.39h5.4l-6.6-15.14-2.35-5.38,5.03-2.75.67-.37.97,2.24.55,1.25,8.79,20.15h25.33l-8.95-20.52,3.39-1.85,2.32-1.27.97,2.24.55,1.25,4.74,10.87,4.04,9.28h21.22l-8.95-20.52,4.59-2.5,1.12-.61.97,2.24.55,1.25,8.79,20.15h12.29l-2.92-6.7,2.85-1.56,2.86-1.55.97,2.24.55,1.25,2.76,6.33h9.02l-8.95-20.52,4.45-2.43,1.26-.69.98,2.24.4.92h24.01l-.02-.05,3.78-2.06,1.92-1.05.98,2.24.54,1.25.57,1.32,8.21,18.83h15.76l-12.54-28.57,4.38-2.39,1.33-.72.98,2.23.55,1.25,16.21,36.99-1.08.59-3.21,1.75-1.17.64-.25.13-.63-1.43-.23-.53-.36-.84-1.56-3.58-.09.87h-15.29l.44,1,.15.36-4.29,2.34-1.17.64-.25.14-.17-.4-.6-1.37-.81-1.85-.38-.86h-24.01l1.45,3.35-4.28,2.34-1.17.64-.25.14-1.04-2.39-.59-1.37-1.18-2.71h-7.7l.27.61.33.76-4.29,2.34-1.17.64-.25.14-.18-.4-.6-1.37-1.18-2.71h-13.6l.59,1.36-1.33.72Z"/>
              <path class="cls-1" d="M73.88,453.71h11.02l.12-1.22.66-6.39.15-1.51h-2.33l.11-1.1.26-2.52h-12.79l-.2,2.04-.66,6.39-.25,2.52h4.09l-.03.29-.15,1.51ZM72.41,449.63l.66-6.39h8.37l-.14,1.34-.14,1.37-.37,3.68h-8.37Z"/>
              <path class="cls-1" d="M97.68,497.88l.2-2.01h-42.52l-.17,1.63-.22,2.62-.2,2.01h3.65l-.09.86-.15,1.51h40.74l.12-1.22.22-2.16.15-1.51h-1.87l.13-1.72ZM95.78,499.6l-.07.71h-38.98l.22-2.62h38.99l-.15,1.91Z"/>
              <path class="cls-1" d="M228.41,390.87h-28.59l-.97-2.22-.57-1.33-.64.35-.92-2.11-.96-2.2-2.06,1.13-5.71,3.11-1.83,1,.86,1.95.14.31h-.3l-.21,2.04-.65,6.39-.26,2.52h4.1l-.03.29-.15,1.51h3.06l5.67,13h-16.42l-12.2-27.96-.57-1.33-.64.35-.92-2.11-.96-2.2-2.06,1.13-5.71,3.11-1.83,1,.86,1.95,2.07,4.75-13.66,21.31h-9.19l-10.97-25.15-.57-1.32-.64.35-.92-2.11-.96-2.2-2.06,1.12-5.71,3.11-1.83,1,.86,1.95,10.14,23.25h-21l1.89,3.41,3.54,6.39.63,1.14h2.45l.61,1.12.38.68h17.06l1.19,2.73.96,2.2,2.07-1.12.13-.07.58,1.33.58,1.32,1.24-.67,5.71-3.11,1.1-.6-.51-1.17-.36-.83h61.24l1.19,2.73.97,2.2,2.06-1.12.13-.07.58,1.33.58,1.32,1.24-.67,5.71-3.11,1.1-.6-.51-1.17-.36-.83h17.39l.12-1.22.66-6.39.15-1.51h-2.33l.11-1.11.26-2.51h-21.92l-5.67-13h24.06l.12-1.22.66-6.39.15-1.51h-2.33l.11-1.1.26-2.52ZM225.83,394.49l-.14,1.37-.38,3.68h-24.91l8.44,19.35h21.68l-.14,1.34-.14,1.37-.37,3.68h-18.24l1.2,2.76-3.97,2.16-.33.18-1.17.64-.25.13-.78-1.79-.59-1.37-1.18-2.71h-66.85l1.2,2.76-4.29,2.34-.28.15-.89.49-.25.13-.41-.94-.37-.85-.6-1.37-1.18-2.71h-19.86l-2.8-5.05-.74-1.34h20.61l-8.52-19.52-3.03-6.94,5.71-3.11.97,2.24.54,1.25,11.38,26.09h12.58l14.98-23.38-2.49-5.7-.09-.2,3.61-1.97,2.1-1.15.97,2.24.54,1.25,12.61,28.91h22.03l-6.67-15.28-.6-1.37-1.18-2.71h-5.16l.65-6.39h1.72l-1.54-3.53,4.36-2.38,1.35-.74.97,2.24.54,1.25.2.45,1.18,2.71h28.36l-.14,1.34Z"/>
              <path class="cls-1" d="M167.24,406.42l-1.89-4.34-5.39,8.41-5.39,8.41h18.11l-4.8-11.01-.64-1.47ZM160.97,416.62l4.81-8.12,3.5,8.12h-8.31Z"/>
              <path class="cls-1" d="M56.05,427.85l-.15,1.51h1.76l1.04.64,5.07,3.11,1.79,1.1.07-.11,1.52.93,1.08.66.69-1.08,3.37-5.26h20.71l1.54,3.54.96,2.2,2.07-1.12.13-.07.58,1.33.58,1.33,1.24-.68,5.71-3.11,1.1-.6-.51-1.17-18.47-42.34-.57-1.33-.64.35-.92-2.11-.97-2.2-2.06,1.13-5.71,3.11-1.83,1,.85,1.95,2.07,4.75-13.65,21.31h-11.4l-.21,2.04-.65,6.39-.26,2.51h4.1l-.03.29ZM54.43,425.29l.65-6.39h10.61l8.19-12.8,6.78-10.58-2.49-5.7-.08-.2,3.6-1.97,2.1-1.15.97,2.24.54,1.25,6.74,15.45,10.21,23.42-4.29,2.34-1.17.64-.25.14-1.13-2.61-.6-1.37-1.18-2.71h-24.99l-3.76,5.87-1.72-1.05-.26-.16-.87-.53-.06-.05-2.15-1.32.03-.05,1.73-2.71h-7.16Z"/>
              <path class="cls-1" d="M86.06,407.89l-.64-1.47-1.89-4.34-5.39,8.41-5.39,8.41h18.11l-4.8-11.01ZM83.96,408.5l3.49,8.12h-8.31l4.82-8.12Z"/>
              <path class="cls-1" d="M168.05,473.2h24.01l-1.83-4.19-2.54-5.81-.59-1.37-1.18-2.71h-24.01l2.48,5.69,3.66,8.39ZM185.29,463.19l3.37,7.73h-18.4l-3.37-7.73h18.4Z"/>
              <path class="cls-1" d="M127.87,495.75l.26-2.51h-25.12l-.21,2.04-.65,6.39-.26,2.51h2.78l-.08.75-.15,1.51h11.02l.12-1.22.1-1.03h1.31l-.08.75-.15,1.51h11.02l.13-1.22.65-6.39.15-1.51h-1.01l.16-1.56ZM113.19,497.11l-.02.2-.14,1.37-.33,3.22h-8.36l.65-6.39h8.37l-.16,1.6ZM125.5,497.31l-.14,1.37-.33,3.22h-8.37l.49-4.79.16-1.6h8.37l-.19,1.8Z"/>
              <polygon class="cls-1" points="159.27 495.35 159.2 495.75 158.89 496.02 158.3 496.17 158.19 496.24 157.91 501.31 157.86 506.4 157.97 506.89 157.86 507.27 157.54 507.48 157.33 507.55 156.95 507.6 156.03 507.5 154.76 507.24 154.21 506.98 153.98 506.79 153.87 506.42 153.87 506.1 154.17 505.79 154.52 505.7 154.84 505.77 154.99 505.85 155.19 505.91 155.35 505.92 155.67 505.87 155.79 505.44 156.02 502.22 156.1 501.88 154.49 501.82 152.78 501.82 152.55 504.58 152.41 504.96 152.32 505.09 152.29 505.28 152.09 505.51 152.15 505.7 152.11 505.88 152.43 506.13 152.6 506.52 152.5 506.91 152.32 507.22 152.04 507.48 151.81 507.58 151.33 507.68 150.81 507.7 150.28 507.7 149.74 507.68 149.18 507.6 148.86 507.5 147.88 506.91 147.71 506.76 147.5 506.53 146.93 505.79 146.8 505.46 146.9 505.11 147.05 504.85 147.45 504.7 147.87 504.84 148.05 504.98 148.12 505.07 148.2 505.12 148.39 505.2 148.66 505.28 148.8 505.29 148.91 502.51 148.96 502.22 149.06 501.96 149.01 501.86 148.92 501.51 149.18 501.1 149.22 501 149.05 500.76 148.96 500.54 149.12 498.66 149.12 497.79 149.1 497.14 149.06 497.14 148.38 497.24 148.07 497.31 147.78 497.41 147.16 497.76 146.79 497.76 146.58 497.6 146.86 496.33 147.33 496.07 147.57 495.88 147.76 495.78 148.57 495.42 149.38 495.12 151.3 494.53 151.67 494.67 152.41 495.29 152.76 495.77 152.9 496.02 153 496.35 152.98 496.98 152.91 500.14 154.52 500.16 156.19 500.23 156.2 500.14 156.2 496.8 156.17 496.31 156.12 496.21 156.09 496.19 155.9 496.14 155.52 496.14 155.16 496.02 154.96 495.87 154.8 495.54 154.77 495.27 154.89 494.89 155.26 494.72 155.5 494.69 155.86 494.74 156.91 494.75 158.62 494.68 158.95 494.82 159.16 495.08 159.27 495.35"/>
              <polygon class="cls-1" points="146.44 496.03 146.28 497.6 146.23 498.51 146.17 498.77 145.86 499.07 145.65 499.18 145.36 499.18 145 499.12 143.73 499.03 143.19 499.07 142.88 499.13 142.58 499.11 142.25 498.94 142.09 498.77 142.01 498.43 142.04 497.98 142.01 497.11 140.96 497.42 140.33 497.67 140.06 498.2 139.74 498.46 139.62 498.5 139.78 498.81 139.58 499.22 139.5 499.27 139.57 499.35 139.6 499.69 139.58 499.77 139.43 500.37 139.32 500.93 139.23 501.68 139 502.95 138.96 503.53 138.97 504.07 139 504.18 139.19 504.45 139.54 504.73 140.2 505.19 140.42 505.31 140.93 505.54 141.25 505.66 141.54 505.73 142.21 505.84 143.35 505.97 144.49 506.04 144.72 506.01 145.05 506.18 145.25 506.49 145.34 506.83 145.26 507.21 145.12 507.46 144.79 507.65 144.47 507.72 142.69 507.6 140.92 507.35 139.64 507.07 139.09 506.85 138.77 506.8 138.57 506.7 138.38 506.57 138.24 506.5 138.02 506.45 137.83 506.35 136.86 505.71 136.17 505.18 135.2 504.28 134.88 503.78 134.71 503.43 134.76 502.94 134.87 502.67 135.17 502.29 135.15 502.26 135.17 501.84 135.3 501.49 135.12 501.34 134.91 501.06 134.93 500.66 135.16 499.9 135.48 498.98 135.86 498.07 136.78 496.21 136.93 496.04 137.17 495.85 137.82 495.85 144.46 494.65 144.54 494.65 144.92 494.74 145.39 495.01 146.14 495.42 146.36 495.66 146.44 496.03"/>
              <polygon class="cls-1" points="178.81 495.41 178.81 495.84 178.47 496.12 178.26 496.19 177.87 496.28 177.65 496.41 177.56 496.59 177.54 496.72 177.41 500.72 177.48 502.73 177.71 505.01 177.71 505.09 177.67 505.25 177.67 505.42 177.76 505.85 177.79 506.54 177.76 506.86 177.44 507.18 176.87 507.45 176.57 507.53 176.16 507.4 175.99 507.27 175.69 506.89 175.6 506.58 175.65 505.42 175.64 504.4 175.39 503.97 175.31 503.71 173.96 502.17 172.35 500.51 171.63 499.82 171.59 500.83 171.38 502.75 171.67 503.53 171.55 504 171.33 504.3 171.61 504.68 171.67 505.05 171.55 505.92 171.6 506.39 171.67 506.7 171.67 507 171.43 507.31 171.18 507.49 170.91 507.58 170.55 507.62 169.87 507.6 169.45 507.56 168.68 507.42 168.18 507.25 167.26 506.85 166.92 506.56 166.42 506.02 166.11 505.61 165.97 505.33 165.93 505.02 166.17 504.64 166.53 504.51 166.94 504.6 167.12 504.72 167.23 504.83 167.34 504.89 167.85 505.05 167.85 500.36 167.92 500.08 168.16 499.85 168.08 499.66 167.98 499.31 168.15 498.81 168.12 498.77 168.1 498.62 167.94 498.15 167.97 497.67 167.89 497.67 167.61 497.6 167.03 497.45 165.62 496.94 165.43 496.76 165.3 496.05 165.62 495.73 165.89 495.6 166.23 495.69 166.36 495.74 166.58 495.81 166.8 495.83 167.53 495.77 168.12 495.66 168.74 495.52 169.34 495.34 169.95 495.12 170.16 495.01 170.54 494.74 170.9 494.7 171.2 494.84 171.48 495.02 172.76 496.12 173.11 496.49 173.99 497.22 174.11 497.54 174.09 497.91 174.09 497.93 174.33 497.95 174.65 498.18 174.82 498.43 174.93 498.74 174.97 498.77 175.43 498.91 175.72 499.13 175.75 498.84 175.81 497.83 175.69 496.97 175.62 496.7 175.58 496.6 175.48 496.5 174.96 496.09 174.86 496.05 174.33 495.85 174.1 495.61 173.95 495.31 174.16 494.89 174.5 494.7 174.78 494.64 175.56 494.8 175.92 494.8 176.36 494.84 176.65 494.88 176.9 494.88 177.8 494.81 178.17 494.85 178.42 494.9 178.71 495.21 178.81 495.41"/>
              <path class="cls-1" d="M189.65,505.05l-.13-.14-.93-1.54-.68-1.39-1.63-3.8.31-.56.23-.48.11-.38-.46-1.02-.35-.69-.15-.23-.3-.17h-.36l-.89.64-1.56.84-1.24.6-.63.26-.29.09-.3.06-.47.05-.19.16-.26.44.13.31.21.24.41.16.96-.11,1.43-.25.06.25-.1.02-.21.11-.24.2-.08.27-.03.3.03.17-.09.06-2.37,4.34h0s-.4-.14-.4-.14l-.17-.13-.07-.08-.28-.21h-.41l-.32.22-.15.4.65,1.29.32.52.48.64,1.35,1.18h.4l.27-.15.25-.27.15-.34.02-.24.28-.21.34-.71,2.7-.13,2.58.03v.09s0,.08,0,.08l-.09.17-.13.15-.1.09-.25.11-.21.05-.27.1-.16.16-.21.48.21.32.25.21.43.14.33-.08.68-.32,1.09-.41.59-.18.23-.03.42-.2.13-.4-.11-.38-.79-.64ZM184.96,504.03l-1.92.08-.03-.06.33-.2.11-.38-.05-.36-.05-.05.31-.15.84-1.59.68-1.24,1.78,3.78-2.01.17Z"/>
              <path class="cls-1" d="M207.97,501.54l-.14-.28-.25-.19-.06-.03.03-.33-.14-.35-.36-.45v-.14s-.07-.44-.07-.44l-.13-.38-.37-.77-.21-.37-.22-.35-.52-.6-.54-.53-.59-.48-.55-.41-.36-.38-.35-.2-.33-.24-.34.04-1.31.42-.86.31-1.71.81-.92.51-.46.29-.44.31-1.33,1.13-1.22,1.2-.15.18-.15.4v.08s.01.3.01.3l.36,1.23.16.26.23.24.28.07h.03l-.08.34.17.3.3.27.24.1-.04.11v.43s.3.61.3.61l.21.32.62.78,1.44,1.24.24.18.55.32.44.2.36.04.27-.08.18-.03,1.35-.48,2.22-.89.98-.47,1.89-1.09.55-.37.55-.46.26-.35.23-.62-.1-.72-.13-.51ZM203.28,503.64l-.85.35-.38.22-.2.14-.36.15-.15.02-.16-.1-.36-.34-.26-.16h-.27l-.47.13h-.07s0-.41,0-.41l-.1-.39-.24-.26-.2-.16-.34-.22-.04-.05.03-.4-.04-.37-.51-1.14-.56-1.05-.08-.13-.03-.09v-.2s.26-.32.26-.32l.62-.46.3-.19.92-.5.36-.16.51.31.24.2.54.52.22.26.23.3.23.19.35.15.13-.02.02.1.21.21.14.21.47.55.52.98.44,1.02.15.42-1.25.68Z"/>
              <polygon class="cls-1" points="223.02 506.21 222.78 506.18 222.53 506.09 222.22 505.88 222.08 505.73 222.01 500.93 222.25 496.13 222.31 495.91 222.31 495.66 222.18 495.29 222.02 495.09 221.6 494.89 221.33 494.92 221.11 494.99 220.83 495.14 220.58 495.55 219.88 496.34 219.71 496.47 219.49 496.61 219.37 496.85 219.31 497.23 219.25 497.52 219.02 497.49 218.74 497.66 218.1 498.62 217.61 499.26 217.19 499.72 215.65 497.53 213.73 495.02 213.58 494.87 213.25 494.68 212.88 494.73 212.75 494.73 211.4 495.37 211.07 495.47 210.64 495.65 209.78 495.78 208.98 495.87 208.53 495.7 207.95 495.91 207.75 496.27 207.79 496.53 207.97 496.86 208.3 497.11 210.28 497.65 210.35 497.66 210.65 497.65 210.65 497.91 210.57 498.6 210.4 499.11 210.48 499.49 210.78 499.81 210.45 500.32 210.33 500.71 210.45 501.19 210.45 501.37 210.25 504.88 210.19 504.87 210.04 504.71 209.39 504.57 209.19 504.55 208.82 504.64 208.56 504.97 208.56 505.36 208.84 505.88 209.05 506.2 209.29 506.49 209.53 506.73 209.89 507.03 210.21 507.2 210.41 507.32 211.09 507.48 211.13 507.49 212.75 507.46 213.05 507.5 213.1 507.5 213.27 507.48 213.69 507.29 213.84 507.01 213.9 506.68 213.97 504.85 213.92 503.02 213.81 502.69 213.79 502.67 213.95 502.54 214.2 502.25 214.2 501.95 214.07 501.56 213.96 501.39 214.11 501 214.21 498.7 214.44 499 216.12 501.61 217.05 502.98 217.09 503.27 217.14 503.45 217.43 503.85 217.75 503.93 217.83 503.93 218.1 503.9 218.32 503.73 219.23 502.53 219.47 502.1 219.53 501.9 219.89 501.85 220.26 501.46 220.23 505.28 220.14 505.62 220.12 505.68 219.85 505.86 219.57 505.99 219.13 506.17 218.52 506.27 218.34 506.27 218.1 506.34 217.75 506.59 217.64 506.92 217.67 507.14 217.89 507.55 218.18 507.66 218.46 507.69 218.81 507.6 219.07 507.58 221.02 507.54 222.77 507.6 223.07 507.53 223.31 507.37 223.53 507.06 223.53 506.64 223.32 506.4 223.02 506.21"/>
              <path class="cls-1" d="M236.53,502.88l-.02-.37-.23.02.22-.05-.1-.36-.16-.34-.24-.36-.22-.22-.21-.12-.04-.18-.33-.55-1.81-2.13-.83-.88-.92-.87-1.28-.96-.97-.65-.22-.1-.39-.04-.28.08-.47.33-1.18.55-1.19.43-.92.26-.45.08-.2.02h-.21l-.43-.04-.21.09-.31.29-.05.38.11.27.16.19.32.17h.08s.17.01.17.01l1.34.1.71.02h.37s0,.23,0,.23l.28.32.17.07-.25.48-.14.35.15.36.19.22-.3.5-.22,3.98-.21-.04-.57-.22-.55-.24-.72-.51h-.38l-.33.16-.2.35.06.39.71.88.63.63.88.68.65.53.64.3.17.12.26.14.29.05.26-.04,2.24-.77,2.22-.91.31-.15.29-.28.18-.22.09-.17h.14s.24-.06.24-.06l.34-.21.23-.24h.19s.2.05.2.05h.07s.3-.03.3-.03l.25-.16.62-.55.46-.33.26-.26.26-.51ZM233.06,501.42l-.34.31-1.65,1.04-1.06.54-.21-.64-.23-.32.09-.2-.03-.11.2-.17.12-.31.33-3.85.64.48.78.78.75.85.12.14.17.26.25.6.09.38-.03.21Z"/>
              <path class="cls-1" d="M248.05,505.05l-.14-.14-.93-1.54-.68-1.39-1.63-3.8.31-.56.23-.48.11-.38-.46-1.02-.35-.69-.15-.23-.3-.17h-.36l-.89.64-1.55.84-1.24.6-.63.26-.3.09-.3.06-.46.05-.19.16-.26.44.14.31.2.24.41.16.96-.11,1.44-.25.06.25-.1.02-.21.11-.24.2-.08.27-.03.3.03.17-.08.06-2.37,4.34h0s-.4-.14-.4-.14l-.17-.13-.07-.08-.29-.21h-.41l-.31.22-.16.4.65,1.29.32.52.47.64,1.35,1.18h.41l.27-.15.25-.27.15-.34.02-.24.29-.21.34-.71,2.7-.13,2.58.03v.09s0,.08,0,.08l-.09.17-.14.15-.1.09-.73.26-.16.16-.21.48.21.32.25.21.43.14.32-.08.68-.32,1.1-.4.59-.19.24-.03.42-.2.13-.4-.11-.38-.78-.64ZM243.36,504.03l-1.92.08-.03-.06.33-.2.11-.38-.05-.36-.05-.05.31-.15.83-1.59.68-1.24,1.79,3.78-2.01.17Z"/>
              <polygon class="cls-1" points="164.46 495 164.23 494.8 163.96 494.67 163.52 494.61 162.93 494.63 161.73 494.8 161.14 494.93 160.4 495.2 160.4 497.15 160.62 497.09 160.63 497.23 160.56 497.6 160.64 497.96 160.84 498.18 160.72 498.3 160.48 498.67 160.48 499.03 160.52 499.36 160.52 499.66 160.4 501.23 160.4 507.13 160.59 507.24 160.87 507.32 161.07 507.42 161.79 507.56 162.52 507.62 163.22 507.62 163.61 507.52 163.97 507.34 164.15 507.07 164.19 506.98 164.24 506.72 164.19 504.61 164.23 502.44 164.09 502.12 164.09 501.99 164.16 501.74 164.21 501.37 164.19 501.14 164.05 500.83 163.85 500.64 163.84 500.47 163.8 500.34 164.34 499.8 164.42 499.46 164.4 497.42 164.45 496.73 164.5 496.05 164.53 495.51 164.54 495.38 164.46 495"/>
            </g>
          </g>
        </g>
      </g>
    </g>
  </g>
</svg>