<?xml version="1.0" encoding="UTF-8"?>
<svg xmlns="http://www.w3.org/2000/svg" version="1.1" xmlns:xlink="http://www.w3.org/1999/xlink" viewBox="0 0 595.28 496.18">
  <defs>
    <style>
      .cls-1 {
        fill: url(#linear-gradient-15);
      }

      .cls-2 {
        fill: url(#linear-gradient-13);
      }

      .cls-3 {
        fill: url(#linear-gradient-28);
      }

      .cls-4 {
        fill: #8e288c;
      }

      .cls-4, .cls-5, .cls-6, .cls-7, .cls-8, .cls-9, .cls-10, .cls-11, .cls-12, .cls-13, .cls-14, .cls-15, .cls-16, .cls-17, .cls-18, .cls-19, .cls-20 {
        mix-blend-mode: multiply;
      }

      .cls-4, .cls-21, .cls-7, .cls-14 {
        opacity: .35;
      }

      .cls-22 {
        fill: #a4353b;
      }

      .cls-23 {
        fill: url(#linear-gradient-2);
      }

      .cls-24, .cls-25, .cls-26, .cls-21, .cls-27, .cls-28, .cls-29, .cls-30, .cls-31 {
        mix-blend-mode: screen;
      }

      .cls-24, .cls-26, .cls-27, .cls-31 {
        opacity: .3;
      }

      .cls-24, .cls-32, .cls-30 {
        fill: #9a7387;
      }

      .cls-33 {
        fill: url(#linear-gradient-25);
      }

      .cls-34 {
        fill: url(#linear-gradient-12);
      }

      .cls-35 {
        fill: url(#linear-gradient-27);
      }

      .cls-25, .cls-5, .cls-11 {
        opacity: .5;
      }

      .cls-5 {
        fill: #2a4b63;
      }

      .cls-5, .cls-36 {
        display: none;
      }

      .cls-37 {
        fill: #382d36;
      }

      .cls-26 {
        fill: #fdb83e;
      }

      .cls-38 {
        fill: url(#linear-gradient-26);
      }

      .cls-6 {
        fill: url(#linear-gradient-4);
      }

      .cls-6, .cls-8, .cls-28, .cls-9, .cls-10, .cls-12, .cls-13, .cls-15, .cls-18, .cls-19, .cls-20 {
        opacity: .15;
      }

      .cls-21, .cls-27, .cls-28 {
        fill: #d9772c;
      }

      .cls-39 {
        fill: url(#linear-gradient-22);
      }

      .cls-40 {
        fill: url(#linear-gradient-24);
      }

      .cls-36 {
        fill: #5aab46;
      }

      .cls-41 {
        fill: #c24938;
      }

      .cls-7, .cls-42 {
        fill: #806761;
      }

      .cls-43 {
        isolation: isolate;
      }

      .cls-44 {
        fill: #97313b;
      }

      .cls-8 {
        fill: url(#linear-gradient-5);
      }

      .cls-9 {
        fill: url(#linear-gradient-10);
      }

      .cls-10 {
        fill: url(#linear-gradient-6);
      }

      .cls-11, .cls-16 {
        fill: #a91d4c;
      }

      .cls-45 {
        fill: #e4762f;
      }

      .cls-46 {
        fill: url(#linear-gradient-14);
      }

      .cls-47 {
        fill: url(#linear-gradient-29);
      }

      .cls-48 {
        fill: url(#linear-gradient-20);
      }

      .cls-49 {
        fill: url(#linear-gradient-17);
      }

      .cls-50 {
        fill: #e36c4d;
      }

      .cls-13 {
        fill: url(#linear-gradient-7);
      }

      .cls-51 {
        fill: url(#linear-gradient-11);
      }

      .cls-52 {
        fill: url(#linear-gradient-19);
      }

      .cls-15 {
        fill: url(#linear-gradient-8);
      }

      .cls-16 {
        opacity: .75;
      }

      .cls-29, .cls-30 {
        opacity: .8;
      }

      .cls-17 {
        opacity: .25;
      }

      .cls-17, .cls-18 {
        fill: #bc1f63;
      }

      .cls-53 {
        fill: url(#linear-gradient-21);
      }

      .cls-19 {
        fill: url(#linear-gradient-9);
      }

      .cls-54 {
        fill: url(#linear-gradient-16);
      }

      .cls-20 {
        fill: url(#linear-gradient-3);
      }

      .cls-55 {
        fill: url(#linear-gradient);
      }

      .cls-56 {
        fill: url(#linear-gradient-23);
      }

      .cls-57 {
        fill: url(#linear-gradient-18);
      }
    </style>
    <linearGradient id="linear-gradient" x1="297.39" y1="475.37" x2="297.39" y2="40.87" gradientUnits="userSpaceOnUse">
      <stop offset=".05" stop-color="#f89947"/>
      <stop offset="1" stop-color="#fdb83e"/>
    </linearGradient>
    <linearGradient id="linear-gradient-2" x1="297.39" y1="493.67" x2="297.39" y2="59.17" gradientUnits="userSpaceOnUse">
      <stop offset="0" stop-color="#a81d41"/>
      <stop offset="1" stop-color="#f37343"/>
    </linearGradient>
    <linearGradient id="linear-gradient-3" x1="216.33" y1="194.39" x2="569.4" y2="194.39" gradientUnits="userSpaceOnUse">
      <stop offset="0" stop-color="#b757a1"/>
      <stop offset=".95" stop-color="#8e288c"/>
    </linearGradient>
    <linearGradient id="linear-gradient-4" x1="310.08" y1="168.09" x2="526.53" y2="168.09" xlink:href="#linear-gradient-3"/>
    <linearGradient id="linear-gradient-5" x1="393.21" y1="164.65" x2="500.92" y2="164.65" xlink:href="#linear-gradient-3"/>
    <linearGradient id="linear-gradient-6" x1="104.15" y1="303.26" x2="372.65" y2="303.26" xlink:href="#linear-gradient-3"/>
    <linearGradient id="linear-gradient-7" x1="346.69" y1="380.19" x2="524.28" y2="380.19" xlink:href="#linear-gradient-3"/>
    <linearGradient id="linear-gradient-8" x1="412.1" y1="404.18" x2="475.01" y2="404.18" xlink:href="#linear-gradient-3"/>
    <linearGradient id="linear-gradient-9" x1="40.8" y1="346.16" x2="146.65" y2="346.16" xlink:href="#linear-gradient-3"/>
    <linearGradient id="linear-gradient-10" x1="69.74" y1="331.32" x2="252.04" y2="331.32" xlink:href="#linear-gradient-3"/>
    <linearGradient id="linear-gradient-11" x1="297.39" y1="493.67" x2="297.39" y2="59.17" gradientUnits="userSpaceOnUse">
      <stop offset="0" stop-color="#6e132b"/>
      <stop offset="1" stop-color="#d65345"/>
    </linearGradient>
    <linearGradient id="linear-gradient-12" x1="307.96" y1="100.26" x2="307.96" y2="67.43" xlink:href="#linear-gradient-3"/>
    <linearGradient id="linear-gradient-13" x1="508.41" y1="199.42" x2="508.41" y2="136.31" xlink:href="#linear-gradient-3"/>
    <linearGradient id="linear-gradient-14" x1="540.05" y1="355.91" x2="540.05" y2="251.94" xlink:href="#linear-gradient-3"/>
    <linearGradient id="linear-gradient-15" x1="235.93" y1="470.3" x2="235.93" y2="438.83" xlink:href="#linear-gradient-3"/>
    <linearGradient id="linear-gradient-16" x1="419.94" y1="140.72" x2="419.94" y2="101.51" xlink:href="#linear-gradient-3"/>
    <linearGradient id="linear-gradient-17" x1="52.97" y1="239.17" x2="52.97" y2="198.68" xlink:href="#linear-gradient-3"/>
    <linearGradient id="linear-gradient-18" x1="187.89" y1="136.85" x2="187.89" y2="108.49" xlink:href="#linear-gradient-3"/>
    <linearGradient id="linear-gradient-19" x1="88.4" y1="399.51" x2="88.4" y2="362.49" xlink:href="#linear-gradient-3"/>
    <linearGradient id="linear-gradient-20" x1="-482" y1="-63.26" x2="-482" y2="-93.63" gradientTransform="translate(924.14 154.94) rotate(.23)" gradientUnits="userSpaceOnUse">
      <stop offset="0" stop-color="#57678a"/>
      <stop offset="1" stop-color="#8ea4ad"/>
    </linearGradient>
    <linearGradient id="linear-gradient-21" x1="-482.16" y1="-102.14" x2="-482.16" y2="-132.52" xlink:href="#linear-gradient-20"/>
    <linearGradient id="linear-gradient-22" x1="-534.36" y1="-67.93" x2="-534.36" y2="-98.31" gradientTransform="translate(975.88 143.59) rotate(.6)" xlink:href="#linear-gradient-20"/>
    <linearGradient id="linear-gradient-23" x1="-534.77" y1="-106.82" x2="-534.77" y2="-137.2" gradientTransform="translate(975.88 143.59) rotate(.6)" xlink:href="#linear-gradient-20"/>
    <linearGradient id="linear-gradient-24" x1="432.89" y1="114.38" x2="455.69" y2="114.38" gradientTransform="matrix(1,0,0,1,0,0)" xlink:href="#linear-gradient-20"/>
    <linearGradient id="linear-gradient-25" x1="-761.33" y1="-62.14" x2="-761.33" y2="-92.51" gradientTransform="translate(913.34 154.94) rotate(.23)" xlink:href="#linear-gradient-20"/>
    <linearGradient id="linear-gradient-26" x1="-761.48" y1="-101.02" x2="-761.48" y2="-131.4" gradientTransform="translate(913.34 154.94) rotate(.23)" xlink:href="#linear-gradient-20"/>
    <linearGradient id="linear-gradient-27" x1="-813.68" y1="-65" x2="-813.68" y2="-95.38" gradientTransform="translate(965.08 143.59) rotate(.6)" xlink:href="#linear-gradient-20"/>
    <linearGradient id="linear-gradient-28" x1="-814.09" y1="-103.89" x2="-814.09" y2="-134.26" gradientTransform="translate(965.08 143.59) rotate(.6)" xlink:href="#linear-gradient-20"/>
    <linearGradient id="linear-gradient-29" x1="1530.96" y1="114.38" x2="1553.76" y2="114.38" gradientTransform="translate(1692.84) rotate(-180) scale(1 -1)" xlink:href="#linear-gradient-20"/>
  </defs>
  <!-- Generator: Adobe Illustrator 28.7.1, SVG Export Plug-In . SVG Version: 1.2.0 Build 142)  -->
  <g class="cls-43">
    <g id="Layer_1">
      <path class="cls-36" d="M325.58,470.44s-.02-.04-.03-.07c0,.03.02.06.03.07Z"/>
      <path class="cls-36" d="M325.52,469.89c0,.18,0,.3,0,.39,0-.1-.01-.22,0-.39Z"/>
      <path class="cls-36" d="M325.67,470.39s-.03.04-.04.05c.01,0,.03-.03.04-.05Z"/>
      <path class="cls-36" d="M272.31,366.53c.24-.5.48-1,.73-1.49-.24.48-.48.98-.73,1.49Z"/>
      <path class="cls-5" d="M333.5,439.48c-3.16,12.97-6.82,28.9-7.75,30.79-.28,5.19-2.14,4.54-5.57,4-7.48-1.19-33.13-48.79-39.21-60.68-4.48-8.76-13.53-28.16-8.67-47.04-2.05,4.26-4.52,9.73-7.62,16.71-8.08,24.08,19.05,79.71,19.05,79.71-2.76.18-19.12-1.78-25-6.42-5-3.95-30-21.18-45.67-40.94-.59,0-.89.25-.82.83,1.07,8.2,29.92,43.14,64.12,63.79,3.65,2.21,16.56,2.53,27.56,1.93,16.25,2.7,37.36,1.78,44.09-.26.68-.26,1.14-1.2,1.4-2.65-5.71-2.33-13.59-15.6-15.91-39.76Z"/>
      <g>
        <g>
          <path class="cls-55" d="M521.72,121.52l-224.34-80.65L73.05,121.52c0,33.09-20.77,62.63-51.91,73.83v125.55c31.14,11.2,51.91,40.73,51.91,73.83l224.34,80.65,224.34-80.65c0-33.09,20.77-62.63,51.91-73.83v-125.55c-31.14-11.2-51.91-40.73-51.91-73.83Z"/>
          <path class="cls-18" d="M60.57,163.87v.09s.58,17.39.02,18.28,16.12-15.5,16.12-15.5l-3.66-26.92v-18.31c0,15.39-4.54,29.99-12.48,42.35Z"/>
          <path class="cls-18" d="M517.85,164.7l15.52,23.28,2.09-3.81v-18.35c-8.73-12.76-13.73-28.09-13.73-44.29v18.31l-3.88,24.87Z"/>
          <path class="cls-23" d="M521.72,139.83l-224.34-80.65-224.34,80.65c0,33.09-20.77,62.63-51.91,73.83v125.55c31.14,11.2,51.91,40.73,51.91,73.83l224.34,80.65,224.34-80.65c0-33.09,20.77-62.63,51.91-73.83v-125.55c-31.14-11.2-51.91-40.73-51.91-73.83Z"/>
          <path class="cls-20" d="M559.92,239.76c-15.28,11.21-29.22,23.79-46.45,32.13-1.11.54-6.12,3-9.25,4.28-2.03.35-4.07.66-6.12.92-8.04,1.02-16.15,1.41-24.25,1.28-35.38-.58-70.74-10.63-102.61-25.65-32.66-15.39-62.53-36.93-87.6-62.9-11.99-12.42-22.88-25.76-32.21-40.29-4.49-7-9.25-14.16-12.54-21.82-3.26-7.6-1.97-19.52-5.96-25.69-.16-.24-9.15,2.04-9.67,2.59-15.14,15.88-2.06,42.2,6.84,58.35,9.79,17.76,22.47,33.29,36.85,47.54,29.62,29.36,65.33,51.48,104.93,64.67,37.35,12.44,77.72,15.56,116.08,6.09,28.86-7.13,65.74-15.44,81.44-44.03-.93,1.7-7.75,1.27-9.47,2.54Z"/>
          <path class="cls-28" d="M506.81,276.45c-1.74.82-3.69,1.72-5.21,2.34-2.03.35-4.07.66-6.12.92-.72.09-1.45.15-2.18.23-1.81.45-3.59.88-5.34,1.32-38.36,9.47-78.73,6.35-116.08-6.09-39.6-13.18-75.31-35.31-104.93-64.67-14.38-14.25-27.06-29.78-36.85-47.54-8.49-15.4-20.76-40.04-8.75-56.07-.37.14-.63.25-.71.33-15.14,15.88-2.06,42.2,6.84,58.35,9.79,17.76,22.47,33.29,36.85,47.54,29.62,29.36,65.33,51.48,104.93,64.66,37.35,12.44,77.72,15.56,116.08,6.09,24.27-5.99,54.16-12.88,72.4-31.9-13.61,12.62-32.6,19.46-50.94,24.48Z"/>
          <path class="cls-6" d="M522.78,218.3c-8.84,8.03-17.5,17.36-29.1,21.4-11.79,4.1-27.62,3.67-39.97,3.54-25.43-.27-51.63-5.28-73.64-18.52-43.35-26.08-61.48-88.35-48.9-135.56-.59,2.21-11.99,1.17-13.02,3.49-26.63,59.77,16.42,130.06,75.61,147.57,27.34,8.09,58.01,8.76,85.93,3.15,16.08-3.23,41.25-8.26,46.86-26.07-.18.56-3.23.54-3.75,1Z"/>
          <path class="cls-8" d="M493.22,203.66c-26.42,13.17-52.36,2.22-71.34-18.72-8.3-9.16-15.16-19.95-17.1-32.35-2.25-14.36-.57-24.83,8.94-36.06-.78.92-3.56.2-4.34,1.16-11.06,13.68-19.19,29.53-15.09,47.34,3.75,16.33,15.2,30.67,30.01,38.43,14.25,7.47,32.37,11.3,48.28,8.28,9.13-1.74,21.14-4.19,28.34-10.15-1.75,1.45-5.61,1.02-7.7,2.06Z"/>
          <path class="cls-28" d="M481.37,209.9c-2.45.72-4.89,1.22-7.32,1.56-.49.09-1,.2-1.47.29-15.91,3.03-34.03-.81-48.28-8.28-14.81-7.77-26.26-22.11-30.01-38.43-3.88-16.89,3.23-32.01,13.4-45.19-.39.08-.72.22-.92.46-11.06,13.68-19.19,29.53-15.09,47.34,3.75,16.33,15.2,30.67,30.02,38.43,14.25,7.47,32.37,11.3,48.28,8.28,9.13-1.74,21.14-4.19,28.34-10.15-.8.66-2.04.93-3.35,1.12-4.16,2.03-8.92,3.45-13.58,4.56Z"/>
          <path class="cls-10" d="M295.91,377.4c-22.08-38.9-40.01-80-61.78-119.13-28.51-51.23-54.52-119.85-124.85-114.26-1.71.14-3.44,1.36-5.13,1.37,62.82-.39,87.08,72.11,111.59,117.81,21.05,39.24,33.49,81.36,51.42,121.91,14.43,32.63,38.28,75.4,78.47,77.71,4.02.23,9.68-2.45,13.55-3.49,3.04-.81,10.44-4.62,13.48-3.76-38.46-10.93-58.18-45.48-76.74-78.17Z"/>
          <path class="cls-28" d="M359.17,459.33c-3.88,1.04-9.53,3.72-13.55,3.49-40.18-2.31-64.04-45.08-78.47-77.71-17.93-40.55-30.37-82.67-51.42-121.91-22.79-42.49-45.38-108.13-98.94-116.82-3.28-.08-6.63-.03-10.13.25-1.71.14-3.44,1.36-5.13,1.37,62.82-.39,87.08,72.11,111.59,117.81,21.05,39.24,33.49,81.36,51.42,121.91,14.43,32.63,38.28,75.4,78.47,77.71,4.02.23,9.68-2.45,13.55-3.49,3.04-.81,10.44-4.62,13.48-3.76-1.42-.4-2.76-.9-4.12-1.37-2.61.95-5.22,2.1-6.74,2.51Z"/>
          <path class="cls-13" d="M433.74,330.99c-10.39-5.81-21.85-11.92-33.71-13.95-7.97-1.37-15.31,1.01-22.97,3.16-9.66,2.72-17.89,6.67-23.95,15.14-10.71,14.96-6.64,31.5,2.07,46.3,6.71,11.41,14.92,21.99,23.91,31.56,4.29,4.56,6.94,10.68,10.38,15.86,3.33,5.02,6.95,9,2.76,14.69.75-1.02,8.19-1.07,8.29-2.22.8-9.72,2.64-16.7-2.85-25.44-5.34-8.49-10.19-16.77-15.95-25.09-7.71-11.14-16.18-23.6-17.32-37.48-1.21-14.76,7.1-22.89,15.94-32.82.04-.02.08-.05.13-.07,2.19.19,6.6-.44,7.58-.38,5.39.33,11.02,1.67,16.14,3.37,10.02,3.33,19.82,8.88,28.61,14.7,23.61,15.62,46.11,31.42,75.69,31.96,5.22.09,10.66-4.52,15.79-4.23-32.93-1.89-62.35-19.28-90.53-35.05Z"/>
          <path class="cls-28" d="M508.49,370.27c-29.58-.53-52.09-16.33-75.69-31.96-8.79-5.81-18.58-11.37-28.61-14.7-5.12-1.7-10.75-3.04-16.14-3.37-.74-.04-3.4.3-5.61.39-.88.21-1.76.44-2.65.67-.58.65-1.16,1.3-1.73,1.94,2.24.14,6.42-.45,7.38-.39,5.39.33,11.02,1.67,16.14,3.37,10.02,3.33,19.82,8.88,28.61,14.7,23.61,15.62,46.11,31.42,75.69,31.96,5.22.09,10.66-4.52,15.79-4.23-1.84-.11-3.67-.28-5.49-.48-2.57,1.07-5.16,2.14-7.68,2.09Z"/>
          <path class="cls-28" d="M392.23,443.75c4.19-5.69.58-9.67-2.76-14.69-3.44-5.18-6.09-11.3-10.38-15.86-9-9.57-17.21-20.16-23.91-31.56-8.7-14.8-12.77-31.34-2.07-46.3.77-1.08,1.58-2.08,2.42-3.01-1.81,1.62-3.49,3.48-5.03,5.63-10.71,14.96-6.64,31.5,2.07,46.3,6.71,11.41,14.92,21.99,23.91,31.56,4.29,4.56,6.94,10.68,10.38,15.86,3.33,5.02,6.95,9,2.76,14.69.75-1.02,8.19-1.07,8.29-2.22.05-.57.1-1.13.15-1.68-2.27.38-5.35.64-5.82,1.28Z"/>
          <path class="cls-15" d="M456.32,386.77c-7.88-5.6-16.31-3.05-24.79-.77-7.22,1.93-17.95,3.44-19.25,12.41-1.27,8.8,4.86,17.82,5.57,26.56-.06-.77,12.25-2.27,12.24-3.28-.07-7.08-2.66-13.56-3.59-20.5-.42-3.15-.6-6.58.89-9.5.64-1.25,1.53-2.28,2.55-3.23.33-.31,1.05-.75,1.79-1.18.55-.04,1.07-.06,1.47,0,1.9.23,3.78.75,5.52,1.54,3.13,1.41,5.81,3.69,8.12,6.19,5.21,5.65,8.31,12.9,14.35,17.77,1.68,1.35,12.82-5.15,13.81-3.7-5.15-7.53-11.14-16.92-18.69-22.29Z"/>
          <path class="cls-19" d="M126.66,320.69c-18.54-28.1-50.07-44.88-83.69-41.11-.56.06-1.66.74-2.17.58,13.07,3.99,24.76,5.5,36.15,13.86,11.78,8.64,20.43,19.93,27.61,32.58,7.5,13.23,12.79,27.54,15.19,42.58,1.13,7.11,1.56,14.31,1.53,21.5-.03,7.31-2.68,15.69.11,22.57-.03-.08,16.72-3.57,17.56-4.71,17.36-23.42,1.91-66.35-12.28-87.87Z"/>
          <path class="cls-28" d="M121.38,413.27c-2.79-6.88-.14-15.26-.11-22.57.03-7.19-.39-14.4-1.53-21.5-2.4-15.04-7.7-29.35-15.19-42.58-7.17-12.65-15.83-23.94-27.61-32.58-9.76-7.17-19.74-9.31-30.61-12.28-1.98.08-3.98.22-5.98.45-.56.06-1.66.74-2.17.58,13.07,3.99,24.76,5.5,36.15,13.86,11.78,8.64,20.43,19.93,27.61,32.58,7.5,13.23,12.79,27.54,15.19,42.58,1.13,7.11,1.56,14.31,1.53,21.5-.03,7.31-2.68,15.69.11,22.57-.03-.08,16.72-3.57,17.56-4.71.48-.65.93-1.32,1.36-2-4.03,1.45-16.34,4.03-16.31,4.09Z"/>
          <path class="cls-9" d="M207.05,385.69c-15.31-28.72-24.58-60.07-36.19-90.37-9.84-25.67-24.58-43.92-43.06-63.67-13-13.89-31.72-36.87-53.08-33.83-1.67.24-3.3,1.19-4.97,1.33,18.62-1.55,36.96,21.96,48.36,33.71,19.03,19.61,36.46,38.13,46.84,64.04,11.63,29.03,17.68,60.66,26.79,90.53,8.5,27.87,22.52,61.88,48.28,77.51,1.87,1.13,10.82-4.63,12.02-3.22-18.7-22.05-31.45-50.63-44.99-76.03Z"/>
          <polygon class="cls-4" points="44.27 250.58 134.64 257.31 44.27 257.31 44.27 250.58"/>
          <polygon class="cls-21" points="134.64 257.31 44.27 265.65 44.27 257.31 134.64 257.31"/>
          <polygon class="cls-44" points="526.94 355.93 462.78 351.47 376.53 349.18 269.57 347.37 179.66 338.61 109.03 338.55 42.1 337.35 40.01 328.5 110.34 334.73 188 336.44 269.52 344.62 309.91 342.98 384.44 346.98 471.68 347.63 527.32 348.93 526.94 355.93"/>
          <path class="cls-50" d="M102,390.08l195.39,70.25,195.39-70.25c6.25-29.12,24.19-54.62,49.47-70.36v-7.85c-25.28,15.74-43.22,41.25-49.47,70.36l-195.39,70.25-195.39-70.25c-6.26-29.12-24.19-54.62-49.48-70.36v7.85c25.28,15.74,43.22,41.25,49.48,70.36Z"/>
          <polygon class="cls-18" points="297.39 40.87 297.39 59.17 252.05 75.47 252.05 57.17 297.39 40.87"/>
          <polygon class="cls-26" points="404.6 79.41 404.6 97.72 445.73 112.51 445.73 94.2 404.6 79.41"/>
          <polygon class="cls-26" points="378.62 88.38 378.62 70.07 363.9 64.78 362.54 82.6 378.62 88.38"/>
          <polygon class="cls-17" points="297.39 460.33 297.39 452.48 254.84 437.19 254.84 445.03 297.39 460.33"/>
          <g class="cls-25">
            <path class="cls-50" d="M85.16,351.03v-7.85c-3.13-4.57-6.6-8.91-10.39-12.97v7.84c3.78,4.06,7.26,8.4,10.39,12.98Z"/>
          </g>
          <polygon class="cls-17" points="456.8 395.17 456.8 395.17 456.8 403.02 492.78 390.08 492.78 382.24 456.8 395.17"/>
          <g class="cls-25">
            <polygon class="cls-50" points="162.41 411.8 162.41 403.96 128.48 391.76 128.48 399.6 162.41 411.8"/>
          </g>
          <polygon class="cls-22" points="560.12 227.41 507.91 226.83 432.02 226.49 351.33 227.92 276.38 224.24 170.82 223.78 102.46 222.3 52.36 221.74 52.39 219.13 153.49 220.25 219.31 217.75 297.35 221.86 373.26 222.71 482.94 221.19 560.15 224.79 560.12 227.41"/>
          <polygon class="cls-26" points="132.82 118.34 132.82 100.03 94.87 113.68 94.87 131.98 132.82 118.34"/>
          <path class="cls-51" d="M521.72,139.83l-224.34-80.65-224.34,80.65c0,33.09-20.77,62.63-51.91,73.83v125.55c31.14,11.2,51.91,40.73,51.91,73.83l224.34,80.65,224.34-80.65c0-33.09,20.77-62.63,51.91-73.83v-125.55c-31.14-11.2-51.91-40.73-51.91-73.83ZM542.25,319.72c-25.28,15.74-43.22,41.25-49.47,70.36l-195.39,70.25-195.39-70.25c-6.26-29.12-24.19-54.62-49.48-70.36v-86.59c25.28-15.74,43.22-41.24,49.48-70.36l46.38-16.68,9.26-3.33,139.75-50.24,188.06,67.61,7.35,2.69c6.27,29.09,24.19,54.58,49.46,70.31v86.59Z"/>
          <path class="cls-16" d="M492.79,162.82l-7.35-2.69-188.06-67.61-139.75,50.24-9.26,3.33-46.38,16.68c-6.26,29.12-24.19,54.63-49.48,70.36v13.08c25.28-15.74,43.22-41.24,49.48-70.36l46.38-16.68,9.26-3.33,139.75-50.24,188.06,67.61,7.35,2.69c6.27,29.09,24.19,54.58,49.46,70.31v-13.08c-25.27-15.73-43.2-41.21-49.46-70.31Z"/>
          <polygon class="cls-45" points="155.87 110.05 216.72 82.28 241.1 79.41 208.09 95.96 155.87 110.05"/>
          <polygon class="cls-45" points="297.39 50.9 281.79 64.78 312.98 64.78 297.39 50.9"/>
          <polygon class="cls-41" points="447.45 406.38 406.12 427.72 371.93 433.53 406.12 417.64 447.45 406.38"/>
          <polygon class="cls-41" points="176.71 416.94 223.01 429.02 231.8 437.19 215.25 439.36 176.71 416.94"/>
          <polygon class="cls-27" points="238.78 224.08 309.13 231.59 351.33 227.92 286.73 224.75 238.78 224.08"/>
          <polygon class="cls-27" points="366.02 349 439.83 355.93 478.53 352.56 462.78 351.47 366.02 349"/>
          <polygon class="cls-4" points="297.39 275.31 312.98 275.31 323.96 289.4 312.98 297.33 297.39 275.31"/>
          <polygon class="cls-21" points="297.39 275.31 310.08 303.26 317.75 303.26 323.96 289.4 312.98 297.33 297.39 275.31"/>
          <polygon class="cls-4" points="456.8 312.12 505.35 303.26 526.53 312.12 456.8 312.12"/>
          <polygon class="cls-21" points="456.8 312.12 500.92 320.24 526.53 312.12 456.8 312.12"/>
          <polygon class="cls-4" points="99.15 278.99 128.53 275.7 112.32 282.41 99.15 278.99"/>
          <polygon class="cls-4" points="121.74 293.6 176.08 285.19 200.03 293.6 121.74 293.6"/>
          <g class="cls-12">
            <path class="cls-34" d="M276,100.21l21.39-7.69,21.52,7.74c8.15-7.63,15.27-16.35,21.02-25.79l-19.56-7.03c-7.13,8.22-15.23,15.42-24.12,21.47-6.39,4.35-13.18,8.1-20.25,11.31Z"/>
            <path class="cls-2" d="M487.32,160.82l5.48,2.01c2.83,13.13,8.05,25.51,15.22,36.6,7.46-8.29,14.62-16.83,21.49-25.6-5-10.39-7.78-21.95-7.78-34l-9.79-3.52c-8.03,8.38-16.23,16.56-24.62,24.51Z"/>
            <path class="cls-46" d="M542.25,281.56v38.15c-14.71,9.16-26.91,21.64-35.79,36.19,18.05-13.48,35.28-28.06,51.43-43.81,5.39-5.2,10.63-10.56,15.74-16.04v-44.13c-10.09,10.28-20.55,20.16-31.38,29.63Z"/>
            <path class="cls-1" d="M237.59,438.83c-.66.18-1.31.36-1.97.54l-19.45,5c-6.53,1.47-13.03,3.13-19.6,4.46-5.08,1.03-10.16,2.1-15.26,3.11l51.06,18.36c3.27-.53,6.55-1.03,9.81-1.6,6.82-1.38,13.68-2.66,20.5-4.13,9.33-2.03,18.61-4.28,27.85-6.7l-52.94-19.03Z"/>
            <path class="cls-54" d="M394.27,116.04c-3.76,2.47-7.55,4.86-11.36,7.23l48.53,17.45c8.86-7.69,17.38-15.75,25.52-24.17l-41.81-15.03c-6.85,5.01-13.81,9.87-20.88,14.52Z"/>
            <path class="cls-49" d="M52.52,233.13c12.85-8,23.79-18.53,32.28-30.77-1.82-.1-3.64-.18-5.47-.3-10.98-.7-21.95-1.84-32.89-3.38-7.28,6.41-15.8,11.56-25.3,14.97v16.96c10.32,3.3,20.79,6.16,31.38,8.56v-6.04Z"/>
            <path class="cls-57" d="M139.16,128.26c11.37,3.81,23.06,6.68,34.93,8.59l78.88-28.36c-9.43,2.59-19.15,4.37-28.98,5.39-22.49,2.29-45.6.88-68.03-3.86l-33.17,11.92c5.36,2.36,10.81,4.49,16.36,6.32Z"/>
            <path class="cls-52" d="M102,390.08c-2.08-9.68-5.47-18.94-9.97-27.59-10.93,2.2-21.91,4.16-32.95,5.87,6.39,9.23,10.79,19.83,12.77,31.15,15.33-.64,30.64-1.92,45.88-3.77l-15.72-5.65Z"/>
          </g>
          <polygon class="cls-45" points="423.86 104.64 481.21 118.83 512.55 136.53 481.55 131.94 423.86 104.64"/>
        </g>
        <g>
          <path class="cls-37" d="M432.25,89.46l6.67,2.4c.63-2.27,1.31-4.06,1.96-5.34l-3.03-.86-1.56-4.96c-1.7,2.19-3.02,5.25-4.04,8.76Z"/>
          <g>
            <g>
              <path class="cls-48" d="M442.43,89.75c-5.09,0-9.23-4.15-9.23-9.25v-11.9c.02-5.09,4.16-9.23,9.26-9.23,2.43,0,4.72.94,6.45,2.64,1.79,1.76,2.78,4.1,2.77,6.61v11.9c-.02,5.09-4.17,9.23-9.26,9.23ZM442.46,64.58c-2.22,0-4.03,1.8-4.03,4.03v11.9c-.01,2.22,1.79,4.03,4.01,4.03,2.22,0,4.03-1.8,4.03-4.02v-11.9c.01-1.09-.42-2.12-1.2-2.88-.76-.74-1.76-1.15-2.81-1.15Z"/>
              <g class="cls-14">
                <path class="cls-42" d="M447.59,79.26v-11.9c.01-1.09-.42-2.12-1.2-2.88-.76-.74-1.76-1.15-2.81-1.15-1.5,0-2.79.83-3.49,2.04.67-.49,1.48-.78,2.37-.78,1.06,0,2.06.41,2.81,1.15.78.76,1.21,1.79,1.21,2.88v11.9c-.01.72-.22,1.4-.56,1.98,1-.73,1.67-1.91,1.67-3.24Z"/>
                <path class="cls-42" d="M443.55,88.49c-5.09,0-9.23-4.15-9.23-9.25v-11.9c.01-2.05.69-3.93,1.83-5.46-1.8,1.68-2.93,4.07-2.94,6.73v11.9c-.02,5.09,4.12,9.24,9.21,9.25,3.05,0,5.75-1.48,7.43-3.76-1.65,1.55-3.87,2.5-6.31,2.5Z"/>
              </g>
              <path class="cls-24" d="M444.13,62.15c1.62.26,3.07,1.21,4,2.7.58.93.83,2.03.82,3.12l.02,2.33s0,.76-.01,1.38c0,.43.31.8.74.86h0c.51.07.97-.33.98-.84.02-2.97,0-3.85,0-3.85,0-2.04-.83-3.91-2.25-5.37-1.22-1.24-2.93-1.77-3.99-1.99-.51-.11-.99.27-1.02.78h0c-.03.43.28.81.71.88Z"/>
              <path class="cls-24" d="M442.37,85.55c-1.62-.26-3.07-1.21-4-2.7-.58-.93-.83-2.03-.82-3.12l-.03-.65s0-.76.01-1.38c0-.43-.31-.8-.74-.86h0c-.51-.07-.97.33-.98.84-.02,2.97,0,2.17,0,2.17,0,2.04.83,3.91,2.25,5.37,1.22,1.24,2.93,1.77,3.99,1.99.51.11.99-.27,1.02-.78h0c.03-.43-.28-.81-.71-.88Z"/>
            </g>
            <g>
              <path class="cls-53" d="M442.43,50.87c-5.09,0-9.23-4.15-9.23-9.25v-11.9c.02-5.09,4.16-9.23,9.26-9.23,2.43,0,4.72.94,6.45,2.64,1.79,1.76,2.78,4.1,2.77,6.61v11.9c-.02,5.09-4.17,9.23-9.26,9.23ZM442.46,25.7c-2.22,0-4.03,1.8-4.03,4.03v11.9c-.01,2.22,1.79,4.03,4.01,4.03,2.22,0,4.03-1.8,4.03-4.02v-11.9c.01-1.09-.42-2.12-1.2-2.88-.76-.74-1.76-1.15-2.81-1.15Z"/>
              <g class="cls-14">
                <path class="cls-42" d="M447.59,40.38v-11.9c.01-1.09-.42-2.12-1.2-2.88-.76-.74-1.76-1.15-2.81-1.15-1.5,0-2.79.83-3.49,2.04.67-.49,1.48-.78,2.37-.78,1.06,0,2.06.41,2.81,1.15.78.76,1.21,1.79,1.21,2.88v11.9c-.01.72-.22,1.4-.56,1.98,1-.73,1.67-1.91,1.67-3.24Z"/>
                <path class="cls-42" d="M443.55,49.61c-5.09,0-9.23-4.15-9.23-9.25v-11.9c.01-2.05.69-3.93,1.83-5.47-1.8,1.68-2.93,4.07-2.94,6.73v11.9c-.02,5.09,4.12,9.24,9.21,9.25,3.05,0,5.75-1.48,7.43-3.76-1.65,1.55-3.87,2.5-6.31,2.5Z"/>
              </g>
              <path class="cls-24" d="M444.13,23.27c1.62.26,3.07,1.21,4,2.7.58.93.83,2.03.82,3.12l.02,2.33s0,.76-.01,1.38c0,.43.31.8.74.86h0c.51.07.97-.32.98-.84.02-2.97,0-3.85,0-3.85,0-2.04-.83-3.91-2.25-5.37-1.22-1.24-2.93-1.77-3.99-1.99-.51-.11-.99.27-1.02.78h0c-.03.43.28.81.71.88Z"/>
              <path class="cls-24" d="M442.37,46.66c-1.62-.26-3.07-1.21-4-2.7-.58-.93-.83-2.03-.82-3.12l-.03-.65s0-.76.01-1.38c0-.43-.31-.8-.74-.86h0c-.51-.07-.97.33-.98.84-.02,2.97,0,2.17,0,2.17,0,2.04.83,3.91,2.25,5.37,1.22,1.24,2.93,1.77,3.99,1.99.51.11.99-.27,1.02-.78h0c.03-.43-.28-.81-.71-.88Z"/>
            </g>
            <g>
              <path class="cls-39" d="M442.29,70.06h0c-1.82-.02-3.28-1.51-3.26-3.33l.25-23.78c.02-1.82,1.51-3.28,3.33-3.26h0c.91,0,1.73.39,2.32.99.59.6.95,1.43.94,2.34l-.25,23.78c-.02,1.82-1.51,3.28-3.33,3.26Z"/>
              <path class="cls-24" d="M442.65,60.38h0c-1.1-.01-1.98-1.5-1.96-3.32l.09-8.16c.02-1.82.93-3.29,2.03-3.28h0c.55,0,1.05.38,1.4.98.35.6.57,1.43.56,2.34l-.09,8.16c-.02,1.82-.93,3.29-2.03,3.28Z"/>
              <path class="cls-7" d="M442.35,64.66c-.96-.01-1.82-.44-2.41-1.1l.24-22.82c-.54.58-.89,1.35-.9,2.21l-.19,18.38-.05,4.35v1.05c-.03,1.82,1.43,3.31,3.25,3.33,1.82.02,3.31-1.44,3.33-3.26l.06-5.4c-.02,1.82-1.51,3.28-3.33,3.26Z"/>
            </g>
            <g>
              <path class="cls-56" d="M442.29,31.17h0c-1.82-.02-3.28-1.51-3.26-3.33l.25-23.78c.02-1.82,1.51-3.28,3.33-3.26h0c.91,0,1.73.39,2.32.99.59.6.95,1.43.94,2.34l-.25,23.78c-.02,1.82-1.51,3.28-3.33,3.26Z"/>
              <path class="cls-24" d="M442.65,21.49h0c-1.1-.01-1.98-1.5-1.96-3.32l.09-8.16c.02-1.82.93-3.29,2.03-3.28h0c.55,0,1.05.38,1.4.98.35.6.57,1.43.56,2.34l-.09,8.16c-.02,1.82-.93,3.29-2.03,3.28Z"/>
              <path class="cls-7" d="M442.35,25.78c-.96-.01-1.82-.44-2.41-1.1l.24-22.82c-.54.58-.89,1.35-.9,2.21l-.19,18.38-.05,4.35v1.05c-.03,1.82,1.43,3.31,3.25,3.33,1.82.02,3.31-1.44,3.33-3.26l.06-5.4c-.02,1.82-1.51,3.28-3.33,3.26Z"/>
            </g>
          </g>
          <g>
            <path class="cls-11" d="M436.62,90.99c2.22,3.31,5.03,13.55,5.03,28.85,0,9.95-1.38,18.18-2.89,23.39,1.36.43,3.68,1.18,6.61,2.61,2.5-7.9,3.35-18.4,3.35-26s-.82-17.8-3.24-25.66c-2.81-.97-5.86-2.23-8.86-3.19Z"/>
            <path class="cls-40" d="M442.45,77.21c-1.51,0-2.83.53-4.03,1.41-.1,1.71-.15,3.06.66,4.23.63.91,1.94,1.8,3.61,1.69,2.26,1.47,5.94,12.35,5.94,29.84s-3.92,28.55-6.18,30.03l-9.56-3.06c2.05,5.94,5.1,10.2,9.56,10.2,10.46,0,13.25-23.37,13.25-37.17s-2.79-37.17-13.25-37.17Z"/>
            <g class="cls-31">
              <path class="cls-32" d="M453.25,120.73s-.04,0-.06,0c-.78-.03-1.39-.69-1.36-1.47.67-17.45-1.57-25.92-4.1-32.47-.28-.73.08-1.55.81-1.83.73-.28,1.55.08,1.83.81,2.63,6.84,4.98,15.64,4.29,33.6-.03.76-.66,1.36-1.41,1.36Z"/>
            </g>
            <path class="cls-7" d="M448.76,147.88c-2.2,3.04-6.13-.11-4.47-2.37v-.02c3.21-3.82,5.57-16.28,5.57-31.11,0-17.16-3.16-31.15-7.16-32.24-2.23-.41-3.84-3.13-3.06-4.25-.42.21-.83.44-1.23.73-.1,1.71-.15,3.06.66,4.23.63.91,1.94,1.8,3.61,1.69,2.26,1.47,5.94,12.35,5.94,29.84s-3.92,28.55-6.18,30.03l-9.56-3.06c2.05,5.94,5.1,10.2,9.56,10.2,2.54,0,4.61-1.39,6.32-3.67Z"/>
            <path class="cls-7" d="M441.76,144.18h0l-8.86-2.83c1.93,5.6,4.77,9.65,8.82,10.11-2.58-2.37-1.98-5.97.05-7.28Z"/>
            <g class="cls-29">
              <path class="cls-32" d="M452.86,103.62c-.73,0-1.34-.56-1.41-1.3-.18-2.13-.62-4.79-1.24-7.49-.18-.76.3-1.52,1.06-1.7.75-.18,1.52.3,1.7,1.06.65,2.83,1.12,5.64,1.3,7.9.06.78-.51,1.46-1.29,1.53-.04,0-.08,0-.12,0Z"/>
            </g>
          </g>
        </g>
        <g>
          <path class="cls-37" d="M162.53,89.46l-6.67,2.4c-.63-2.27-1.31-4.06-1.96-5.34l3.03-.86,1.56-4.96c1.7,2.19,3.02,5.25,4.04,8.76Z"/>
          <g>
            <g>
              <path class="cls-33" d="M152.31,89.75c-5.09,0-9.23-4.15-9.23-9.25v-11.9c.02-5.09,4.16-9.23,9.26-9.23,2.43,0,4.72.94,6.45,2.64,1.79,1.76,2.78,4.1,2.77,6.61v11.9c-.02,5.09-4.17,9.23-9.26,9.23ZM152.33,64.58c-2.22,0-4.03,1.8-4.03,4.03v11.9c-.01,2.22,1.79,4.03,4.01,4.03,2.22,0,4.03-1.8,4.03-4.02v-11.9c.01-1.09-.42-2.12-1.2-2.88-.76-.74-1.76-1.15-2.81-1.15Z"/>
              <g class="cls-14">
                <path class="cls-42" d="M157.47,79.26v-11.9c.01-1.09-.42-2.12-1.2-2.88-.76-.74-1.76-1.15-2.81-1.15-1.5,0-2.79.83-3.49,2.04.67-.49,1.48-.78,2.37-.78,1.06,0,2.06.41,2.82,1.15.78.76,1.21,1.79,1.21,2.88v11.9c-.01.72-.22,1.4-.56,1.98,1-.73,1.67-1.91,1.67-3.24Z"/>
                <path class="cls-42" d="M153.43,88.49c-5.09,0-9.23-4.15-9.23-9.25v-11.9c.01-2.05.69-3.93,1.83-5.46-1.8,1.68-2.93,4.07-2.94,6.73v11.9c-.02,5.09,4.12,9.24,9.21,9.25,3.05,0,5.75-1.48,7.43-3.76-1.65,1.55-3.87,2.5-6.31,2.5Z"/>
              </g>
              <path class="cls-30" d="M154,62.15c1.62.26,3.07,1.21,4,2.7.58.93.83,2.03.82,3.12l.02,2.33s0,.76-.01,1.38c0,.43.31.8.74.86h0c.51.07.97-.33.98-.84.02-2.97,0-3.85,0-3.85,0-2.04-.83-3.91-2.25-5.37-1.22-1.24-2.93-1.77-3.99-1.99-.51-.11-.99.27-1.02.78h0c-.03.43.28.81.71.88Z"/>
            </g>
            <g>
              <path class="cls-38" d="M152.31,50.87c-5.09,0-9.23-4.15-9.23-9.25v-11.9c.02-5.09,4.16-9.23,9.26-9.23,2.43,0,4.72.94,6.45,2.64,1.79,1.76,2.78,4.1,2.77,6.61v11.9c-.02,5.09-4.17,9.23-9.26,9.23ZM152.33,25.7c-2.22,0-4.03,1.8-4.03,4.03v11.9c-.01,2.22,1.79,4.03,4.01,4.03,2.22,0,4.03-1.8,4.03-4.02v-11.9c.01-1.09-.42-2.12-1.2-2.88-.76-.74-1.76-1.15-2.81-1.15Z"/>
              <g class="cls-14">
                <path class="cls-42" d="M157.47,40.38v-11.9c.01-1.09-.42-2.12-1.2-2.88-.76-.74-1.76-1.15-2.81-1.15-1.5,0-2.79.83-3.49,2.04.67-.49,1.48-.78,2.37-.78,1.06,0,2.06.41,2.82,1.15.78.76,1.21,1.79,1.21,2.88v11.9c-.01.72-.22,1.4-.56,1.98,1-.73,1.67-1.91,1.67-3.24Z"/>
                <path class="cls-42" d="M153.43,49.61c-5.09,0-9.23-4.15-9.23-9.25v-11.9c.01-2.05.69-3.93,1.83-5.47-1.8,1.68-2.93,4.07-2.94,6.73v11.9c-.02,5.09,4.12,9.24,9.21,9.25,3.05,0,5.75-1.48,7.43-3.76-1.65,1.55-3.87,2.5-6.31,2.5Z"/>
              </g>
              <path class="cls-24" d="M154,23.27c1.62.26,3.07,1.21,4,2.7.58.93.83,2.03.82,3.12l.02,2.33s0,.76-.01,1.38c0,.43.31.8.74.86h0c.51.07.97-.32.98-.84.02-2.97,0-3.85,0-3.85,0-2.04-.83-3.91-2.25-5.37-1.22-1.24-2.93-1.77-3.99-1.99-.51-.11-.99.27-1.02.78h0c-.03.43.28.81.71.88Z"/>
              <path class="cls-24" d="M152.25,46.66c-1.62-.26-3.07-1.21-4-2.7-.58-.93-.83-2.03-.82-3.12l-.03-.65s0-.76.01-1.38c0-.43-.31-.8-.74-.86h0c-.51-.07-.97.33-.98.84-.02,2.97,0,2.17,0,2.17,0,2.04.83,3.91,2.25,5.37,1.22,1.24,2.93,1.77,3.99,1.99.51.11.99-.27,1.02-.78h0c.03-.43-.28-.81-.71-.88Z"/>
            </g>
            <g>
              <path class="cls-35" d="M152.17,70.06h0c-1.82-.02-3.28-1.51-3.26-3.33l.25-23.78c.02-1.82,1.51-3.28,3.33-3.26h0c.91,0,1.73.39,2.32.99.59.6.95,1.43.94,2.34l-.25,23.78c-.02,1.82-1.51,3.28-3.33,3.26Z"/>
              <path class="cls-24" d="M152.52,60.38h0c-1.1-.01-1.98-1.5-1.96-3.32l.09-8.16c.02-1.82.93-3.29,2.03-3.28h0c.55,0,1.05.38,1.4.98.35.6.57,1.43.56,2.34l-.09,8.16c-.02,1.82-.93,3.29-2.03,3.28Z"/>
              <path class="cls-7" d="M152.22,64.66c-.96-.01-1.82-.44-2.41-1.1l.24-22.82c-.54.58-.89,1.35-.9,2.21l-.19,18.38-.05,4.35v1.05c-.03,1.82,1.43,3.31,3.25,3.33,1.82.02,3.31-1.44,3.33-3.26l.06-5.4c-.02,1.82-1.51,3.28-3.33,3.26Z"/>
            </g>
            <g>
              <path class="cls-3" d="M152.17,31.17h0c-1.82-.02-3.28-1.51-3.26-3.33l.25-23.78c.02-1.82,1.51-3.28,3.33-3.26h0c.91,0,1.73.39,2.32.99.59.6.95,1.43.94,2.34l-.25,23.78c-.02,1.82-1.51,3.28-3.33,3.26Z"/>
              <path class="cls-24" d="M152.52,21.49h0c-1.1-.01-1.98-1.5-1.96-3.32l.09-8.16c.02-1.82.93-3.29,2.03-3.28h0c.55,0,1.05.38,1.4.98.35.6.57,1.43.56,2.34l-.09,8.16c-.02,1.82-.93,3.29-2.03,3.28Z"/>
              <path class="cls-7" d="M152.22,25.78c-.96-.01-1.82-.44-2.41-1.1l.24-22.82c-.54.58-.89,1.35-.9,2.21l-.19,18.38-.05,4.35v1.05c-.03,1.82,1.43,3.31,3.25,3.33,1.82.02,3.31-1.44,3.33-3.26l.06-5.4c-.02,1.82-1.51,3.28-3.33,3.26Z"/>
            </g>
          </g>
          <g>
            <path class="cls-11" d="M158.15,90.99c-2.22,3.31-5.03,13.55-5.03,28.85,0,9.95,1.38,18.18,2.89,23.39-1.36.43-3.68,1.18-6.61,2.61-2.5-7.9-3.35-18.4-3.35-26s.82-17.8,3.24-25.66c2.81-.97,5.86-2.23,8.86-3.19Z"/>
            <path class="cls-47" d="M152.33,77.21c1.51,0,2.83.53,4.03,1.41.1,1.71.15,3.06-.66,4.23-.63.91-1.94,1.8-3.61,1.69-2.26,1.47-5.94,12.35-5.94,29.84s3.92,28.55,6.18,30.03l9.56-3.06c-2.05,5.94-5.1,10.2-9.56,10.2-10.46,0-13.25-23.37-13.25-37.17s2.79-37.17,13.25-37.17Z"/>
            <g class="cls-31">
              <path class="cls-32" d="M141.52,120.73s.04,0,.06,0c.78-.03,1.39-.69,1.36-1.47-.67-17.45,1.57-25.92,4.1-32.47.28-.73-.08-1.55-.81-1.83-.73-.28-1.55.08-1.83.81-2.63,6.84-4.98,15.64-4.29,33.6.03.76.66,1.36,1.41,1.36Z"/>
            </g>
            <path class="cls-7" d="M146.01,147.88c2.2,3.04,6.13-.11,4.47-2.37v-.02c-3.21-3.82-5.57-16.28-5.57-31.11,0-17.16,3.16-31.15,7.16-32.24,2.23-.41,3.84-3.13,3.06-4.25.42.21.83.44,1.23.73.1,1.71.15,3.06-.66,4.23-.63.91-1.94,1.8-3.61,1.69-2.26,1.47-5.94,12.35-5.94,29.84s3.92,28.55,6.18,30.03l9.56-3.06c-2.05,5.94-5.1,10.2-9.56,10.2-2.54,0-4.61-1.39-6.32-3.67Z"/>
            <path class="cls-7" d="M153.02,144.18h0l8.86-2.83c-1.93,5.6-4.77,9.65-8.82,10.11,2.58-2.37,1.98-5.97-.05-7.28Z"/>
            <g class="cls-29">
              <path class="cls-32" d="M141.92,103.62c.73,0,1.35-.56,1.41-1.3.18-2.13.62-4.79,1.24-7.49.18-.76-.3-1.52-1.06-1.7-.75-.18-1.52.3-1.7,1.06-.65,2.83-1.12,5.64-1.3,7.9-.06.78.51,1.46,1.29,1.53.04,0,.08,0,.12,0Z"/>
            </g>
          </g>
        </g>
      </g>
    </g>
  </g>
</svg>