<svg width="2606" height="3691" viewBox="0 0 2606 3691" fill="none" xmlns="http://www.w3.org/2000/svg">
<path d="M2579.17 2635.63C2563.12 2458.07 2451.39 2307.32 2301.1 2260.56L2199.04 2228.81C2170.3 1792.89 1997.4 1524.43 2011.35 1023.45C2015.26 801.959 1985.12 609.614 1970.42 530.037C2051.36 456.95 2008.56 294.02 1905.76 283.754C1902.09 283.222 1898.41 282.85 1894.78 282.371C1611.08 -121.895 996.334 -65.1914 714.682 282.052C605.603 283.488 551.087 445.514 634.35 528.229C621.279 606.954 589.23 800.257 593.649 1023.45C607.65 1524.27 434.565 1793.05 405.958 2228.81L303.903 2260.56C153.657 2307.37 41.8802 2458.07 25.8323 2635.63L0.295256 2918.24C-0.375674 2925.65 0.321708 2933.14 2.34224 2940.22C4.36277 2947.3 7.6614 2953.82 12.0245 2959.35C16.3877 2964.88 21.718 2969.3 27.6703 2972.33C33.6227 2975.35 40.0644 2976.91 46.5783 2976.91C672.679 2976.33 1932.46 2977.28 2558.42 2976.91C2585.12 2977.44 2608.15 2948.72 2604.71 2918.24L2579.17 2635.63ZM1828.41 2113.48L1762.63 1962.58C1741.89 1917.95 1700.3 1931.4 1673.32 1959.97V1714.11C1731.93 1640.92 1778.31 1563.58 1810.17 1504C1892.32 1709.86 2051.49 1963.21 2075.17 2000.5C2090.89 2065.72 2099.5 2132.85 2104.57 2199.44L1828.41 2113.48ZM723.613 563.655C1106.25 515.888 1494.24 514.345 1876.88 563.283C1902.69 634.508 1917.95 823.29 1918.37 1021.38C1913.76 1284.15 1953.07 1491.5 1996.84 1673.84C1925.2 1531.77 1866.69 1429.1 1854.18 1313.94V872.015C1846.27 636.37 1635.32 581.315 1449.21 633.178C1352.64 658.035 1252.45 658.035 1155.88 633.178C969.727 581.209 758.779 636.37 750.918 872.015C748.22 889.568 757.198 1367.03 743.847 1361.81C724.683 1440.97 670.539 1556.66 608.255 1673.84C651.979 1491.5 691.331 1284.15 686.726 1021.38C683.191 822.652 709.333 644.881 723.613 563.655ZM843.949 872.015C843.949 818.449 870.417 769.884 911.397 748.128C969.634 717.276 1044.9 713.553 1135.37 736.958C1245.45 765.214 1359.64 765.214 1469.72 736.958C1599.5 706.265 1749.42 709.617 1761.19 872.015C1763.56 907.654 1754.49 1352.35 1768.63 1372.4C1731.89 1452.62 1544.94 1832.63 1302.55 1833.69C1060.67 1832.63 873.301 1452.56 836.507 1372.4C840.879 1351.23 843.949 872.015 843.949 872.015ZM1024.76 1814.43C1193.28 1979.17 1411.91 1979.12 1580.34 1814.43V2016.19C1450.51 2075.5 1310.87 2077.9 1302.55 2077.95C1294.17 2077.95 1154.58 2075.5 1024.76 2016.19V1814.43ZM959.447 2099.92C1070.62 2158.96 1192.49 2177.37 1256.91 2182.53L1256.59 2306.57C1082.76 2290.19 930.98 2189.44 868.37 2141.57L901.722 2065.03C920.421 2078.11 939.864 2089.49 959.447 2099.92ZM1349.62 2306.52L1349.95 2182.32C1414.74 2177 1533.78 2158.86 1644.48 2100.56C1664.48 2089.92 1684.3 2078.38 1703.37 2065.03L1736.72 2141.62C1674.25 2189.34 1522.94 2289.77 1349.62 2306.52ZM1325.53 104.76C1532.1 104.76 1668.81 191.518 1747.52 264.339C1459.21 234.3 1169.14 233.676 880.743 262.477C1011.51 159.363 1166.68 104.34 1325.53 104.76ZM712.822 389.342C1105.14 333.51 1502 333.51 1894.32 389.342C1909.16 391.47 1920.37 406.311 1920.37 423.917C1918.93 443.758 1912.46 448.918 1900.92 455.354C1509.49 415.832 1111.93 404.023 719.985 457.482C680.447 462.216 674.958 395.353 712.822 389.342ZM528.899 2001.46C554.017 1963.16 711.798 1711.03 794.829 1504.05C826.692 1563.52 873.068 1640.92 931.678 1714.16V1959.97C904.512 1931.35 863.3 1917.95 842.368 1962.58L776.595 2113.48L500.431 2199.39C504.85 2132.79 515.13 2067.63 528.899 2001.46ZM118.352 2646.58C130.492 2512.38 214.872 2398.54 328.323 2363.17L799.434 2216.62C857.113 2263.54 1038.29 2396.52 1256.26 2414.18L1255.1 2870.53H98.1176L118.352 2646.58ZM1348.13 2870.53L1349.29 2414.13C1567.03 2396.36 1747.93 2263.49 1805.57 2216.62L2276.68 2363.17C2390.13 2398.54 2474.51 2512.38 2486.65 2646.53L2506.88 2870.47H1348.18L1348.13 2870.53Z" fill="white"/>
<path d="M714.034 3536C682.501 3536 657.568 3531.23 639.234 3521.7C621.268 3511.8 608.434 3496.77 600.734 3476.6C593.401 3456.07 589.734 3430.03 589.734 3398.5C589.734 3367.33 593.401 3341.48 600.734 3320.95C608.434 3300.42 621.268 3285.38 639.234 3275.85C657.568 3265.95 682.501 3261 714.034 3261H829.534V3512.35H782.234V3285.2L803.684 3303.35H714.034C693.868 3303.35 678.101 3305.92 666.734 3311.05C655.734 3315.82 648.034 3324.98 643.634 3338.55C639.234 3352.12 637.034 3372.1 637.034 3398.5C637.034 3424.9 639.051 3444.88 643.084 3458.45C647.484 3472.02 655.368 3481.37 666.734 3486.5C678.101 3491.27 693.868 3493.65 714.034 3493.65H888.934V3536H714.034ZM888.934 3536V3493.65C891.134 3493.65 892.968 3494.2 894.434 3495.3C895.901 3496.03 897.001 3497.32 897.734 3499.15C898.468 3500.98 899.018 3503.18 899.384 3505.75C899.751 3508.32 899.934 3511.25 899.934 3514.55C899.934 3517.85 899.751 3520.97 899.384 3523.9C899.018 3526.47 898.468 3528.67 897.734 3530.5C897.001 3532.33 895.901 3533.8 894.434 3534.9C892.968 3535.63 891.134 3536 888.934 3536ZM657.384 3211.5V3160.35H704.134V3211.5H657.384ZM736.034 3211.5V3160.35H782.784V3211.5H736.034ZM999.476 3536V3493.65H1059.98V3536H999.476ZM1059.98 3536V3493.65C1062.18 3493.65 1064.01 3494.2 1065.48 3495.3C1066.94 3496.03 1068.04 3497.32 1068.78 3499.15C1069.51 3500.98 1070.06 3503.18 1070.43 3505.75C1070.79 3508.32 1070.98 3511.25 1070.98 3514.55C1070.98 3517.85 1070.79 3520.97 1070.43 3523.9C1070.06 3526.47 1069.51 3528.67 1068.78 3530.5C1068.04 3532.33 1066.94 3533.8 1065.48 3534.9C1064.01 3535.63 1062.18 3536 1059.98 3536ZM888.926 3536C886.726 3536 884.892 3535.63 883.426 3534.9C881.959 3533.8 880.859 3532.33 880.126 3530.5C879.392 3528.67 878.842 3526.47 878.476 3523.9C878.109 3520.97 877.926 3517.85 877.926 3514.55C877.926 3510.15 878.292 3506.48 879.026 3503.55C879.392 3500.62 880.492 3498.23 882.326 3496.4C883.792 3494.57 885.992 3493.65 888.926 3493.65V3536ZM888.926 3536V3493.65H975.276L952.176 3512.35V3261H999.476V3536H888.926ZM910.926 3637.75V3586.6H957.676V3637.75H910.926ZM989.576 3637.75V3586.6H1036.33V3637.75H989.576ZM1059.73 3536V3493.65H1141.68L1119.13 3512.35V3261H1165.88V3536H1059.73ZM1059.73 3536C1057.53 3536 1055.69 3535.63 1054.23 3534.9C1052.76 3533.8 1051.66 3532.33 1050.93 3530.5C1050.19 3528.67 1049.64 3526.47 1049.28 3523.9C1048.91 3520.97 1048.73 3517.85 1048.73 3514.55C1048.73 3510.15 1049.09 3506.48 1049.83 3503.55C1050.19 3500.62 1051.29 3498.23 1053.13 3496.4C1054.59 3494.57 1056.79 3493.65 1059.73 3493.65V3536ZM1119.13 3637.75V3586.6H1166.43V3637.75H1119.13ZM1309.12 3536V3493.65H1379.52V3536H1309.12ZM1217.27 3659.75C1212.5 3659.75 1207.55 3659.38 1202.42 3658.65C1196.92 3658.28 1191.6 3657.92 1186.47 3657.55L1190.87 3615.2C1196 3615.57 1200.95 3615.93 1205.72 3616.3C1210.12 3617.03 1213.97 3617.4 1217.27 3617.4C1234.13 3617.4 1247.7 3610.98 1257.97 3598.15C1268.23 3585.32 1273.37 3567.53 1273.37 3544.8V3261H1320.67V3544.8C1320.67 3567.53 1316.27 3587.52 1307.47 3604.75C1298.67 3622.35 1286.38 3635.92 1270.62 3645.45C1255.22 3654.98 1237.43 3659.75 1217.27 3659.75ZM1379.52 3536V3493.65C1381.72 3493.65 1383.55 3494.2 1385.02 3495.3C1386.48 3496.03 1387.58 3497.32 1388.32 3499.15C1389.05 3500.98 1389.6 3503.18 1389.97 3505.75C1390.33 3508.32 1390.52 3511.25 1390.52 3514.55C1390.52 3517.85 1390.33 3520.97 1389.97 3523.9C1389.6 3526.47 1389.05 3528.67 1388.32 3530.5C1387.58 3532.33 1386.48 3533.8 1385.02 3534.9C1383.55 3535.63 1381.72 3536 1379.52 3536ZM1379.31 3536V3493.65H1459.06C1479.96 3493.65 1500.12 3490.17 1519.56 3483.2C1538.99 3476.23 1556.77 3466.88 1572.91 3455.15C1589.41 3443.42 1603.71 3430.58 1615.81 3416.65C1627.91 3402.35 1637.26 3387.87 1643.86 3373.2C1650.46 3358.17 1653.76 3344.23 1653.76 3331.4V3297.85L1678.51 3335.8C1657.61 3325.17 1636.89 3317.1 1616.36 3311.6C1596.19 3306.1 1576.39 3303.35 1556.96 3303.35C1537.89 3303.35 1518.09 3306.1 1497.56 3311.6C1477.02 3317.1 1456.49 3325.17 1435.96 3335.8L1460.71 3297.85V3331.4C1460.71 3344.23 1464.01 3358.17 1470.61 3373.2C1477.57 3387.87 1486.92 3402.35 1498.66 3416.65C1510.76 3430.58 1524.87 3443.42 1541.01 3455.15C1557.14 3466.88 1574.92 3476.23 1594.36 3483.2C1613.79 3490.17 1634.14 3493.65 1655.41 3493.65H1731.31V3536H1658.16C1629.56 3536 1602.79 3531.42 1577.86 3522.25C1552.92 3513.08 1530.37 3500.98 1510.21 3485.95C1490.04 3470.55 1472.62 3453.87 1457.96 3435.9C1443.66 3417.57 1432.66 3399.42 1424.96 3381.45C1417.26 3363.12 1413.41 3346.43 1413.41 3331.4V3298.4C1429.17 3289.97 1445.31 3283 1461.81 3277.5C1478.31 3272 1494.62 3267.97 1510.76 3265.4C1526.89 3262.47 1542.29 3261 1556.96 3261C1571.99 3261 1587.57 3262.47 1603.71 3265.4C1619.84 3267.97 1635.97 3272 1652.11 3277.5C1668.61 3283 1684.74 3289.97 1700.51 3298.4V3331.4C1700.51 3346.43 1696.66 3363.12 1688.96 3381.45C1681.26 3399.42 1670.07 3417.57 1655.41 3435.9C1641.11 3453.87 1623.87 3470.55 1603.71 3485.95C1583.54 3500.98 1560.99 3513.08 1536.06 3522.25C1511.12 3531.42 1484.36 3536 1455.76 3536H1379.31ZM1379.31 3536C1377.11 3536 1375.27 3535.63 1373.81 3534.9C1372.34 3533.8 1371.24 3532.33 1370.51 3530.5C1369.77 3528.67 1369.22 3526.47 1368.86 3523.9C1368.49 3520.97 1368.31 3517.85 1368.31 3514.55C1368.31 3510.15 1368.67 3506.48 1369.41 3503.55C1369.77 3500.62 1370.87 3498.23 1372.71 3496.4C1374.17 3494.57 1376.37 3493.65 1379.31 3493.65V3536ZM1731.31 3536V3493.65C1733.51 3493.65 1735.34 3494.2 1736.81 3495.3C1738.27 3496.03 1739.37 3497.32 1740.11 3499.15C1740.84 3500.98 1741.39 3503.18 1741.76 3505.75C1742.12 3508.32 1742.31 3511.25 1742.31 3514.55C1742.31 3517.85 1742.12 3520.97 1741.76 3523.9C1741.39 3526.47 1740.84 3528.67 1740.11 3530.5C1739.37 3532.33 1738.27 3533.8 1736.81 3534.9C1735.34 3535.63 1733.51 3536 1731.31 3536ZM1797.11 3536V3142.2H1844.41V3536H1797.11ZM1731.11 3536V3493.65H1797.11V3536H1731.11ZM1731.11 3536C1728.91 3536 1727.08 3535.63 1725.61 3534.9C1724.15 3533.8 1723.05 3532.33 1722.31 3530.5C1721.58 3528.67 1721.03 3526.47 1720.66 3523.9C1720.3 3520.97 1720.11 3517.85 1720.11 3514.55C1720.11 3510.15 1720.48 3506.48 1721.21 3503.55C1721.58 3500.62 1722.68 3498.23 1724.51 3496.4C1725.98 3494.57 1728.18 3493.65 1731.11 3493.65V3536ZM1938.05 3536V3142.2H1984.8V3536H1938.05Z" fill="white"/>
</svg>
