<svg width="2584" height="3660" viewBox="0 0 2584 3660" fill="none" xmlns="http://www.w3.org/2000/svg">
<path d="M998.42 1082.89H1184.25V1206.94H998.42V1082.89ZM1399.76 1082.89H1586.14V1206.94H1399.76V1082.89ZM1135.32 1551.77H1449.24V1675.81H1135.32V1551.77Z" fill="white"/>
<path d="M510.3 3141.45H953.6V3399.95H911.25V3181.6H551.55V3402.7H510.3V3141.45ZM532.3 3327.9H936V3368.6H532.3V3327.9ZM709.4 3043H752.85V3548.45H709.4V3043ZM1140.6 3153H1423.3V3189.85H1140.6V3153ZM1156 3268.5H1410.1V3304.25H1156V3268.5ZM1132.9 3397.2H1434.85V3432.4H1132.9V3397.2ZM1259.95 3164.55H1299V3416.45H1259.95V3164.55ZM1333.1 3329L1360.05 3314.15C1370.68 3322.95 1381.13 3333.03 1391.4 3344.4C1402.03 3355.77 1410.28 3365.85 1416.15 3374.65L1387.55 3391.7C1382.05 3382.9 1374.17 3372.63 1363.9 3360.9C1353.63 3348.8 1343.37 3338.17 1333.1 3329ZM1054.8 3067.75H1510.2V3549H1466.75V3106.25H1096.6V3549H1054.8V3067.75ZM1076.8 3483H1486.55V3521.5H1076.8V3483ZM1803.9 3060.05H1850.1C1849.37 3074.35 1848.08 3093.23 1846.25 3116.7C1844.42 3140.17 1840.93 3166.75 1835.8 3196.45C1831.03 3225.78 1823.52 3256.4 1813.25 3288.3C1802.98 3320.2 1789.23 3351.73 1772 3382.9C1754.77 3414.07 1732.77 3443.58 1706 3471.45C1679.6 3499.32 1647.33 3523.52 1609.2 3544.05C1605.9 3538.92 1601.13 3533.42 1594.9 3527.55C1588.67 3521.68 1582.25 3516.55 1575.65 3512.15C1613.42 3492.72 1645.13 3469.98 1670.8 3443.95C1696.47 3417.92 1717.55 3390.05 1734.05 3360.35C1750.55 3330.65 1763.38 3300.77 1772.55 3270.7C1781.72 3240.27 1788.5 3211.3 1792.9 3183.8C1797.3 3156.3 1800.05 3131.92 1801.15 3110.65C1802.62 3089.02 1803.53 3072.15 1803.9 3060.05ZM1847.9 3071.05C1848.27 3077.28 1849 3088.1 1850.1 3103.5C1851.57 3118.53 1854.13 3136.87 1857.8 3158.5C1861.47 3180.13 1866.78 3203.6 1873.75 3228.9C1880.72 3254.2 1890.07 3280.23 1901.8 3307C1913.53 3333.77 1928.02 3359.8 1945.25 3385.1C1962.48 3410.4 1983.2 3433.87 2007.4 3455.5C2031.6 3476.77 2060.02 3494.73 2092.65 3509.4C2086.42 3514.17 2080.37 3519.67 2074.5 3525.9C2069 3532.5 2064.42 3538.55 2060.75 3544.05C2027.75 3528.28 1998.6 3509.03 1973.3 3486.3C1948.37 3463.2 1926.92 3438.27 1908.95 3411.5C1891.35 3384.37 1876.5 3356.68 1864.4 3328.45C1852.67 3300.22 1843.13 3272.72 1835.8 3245.95C1828.47 3218.82 1822.97 3193.7 1819.3 3170.6C1815.63 3147.13 1813.07 3127.15 1811.6 3110.65C1810.13 3093.78 1809.22 3081.68 1808.85 3074.35L1847.9 3071.05Z" fill="white"/>
<path d="M54.9889 2914.99H2507.03C2537.27 2914.99 2562.01 2887.08 2562.01 2852.97V2205.47C2562.01 2181.28 2549.36 2158.96 2529.57 2149.03L1775.27 1768.22C1823.65 1701.86 1861.58 1624.96 1886.32 1539.99C2121.08 1498.43 2584 1383.07 2584 1121.97C2584 1026.46 2521.32 950.79 2431.16 890.629L1323.89 11.174C1304.65 -3.711 1279.36 -3.711 1260.67 11.174L186.937 869.542C78.6296 932.183 0.010376 1014.67 0.010376 1121.97C0.010376 1383.7 462.929 1498.43 697.688 1539.99C720.786 1619.85 756.348 1694.41 802.697 1760.16L32.4477 2149.03C12.6554 2158.96 0.010376 2181.28 0.010376 2205.47V2852.97C0.010376 2887.08 24.7507 2914.99 54.9889 2914.99ZM919.251 1886.06C913.753 1917.07 898.909 1944.36 879.117 1964.83L799.398 1897.85L884.615 1855.05C895.61 1865.6 907.156 1876.14 919.251 1886.06ZM790.601 2045.46V2128.57C818.64 2128.57 845.03 2122.36 869.77 2112.44L1674.11 2790.95H1299.7L475.574 2060.96L684.493 1955.53L790.601 2045.46ZM2452.05 2790.95H1857.73L967.632 2039.88C987.974 2014.45 1004.47 1985.3 1015.46 1952.43C1099.58 1998.94 1193.59 2025.61 1292.01 2025.61C1390.42 2025.61 1484.43 1998.94 1568.55 1952.43C1603.18 2055.38 1690.6 2128.57 1793.41 2128.57V2004.52C1730.18 2004.52 1676.85 1953.67 1664.76 1886.06C1674.11 1878.62 1682.9 1870.56 1691.7 1861.88L2451.5 2245.16V2790.95H2452.05ZM1913.26 1409.74C1916.56 1379.97 1918.21 1349.58 1918.21 1319.19V836.051C2127.13 876.985 2278.32 934.664 2369.58 994.204L2433.36 1045.06V1044.44C2460.3 1071.73 2473.49 1098.4 2473.49 1122.59C2474.04 1213.76 2281.62 1338.42 1913.26 1409.74ZM1292.56 137.697L2048.51 738.058C1981.44 721.313 1919.31 709.529 1871.48 701.466C1690.05 670.456 1495.43 654.95 1292.01 654.95C1241.43 654.95 1190.84 656.191 1141.36 658.051C992.372 663.633 848.878 678.518 712.532 701.466C666.9 708.908 607.523 720.692 543.748 736.198L1292.56 137.697ZM109.967 1121.97C109.967 1103.98 117.115 1085.37 131.959 1065.53L244.665 975.598C338.128 922.88 478.873 872.643 665.8 836.051V1319.19C665.8 1349.58 667.449 1379.97 670.748 1409.74C302.392 1338.42 109.967 1213.76 109.967 1121.97ZM775.757 1319.19V817.445L825.788 810.002L880.216 802.56C902.208 800.079 924.749 798.218 947.29 795.738L904.956 886.288L1152.91 1034.52L1204.59 924.741L982.476 792.016C992.922 791.396 1003.37 790.156 1014.36 788.915C1044.6 786.434 1074.84 785.194 1105.63 783.333C1121.02 782.713 1136.42 781.473 1151.81 780.853C1197.99 778.992 1244.72 778.372 1292.01 778.372C1339.29 778.372 1386.02 779.612 1432.2 780.853C1447.59 781.473 1462.99 782.713 1477.83 783.333C1508.62 784.574 1538.86 786.434 1569.1 788.915C1579.54 789.536 1589.99 790.776 1600.98 792.016L1378.87 924.741L1430.55 1034.52L1678.5 886.288L1636.17 795.738C1658.71 798.218 1681.25 800.079 1703.24 802.56L1758.22 810.002L1808.25 817.445V1319.19C1808.25 1370.67 1802.21 1420.91 1790.66 1469.28C1767.57 1567.9 1722.49 1655.35 1662.01 1724.81V1638.6C1662.01 1488.51 1553.7 1366.33 1421.2 1366.33H1358.53V1490.37H1421.2C1493.23 1490.37 1552.05 1556.73 1552.05 1638.6V1821.56C1475.08 1872.42 1386.02 1901.57 1291.46 1901.57C1197.44 1901.57 1108.38 1872.42 1030.86 1821.56V1638.6C1030.86 1599.29 1044.7 1561.58 1069.34 1533.79C1093.99 1505.99 1127.41 1490.37 1162.26 1490.37H1224.93V1366.33H1162.26C1029.21 1366.33 920.9 1488.51 920.9 1638.6V1724.81C859.241 1653.3 814.936 1565.09 792.251 1468.66C781.805 1420.91 775.757 1370.05 775.757 1319.19ZM109.967 2245.78L362.319 2118.64L1122.12 2790.95H109.967V2245.78Z" fill="white"/>
</svg>
