<svg width="2113" height="3691" viewBox="0 0 2113 3691" fill="none" xmlns="http://www.w3.org/2000/svg">
<path d="M1883.05 2097.58L1689.83 2033.15L1743.95 1888.76L1402.12 1791.1C1414.03 1780.77 1425.36 1769.83 1436.4 1758.4C1484.37 1744.04 1529.94 1721.67 1570.13 1691.51L1742.22 1562.44L1600.14 1526.91C1701.6 1498.87 1776.74 1406.68 1776.74 1296.44V1008.34C1829.7 1008.34 1872.77 965.268 1872.77 912.306V816.274C1872.77 763.312 1829.7 720.242 1776.74 720.242H1680.71V144.048C1680.71 64.6297 1616.08 0 1536.66 0H576.338C496.92 0 432.29 64.6297 432.29 144.048V720.242H336.258C283.296 720.242 240.225 763.312 240.225 816.274V912.306C240.225 965.268 283.296 1008.34 336.258 1008.34V1296.44C336.258 1406.68 411.403 1498.87 512.861 1526.91L370.781 1562.44L542.871 1691.51C583.06 1721.67 628.628 1744.04 676.596 1758.4C687.525 1769.81 698.964 1780.72 710.879 1791.1L369.053 1888.76L423.215 2033.15L229.998 2097.58C163.033 2119.8 104.777 2162.57 63.5117 2219.8C22.2469 2277.03 0.0736758 2345.81 0.144701 2416.36V2977H2112.85V2416.36C2112.93 2345.82 2090.76 2277.04 2049.5 2219.81C2008.25 2162.58 1950 2119.81 1883.05 2097.58ZM1583.19 1432.08C1584.15 1418.92 1584.68 1405.72 1584.68 1392.47V1161.22C1640.42 1181.1 1680.71 1233.92 1680.71 1296.44C1680.71 1359.48 1639.7 1412.63 1583.19 1432.08ZM1680.71 1105.62C1652.67 1084.4 1620.35 1068.5 1584.68 1061.25V1008.34H1680.71V1105.62ZM528.322 624.21H1344.6V528.177H528.322V144.048C528.322 117.543 549.881 96.0323 576.338 96.0323H1536.66C1563.12 96.0323 1584.68 117.543 1584.68 144.048V528.177H1440.63V624.21H1584.68V720.242H528.322V624.21ZM432.29 1296.44C432.29 1233.92 472.575 1181.1 528.322 1161.22V1392.47C528.322 1405.72 528.85 1418.97 529.811 1432.08C473.296 1412.63 432.29 1359.48 432.29 1296.44ZM432.29 1105.57V1008.34H528.322V1061.2C492.646 1068.5 460.331 1084.35 432.29 1105.57ZM336.258 912.306V816.274H1776.74L1776.79 912.306H336.258ZM1488.64 1008.34V1392.47C1488.64 1422.72 1484.42 1452.34 1478.27 1481.59C1442.93 1462.19 1410.19 1438.13 1381.47 1409.42C1339.51 1367.5 1283.81 1344.45 1224.56 1344.45C1165.3 1344.45 1109.61 1367.5 1067.64 1409.47L1056.5 1420.61L1045.36 1409.47C1003.39 1367.5 947.695 1344.45 888.443 1344.45C829.191 1344.45 773.492 1367.5 731.526 1409.47C702.813 1438.18 670.066 1462.24 634.726 1481.59C628.58 1452.34 624.354 1422.72 624.354 1392.47V1008.34H1488.64ZM600.538 1614.69L588.678 1605.8C668.165 1580.39 740.421 1536.33 799.421 1477.31C847.005 1429.78 929.833 1429.78 977.417 1477.31L1056.5 1556.39L1135.53 1477.36C1183.12 1429.82 1265.95 1429.82 1313.53 1477.36C1372.56 1536.35 1444.8 1580.4 1524.27 1605.85L1512.41 1614.73C1403.56 1696.36 1245.16 1700.78 1132.08 1625.3L1056.5 1574.83L980.874 1625.25C867.844 1700.73 709.439 1696.31 600.538 1614.69ZM1056.5 1968.66C1017.75 1968.66 982.699 1984.22 956.77 2009.19L816.419 1938.99V1862.07C890.028 1899.71 971.991 1920.65 1056.5 1920.65C1141.01 1920.65 1222.92 1899.71 1296.58 1862.11V1938.99L1156.23 2009.19C1130.3 1984.22 1095.25 1968.66 1056.5 1968.66ZM1104.52 2112.71C1104.52 2139.21 1082.96 2160.73 1056.5 2160.73C1030.04 2160.73 1008.48 2139.21 1008.48 2112.71C1008.48 2086.2 1030.04 2064.69 1056.5 2064.69C1082.96 2064.69 1104.52 2086.2 1104.52 2112.71ZM914.228 2130.14L768.403 2203.08V2022.34L914.228 2095.23C913.508 2101.04 912.451 2106.76 912.451 2112.71C912.451 2118.66 913.508 2124.38 914.228 2130.14ZM852.239 1772.61C917.109 1764.35 979.242 1741.79 1034.17 1705.1L1056.5 1690.26L1078.83 1705.15C1133.76 1741.79 1195.89 1764.35 1260.76 1772.66C1198.53 1806.08 1128.67 1824.61 1056.5 1824.61C984.331 1824.61 914.468 1806.08 852.239 1772.61ZM1198.77 2095.28L1344.6 2022.34V2203.08L1198.77 2130.14C1199.49 2124.38 1200.55 2118.66 1200.55 2112.71C1200.55 2106.76 1199.49 2101.04 1198.77 2095.28ZM432.29 2880.97V2400.81H336.258V2880.97H96.177V2416.36C96.1307 2365.97 111.968 2316.83 141.439 2275.95C170.91 2235.07 212.515 2204.51 260.344 2188.62L456.922 2123.08L536.821 2336.13L653.836 2414.11L567.263 2543.99L777.814 2880.97H432.29ZM891.036 2880.97L681.445 2545.72L786.937 2387.51L615.856 2273.42L495.527 1952.53L720.387 1888.28V1920.65H672.371V2304.77H779.735L800.382 2294.45L946.975 2880.97H891.036ZM1045.98 2880.97L888.347 2250.47L956.77 2216.23C982.699 2241.2 1017.75 2256.76 1056.5 2256.76C1095.25 2256.76 1130.3 2241.2 1156.23 2216.23L1224.65 2250.47L1067.02 2880.97H1045.98ZM1165.98 2880.97L1312.62 2294.45L1333.26 2304.77H1440.63V1920.65H1392.61V1888.28L1617.47 1952.53L1497.14 2273.42L1326.06 2387.51L1431.51 2545.72L1221.92 2880.97H1165.98ZM2016.82 2880.97H1776.74V2400.81H1680.71V2880.97H1335.19L1545.74 2543.99L1459.16 2414.11L1576.18 2336.13L1656.08 2123.08L1852.66 2188.62C1900.48 2204.52 1942.08 2235.07 1971.55 2275.96C2001.02 2316.84 2016.86 2365.97 2016.82 2416.36V2880.97Z" fill="white"/>
<path d="M258.371 3536V3156.5H493.221V3198.85H306.771V3322.6H460.221V3364.4H306.771V3493.65H493.221V3536H258.371ZM556.325 3536V3261H602.525V3279.7C608.759 3276.03 616.459 3272.37 625.625 3268.7C635.159 3265.03 645.059 3261.92 655.325 3259.35C665.959 3256.78 676.042 3255.5 685.575 3255.5C704.642 3255.5 720.225 3258.07 732.325 3263.2C744.792 3267.97 754.325 3275.85 760.925 3286.85C767.892 3297.48 772.659 3311.42 775.225 3328.65C778.159 3345.52 779.625 3366.23 779.625 3390.8V3536H732.875V3392.45C732.875 3369.35 731.409 3350.83 728.475 3336.9C725.909 3322.97 720.592 3312.88 712.525 3306.65C704.825 3300.42 692.725 3297.3 676.225 3297.3C667.425 3297.3 658.259 3298.4 648.725 3300.6C639.559 3302.43 630.942 3304.82 622.875 3307.75C614.809 3310.68 608.025 3313.62 602.525 3316.55V3536H556.325ZM961.147 3664.7C932.547 3664.7 909.447 3662.32 891.847 3657.55C874.247 3652.78 861.23 3644.35 852.797 3632.25C844.73 3620.15 840.697 3603.65 840.697 3582.75C840.697 3572.12 842.347 3562.95 845.647 3555.25C848.947 3547.92 853.713 3541.13 859.947 3534.9C866.18 3528.3 874.063 3521.52 883.597 3514.55C878.83 3510.88 874.98 3505.75 872.047 3499.15C869.48 3492.18 868.197 3484.48 868.197 3476.05C868.197 3473.48 869.113 3469.63 870.947 3464.5C873.147 3459.37 875.713 3454.05 878.647 3448.55C881.947 3442.68 884.88 3437.37 887.447 3432.6C879.747 3428.93 872.597 3423.98 865.997 3417.75C859.763 3411.15 854.63 3402.35 850.597 3391.35C846.563 3380.35 844.547 3366.42 844.547 3349.55C844.547 3326.82 848.763 3308.67 857.197 3295.1C865.997 3281.17 878.28 3271.08 894.047 3264.85C909.813 3258.62 928.147 3255.5 949.047 3255.5C958.947 3255.5 969.397 3256.23 980.397 3257.7C991.397 3259.17 1000.01 3260.63 1006.25 3262.1L1089.3 3260.45V3298.4L1038.7 3297.3C1043.83 3302.43 1048.05 3309.22 1051.35 3317.65C1054.65 3325.72 1056.3 3336.35 1056.3 3349.55C1056.3 3373.75 1052.26 3392.63 1044.2 3406.2C1036.13 3419.77 1024.03 3429.3 1007.9 3434.8C992.13 3440.3 972.147 3443.05 947.947 3443.05C945.38 3443.05 940.98 3442.87 934.747 3442.5C928.88 3441.77 924.48 3441.22 921.547 3440.85C919.713 3445.62 917.697 3451.3 915.497 3457.9C913.297 3464.13 912.197 3468.35 912.197 3470.55C912.197 3476.05 912.747 3480.27 913.847 3483.2C915.313 3486.13 918.247 3488.52 922.647 3490.35C927.047 3492.18 933.647 3493.47 942.447 3494.2C951.247 3494.57 963.347 3494.75 978.747 3494.75C1004.78 3494.75 1025.68 3496.95 1041.45 3501.35C1057.21 3505.75 1068.4 3513.82 1075 3525.55C1081.96 3536.92 1085.45 3553.6 1085.45 3575.6C1085.45 3607.13 1074.45 3629.87 1052.45 3643.8C1030.81 3657.73 1000.38 3664.7 961.147 3664.7ZM961.147 3626.2C987.913 3626.2 1007.53 3622.35 1020 3614.65C1032.46 3607.32 1038.7 3595.22 1038.7 3578.35C1038.7 3565.52 1036.5 3555.98 1032.1 3549.75C1028.06 3543.88 1021.28 3539.85 1011.75 3537.65C1002.21 3535.82 989.38 3534.9 973.247 3534.9C969.58 3534.9 964.813 3534.9 958.947 3534.9C953.447 3534.53 947.58 3534.35 941.347 3534.35C935.48 3533.98 929.98 3533.62 924.847 3533.25C920.08 3532.88 916.78 3532.7 914.947 3532.7C907.98 3537.83 902.297 3542.6 897.897 3547C893.497 3551.4 890.38 3555.98 888.547 3560.75C887.08 3565.52 886.347 3571.38 886.347 3578.35C886.347 3589.72 888.363 3598.88 892.397 3605.85C896.797 3612.82 904.497 3617.95 915.497 3621.25C926.497 3624.55 941.713 3626.2 961.147 3626.2ZM949.047 3406.2C971.047 3406.2 986.63 3401.98 995.797 3393.55C1004.96 3384.75 1009.55 3370.08 1009.55 3349.55C1009.55 3329.02 1004.96 3314.35 995.797 3305.55C986.63 3296.75 971.047 3292.35 949.047 3292.35C928.513 3292.35 913.663 3296.75 904.497 3305.55C895.697 3314.35 891.297 3329.02 891.297 3349.55C891.297 3370.08 895.697 3384.75 904.497 3393.55C913.663 3401.98 928.513 3406.2 949.047 3406.2ZM1140.23 3536V3142.2H1186.98V3536H1140.23ZM1266.92 3536V3261H1313.12V3536H1266.92ZM1266.92 3202.7V3151.55H1313.12V3202.7H1266.92ZM1477.37 3541.5C1468.57 3541.5 1457.94 3540.95 1445.47 3539.85C1433.37 3538.75 1421.45 3537.47 1409.72 3536C1397.99 3534.17 1387.54 3532.52 1378.37 3531.05L1381.12 3491.45C1390.29 3492.55 1400.55 3493.83 1411.92 3495.3C1423.65 3496.77 1435.02 3498.05 1446.02 3499.15C1457.02 3499.88 1466 3500.25 1472.97 3500.25C1487.27 3500.25 1499.19 3498.97 1508.72 3496.4C1518.25 3493.83 1525.4 3489.43 1530.17 3483.2C1535.3 3476.97 1537.87 3467.98 1537.87 3456.25C1537.87 3447.45 1535.85 3440.67 1531.82 3435.9C1528.15 3431.13 1521.19 3427.1 1510.92 3423.8C1501.02 3420.5 1486.35 3417.57 1466.92 3415C1446.39 3411.7 1429.15 3407.48 1415.22 3402.35C1401.65 3397.22 1391.57 3389.7 1384.97 3379.8C1378.74 3369.9 1375.62 3355.78 1375.62 3337.45C1375.62 3316.55 1380.39 3300.23 1389.92 3288.5C1399.45 3276.4 1411.92 3267.97 1427.32 3263.2C1442.72 3258.07 1458.85 3255.5 1475.72 3255.5C1486.35 3255.5 1497.9 3256.05 1510.37 3257.15C1522.84 3258.25 1534.94 3259.72 1546.67 3261.55C1558.4 3263.02 1568.49 3264.48 1576.92 3265.95L1575.82 3305.55C1567.02 3304.08 1556.57 3302.8 1544.47 3301.7C1532.74 3300.23 1521 3299.13 1509.27 3298.4C1497.54 3297.3 1487.27 3296.75 1478.47 3296.75C1467.84 3296.75 1458.3 3297.85 1449.87 3300.05C1441.44 3302.25 1434.65 3306.28 1429.52 3312.15C1424.75 3317.65 1422.37 3325.35 1422.37 3335.25C1422.37 3342.95 1424.2 3349.18 1427.87 3353.95C1431.54 3358.72 1438.32 3362.75 1448.22 3366.05C1458.12 3368.98 1472.6 3372.1 1491.67 3375.4C1514.4 3379.07 1532.55 3383.65 1546.12 3389.15C1560.05 3394.65 1570.14 3402.53 1576.37 3412.8C1582.6 3422.7 1585.72 3436.63 1585.72 3454.6C1585.72 3475.87 1581.32 3492.92 1572.52 3505.75C1563.72 3518.58 1551.25 3527.75 1535.12 3533.25C1519.35 3538.75 1500.1 3541.5 1477.37 3541.5ZM1646.66 3536V3142.2H1692.86V3275.3C1699.46 3272.37 1707.34 3269.43 1716.51 3266.5C1726.04 3263.2 1735.94 3260.63 1746.21 3258.8C1756.84 3256.6 1766.74 3255.5 1775.91 3255.5C1794.97 3255.5 1810.56 3258.07 1822.66 3263.2C1835.12 3267.97 1844.66 3275.85 1851.26 3286.85C1858.22 3297.48 1862.99 3311.42 1865.56 3328.65C1868.12 3345.52 1869.41 3366.05 1869.41 3390.25V3536H1822.66V3392.45C1822.66 3369.35 1821.19 3350.83 1818.26 3336.9C1815.69 3322.97 1810.56 3312.88 1802.86 3306.65C1795.16 3300.42 1783.06 3297.3 1766.56 3297.3C1757.76 3297.3 1748.59 3298.22 1739.06 3300.05C1729.89 3301.52 1721.27 3303.53 1713.21 3306.1C1705.14 3308.3 1698.36 3310.5 1692.86 3312.7V3536H1646.66Z" fill="white"/>
<path d="M1296.58 1248.42C1323.1 1248.42 1344.6 1226.92 1344.6 1200.4C1344.6 1173.88 1323.1 1152.39 1296.58 1152.39C1270.06 1152.39 1248.56 1173.88 1248.56 1200.4C1248.56 1226.92 1270.06 1248.42 1296.58 1248.42Z" fill="white"/>
<path d="M816.418 1248.42C842.937 1248.42 864.435 1226.92 864.435 1200.4C864.435 1173.88 842.937 1152.39 816.418 1152.39C789.9 1152.39 768.402 1173.88 768.402 1200.4C768.402 1226.92 789.9 1248.42 816.418 1248.42Z" fill="white"/>
</svg>
