<svg width="56" height="54" viewBox="0 0 56 54" fill="none" xmlns="http://www.w3.org/2000/svg">
<path id="element" d="M32.0863 4.27773C30.4779 0.7908 25.5221 0.790808 23.9137 4.27773L18.8772 15.197C18.6587 15.6707 18.2097 15.9969 17.6917 16.0583L5.75044 17.4741C1.93717 17.9263 0.405751 22.6395 3.225 25.2467L12.0535 33.411C12.4365 33.7652 12.6079 34.2929 12.5063 34.8046L10.1628 46.5989C9.41439 50.3652 13.4237 53.2782 16.7745 51.4026L27.2673 45.5291C27.7225 45.2743 28.2775 45.2743 28.7327 45.5291L39.2255 51.4026C42.5763 53.2782 46.5856 50.3652 45.8372 46.5989L43.4937 34.8046C43.3921 34.2929 43.5635 33.7652 43.9465 33.411L52.775 25.2467C55.5943 22.6395 54.0628 17.9263 50.2496 17.4741L38.3083 16.0583C37.7903 15.9969 37.3413 15.6707 37.1228 15.197L32.0863 4.27773Z" fill="#FF710F" stroke="white" stroke-width="3"/>
</svg>
