<svg width="70" height="70" viewBox="0 0 70 70" fill="none" xmlns="http://www.w3.org/2000/svg">
<g id="crown" clip-path="url(#clip0_1353_40355)">
<path id="element" d="M43.6537 54.4529C55.6432 48.8621 64.1391 41.7061 62.6299 38.4696C61.1207 35.2331 50.1779 37.1417 38.1884 42.7324C26.1989 48.3232 17.7029 55.4792 19.2122 58.7157C20.7214 61.9522 31.6642 60.0437 43.6537 54.4529Z" fill="#F2F2F2"/>
<path id="element_2" d="M29.3248 23.1738C29.309 23.2219 29.2831 23.2676 29.2471 23.3068L28.9348 23.6498C28.7345 23.3675 28.9992 22.9532 29.1603 22.7455C29.3008 22.8327 29.3813 23.0036 29.3248 23.1738Z" fill="#FAD1B4"/>
<path id="element_3" d="M19.5899 42.8995C20.2617 40.6863 19.8982 35.5145 18.4779 33.2373L20.6274 32.235C20.6274 32.235 23.1536 35.2691 27.4426 36.5491L25.0678 39.9676C23.8178 41.767 21.7804 42.8575 19.5899 42.8995Z" fill="#FFB902"/>
<path id="element_4" d="M19.7732 33.8098C21.3125 33.092 21.9785 31.2623 21.2607 29.723C20.5429 28.1837 18.7132 27.5177 17.1739 28.2355C15.6346 28.9533 14.9686 30.783 15.6864 32.3223C16.4042 33.8616 18.2339 34.5276 19.7732 33.8098Z" fill="#FFB902"/>
<path id="element_5" d="M21.2601 29.7242C21.9775 31.2627 21.3112 33.0928 19.773 33.8101C18.5274 34.391 17.091 34.0664 16.2095 33.1049C17.0533 33.607 18.1235 33.6959 19.0815 33.2492C20.6199 32.5318 21.2859 30.7016 20.568 29.162C20.4309 28.868 20.2543 28.6065 20.0442 28.3808C20.5583 28.685 20.9889 29.1425 21.2601 29.7242Z" fill="#F2A807"/>
<path id="element_6" opacity="0.5" d="M16.7965 29.3256C17.3647 28.285 19.1196 28.1713 19.5492 29.3863C18.5147 28.8995 17.8605 29.0674 16.7965 29.3256Z" fill="white"/>
<path id="element_7" d="M50.363 28.5485C48.2358 27.6406 44.5076 24.0378 43.6761 21.486L41.5266 22.4883C41.5266 22.4883 42.2271 26.3738 40.4507 30.4821L44.5959 30.8603C46.7778 31.0594 48.9226 30.1996 50.363 28.5485Z" fill="#FFB902"/>
<path id="element_8" d="M43.282 22.8469C44.8213 22.1291 45.4873 20.2994 44.7695 18.7601C44.0517 17.2208 42.222 16.5548 40.6827 17.2726C39.1434 17.9904 38.4774 19.8201 39.1952 21.3594C39.913 22.8987 41.7427 23.5647 43.282 22.8469Z" fill="#FFB902"/>
<path id="element_9" d="M44.9115 19.1237C45.3776 20.576 44.7018 22.184 43.2828 22.8457C41.7431 23.5636 39.913 22.8975 39.1956 21.3591C38.989 20.9161 38.8978 20.449 38.9078 19.9909C38.9463 20.1137 38.9943 20.2367 39.0505 20.3573C39.7679 21.8957 41.598 22.5618 43.1377 21.8439C44.2342 21.3327 44.888 20.2571 44.9115 19.1237Z" fill="#F2A807"/>
<path id="element_10" opacity="0.5" d="M43.3438 18.3552C42.7948 17.3044 41.0422 17.1587 40.5904 18.3656C41.6335 17.8977 42.2845 18.0777 43.3438 18.3552Z" fill="white"/>
<path id="element_11" d="M53.815 16.8649L54.4448 20.7969L55.1624 25.2696C55.1624 25.2696 55.887 31.2055 56.8638 33.2231L59.5345 38.9504L21.5705 56.6533L18.8998 50.926C17.9821 48.8807 13.9007 44.5102 13.9007 44.5102L10.9357 41.0855L8.32969 38.075C7.91049 37.5919 8.03109 36.8477 8.5795 36.5186C8.64451 36.4804 8.71093 36.4449 8.78021 36.4126C9.96799 35.8587 11.4167 36.4542 12.0173 37.7422C12.4424 38.6538 12.3293 39.6682 11.8039 40.3791C11.8782 40.4444 11.9947 40.5433 12.0691 40.6056C15.0245 43.0812 19.2644 43.249 22.5175 41.1801C31.6328 35.3819 26.8697 21.5066 26.8697 21.5066L29.2056 20.4174C29.2056 20.4174 36.7718 32.9856 47.0726 29.7299C50.7486 28.5677 53.3453 25.2117 53.3486 21.3566C53.3487 21.2596 53.3479 21.1068 53.3455 21.0079C52.4633 20.9534 51.6136 20.3882 51.1884 19.4764C50.5878 18.1884 51.0628 16.6958 52.2506 16.142C52.3199 16.1097 52.3911 16.0811 52.4621 16.0558C53.0655 15.8478 53.7129 16.2339 53.815 16.8649Z" fill="#FFB902"/>
<path id="element_12" d="M53.3822 16.1828C53.2618 16.1794 53.1397 16.1959 53.0188 16.2381C52.9477 16.2634 52.8766 16.292 52.8073 16.3243C51.6195 16.8782 51.1444 18.3707 51.745 19.6586C52.0288 20.2673 52.5013 20.7208 53.0466 20.9714C52.2755 20.8229 51.5657 20.2863 51.189 19.4785C50.5884 18.1905 51.0634 16.698 52.2512 16.1441C52.3205 16.1118 52.3917 16.0832 52.4627 16.0579C52.7871 15.946 53.1233 16.0065 53.3822 16.1828Z" fill="#FFCD5C"/>
<path id="element_13" d="M12.093 39.8595C12.1786 39.3458 12.1121 38.7906 11.869 38.2693C11.2684 36.9812 9.81964 36.3857 8.63186 36.9396C8.56258 36.9719 8.49624 37.0076 8.43114 37.0456C8.28103 37.1359 8.16352 37.2563 8.07941 37.3942C8.0824 37.052 8.25767 36.7138 8.5799 36.5198C8.64492 36.4816 8.71134 36.446 8.78062 36.4137C9.9684 35.8599 11.4171 36.4554 12.0177 37.7434C12.3477 38.4509 12.3533 39.2206 12.093 39.8595Z" fill="#FFCD5C"/>
<path id="element_14" d="M53.3459 21.0084C53.6884 21.7403 53.794 22.564 53.6291 23.355C52.9431 26.6454 50.6645 29.9178 47.6107 30.8836C37.3098 34.1392 29.7436 21.571 29.7436 21.571L27.4078 22.6602C27.4078 22.6602 32.1709 36.5355 23.0556 42.3338C20.6849 43.8412 17.7901 44.1607 15.2511 43.2654C13.7938 42.7521 12.5811 41.7136 11.8043 40.3796C11.8786 40.445 11.9951 40.5438 12.0695 40.6061C15.0249 43.0817 19.2648 43.2495 22.5179 41.1806C31.6332 35.3825 26.8701 21.5072 26.8701 21.5072L29.2059 20.418C29.2059 20.418 36.7722 32.9861 47.073 29.7304C50.7489 28.5682 53.3457 25.2123 53.349 21.3571C53.3491 21.2601 53.3483 21.1074 53.3459 21.0084Z" fill="#FFCD5C"/>
<path id="element_15" d="M59.5353 38.952C60.052 40.0601 59.2034 41.7034 57.3415 43.5879C55.9776 44.9711 54.067 46.4829 51.7497 48.0073C49.7113 49.3487 47.3574 50.7011 44.785 51.9835C44.179 52.2863 43.5617 52.5853 42.9325 52.8787L42.9119 52.8883C41.2002 53.6865 39.5137 54.3979 37.8835 55.0189C36.4979 55.5477 35.1534 56.0104 33.8686 56.4033C31.6621 57.079 29.6327 57.5516 27.8827 57.8017C24.5119 58.284 22.172 57.943 21.5714 56.655C20.2642 53.8517 27.7022 47.6147 38.1852 42.7247C48.6694 37.8374 58.2281 36.1486 59.5353 38.952Z" fill="#FFB902"/>
<path id="element_16" d="M57.836 35.3088L58.3306 36.3695C58.4034 37.5143 57.413 39.055 55.6209 40.7771C52.6797 43.6056 47.5789 46.9222 41.4811 49.7672L41.4605 49.7768C35.3616 52.6192 29.5422 54.3948 25.4849 54.8298C23.0137 55.0956 21.197 54.8641 20.3667 54.0724L19.8721 53.0117C21.1626 54.2469 24.8628 54.1192 29.6969 52.8657C33.0497 51.9962 36.9474 50.5853 40.9648 48.7136L40.9853 48.704C45.0015 46.8297 48.5878 44.7509 51.4089 42.7412C55.4764 39.8438 57.9529 37.0913 57.836 35.3088Z" fill="#F2A807"/>
<path id="element_17" d="M29.0474 23.1307C31.1777 22.1373 32.0994 19.6051 31.106 17.4748C30.1126 15.3445 27.5804 14.4228 25.45 15.4162C23.3197 16.4095 22.3981 18.9418 23.3914 21.0721C24.3848 23.2024 26.9171 24.1241 29.0474 23.1307Z" fill="#FFB902"/>
<path id="element_18" d="M31.4532 18.6172C31.7399 20.4423 30.8053 22.3102 29.0472 23.13C26.9169 24.1234 24.3842 23.2016 23.3908 21.0712C22.986 20.2031 22.9 19.2709 23.0821 18.4011C23.1411 18.7894 23.2569 19.1749 23.4305 19.5472C24.4239 21.6776 26.9551 22.6 29.0855 21.6066C30.3508 21.0168 31.1892 19.8848 31.4532 18.6172Z" fill="#F2A807"/>
<path id="element_19" d="M55.8912 40.4771L57.3415 43.5872C55.9776 44.9705 54.067 46.4822 51.7498 48.0066L50.2989 44.8953C52.6161 43.3708 54.5268 41.8591 55.8912 40.4771Z" fill="#FFCD5C"/>
<path id="element_20" d="M43.3342 48.8728L44.785 51.9842C44.179 52.287 43.5617 52.586 42.9325 52.8794L42.9119 52.889C41.2002 53.6872 39.5137 54.3986 37.8835 55.0196L36.4326 51.9082C38.0628 51.2871 39.7494 50.5758 41.4611 49.7776L41.4816 49.768C42.1108 49.4746 42.7282 49.1758 43.3342 48.8728Z" fill="#FFCD5C"/>
<path id="element_21" d="M32.4175 53.2911L33.8684 56.4025C31.6618 57.0782 29.6325 57.5507 27.8825 57.8008L26.4316 54.6895C28.1816 54.4392 30.2102 53.9685 32.4175 53.2911Z" fill="#FFCD5C"/>
<path id="element_22" opacity="0.5" d="M28.9596 17.0786C28.1817 15.5518 25.6508 15.3155 24.9803 17.0534C26.4947 16.3923 27.433 16.6618 28.9596 17.0786Z" fill="white"/>
<path id="element_23" d="M30.0691 38.007L32.686 43.619L38.8547 44.1587L42.4064 39.0864L39.7894 33.4744L33.6209 32.9348L30.0691 38.007Z" fill="#F2A807"/>
<path id="element_24" d="M31.04 38.0929L33.2451 42.8216L38.4429 43.2764L41.4356 39.0023L39.2306 34.2736L34.0328 33.8189L31.04 38.0929Z" fill="#F2A807"/>
<path id="element_25" d="M33.3901 38.2991L34.5981 40.8898L37.4456 41.1389L39.085 38.7975L37.877 36.2069L35.0296 35.9578L33.3901 38.2991Z" fill="#56992E"/>
<path id="element_26" d="M35.0298 35.9571L34.0328 33.8189L31.04 38.0929L33.3904 38.2984L35.0298 35.9571Z" fill="#5EBC31"/>
<path id="element_27" d="M34.5984 40.8899L33.2451 42.8224L31.04 38.0938L33.3903 38.2993L34.5984 40.8899Z" fill="#6CD342"/>
<path id="element_28" d="M37.8767 36.2076L39.23 34.2751L34.0322 33.8203L35.0293 35.9585L37.8767 36.2076Z" fill="#5AAD2F"/>
<path id="element_29" d="M41.4357 39.0038L39.0854 38.7983L37.8774 36.2077L39.2307 34.2752L41.4357 39.0038Z" fill="#6CD342"/>
<path id="element_30" d="M37.4458 41.139L38.4428 43.2772L41.4356 39.0031L39.0852 38.7976L37.4458 41.139Z" fill="#5EBC31"/>
<path id="element_31" d="M34.5984 40.8904L33.2451 42.8229L38.4429 43.2777L37.4458 41.1395L34.5984 40.8904Z" fill="#5AAD2F"/>
<path id="element_32" d="M39.6644 37.4337L38.1648 36.6464L38.0617 37.2237L37.777 36.7108L36.7058 37.9129L37.4572 36.4824L36.6882 36.4225L37.3928 36.0945L36.1684 35.1047L37.6213 35.7747L37.7245 35.1972L38.009 35.7102L39.059 34.526L38.3289 35.9388L39.1687 36.0065L38.3934 36.3266L39.6644 37.4337Z" fill="white"/>
</g>
<defs>
<clipPath id="clip0_1353_40355">
<rect width="52" height="52" fill="white" transform="translate(0 22.3574) rotate(-25)"/>
</clipPath>
</defs>
</svg>
