<svg width="63" height="62" viewBox="0 0 63 62" fill="none" xmlns="http://www.w3.org/2000/svg">
<g id="madel icon">
<path id="Vector" d="M29.1005 1.52471C30.4754 0.825096 32.1686 0.825096 33.5434 1.52471L58.9225 14.4388C60.2973 15.1383 61.1439 16.4312 61.1439 17.8302V43.6588C61.1439 45.0576 60.2973 46.3503 58.9225 47.0502L33.5434 59.9642C32.1686 60.6642 30.4754 60.6642 29.1005 59.9642L3.72262 47.0502C2.34778 46.3503 1.5 45.0576 1.5 43.6588V17.8302C1.5 16.4312 2.34778 15.1383 3.72262 14.4388L29.1005 1.52471Z" fill="#E653AD"/>
<path id="Vector_2" fill-rule="evenodd" clip-rule="evenodd" d="M34.0805 1.83713C32.7057 1.13762 31.0113 1.13762 29.6365 1.83713L4.25856 14.7513C2.88372 15.4509 2.03711 16.7436 2.03711 18.1428V43.9707C2.03711 45.3706 2.88372 46.6632 4.25856 47.3621L29.6365 60.2761C31.0113 60.976 32.7057 60.976 34.0805 60.2761L59.4584 47.3621C59.9222 47.1267 60.3265 46.823 60.658 46.4709C61.1516 45.9454 60.4624 45.4242 59.7863 45.7563L35.199 57.8306C33.5988 58.6156 31.6146 58.4559 30.2028 57.426L11.2687 43.6155C10.248 42.8714 9.65777 41.7658 9.65777 40.5982V18.9854C9.65777 17.6752 10.4006 16.4518 11.6383 15.7257L32.5698 3.44245C32.9477 3.22038 33.3567 3.05423 33.78 2.94461C34.133 2.85329 34.3989 1.99929 34.0805 1.83713Z" fill="#C31B82"/>
<path id="Vector_3" d="M27.4788 18.6621C27.4561 20.8355 26.935 22.9823 25.9442 24.973C24.9545 26.9637 23.5176 28.757 21.7195 30.2445C20.0334 32.1234 19.2357 34.5031 19.4933 36.8874C19.7496 39.2717 21.041 41.4766 23.0979 43.0425C25.7033 44.621 28.8286 45.3934 31.986 45.239C35.1423 45.0834 38.1508 44.0094 40.5403 42.1849C48.6534 36.7507 42.8118 25.1683 36.8892 23.5954C36.8892 23.5954 37.7012 27.6706 34.6988 28.5286C34.6988 28.5286 33.5636 20.7355 27.4788 18.6621Z" fill="#C31B82"/>
<path id="Vector_4" d="M25.5743 16.875C25.5516 19.0484 25.0294 21.1952 24.0397 23.1859C23.05 25.1766 21.612 26.9699 19.8138 28.4574C18.129 30.3363 17.3312 32.716 17.5876 35.1003C17.8452 37.4847 19.1365 39.6897 21.1934 41.2556C23.7976 42.8341 26.9241 43.6065 30.0804 43.451C33.2367 43.2965 36.2463 42.2225 38.6347 40.397C46.7478 34.9636 40.9062 23.3811 34.9847 21.8083C34.9847 21.8083 35.7956 25.8835 32.7943 26.7415C32.7943 26.7415 31.6579 18.9484 25.5743 16.875Z" fill="#FFDCF1"/>
<path id="Vector_5" d="M23.0583 28.4601C25.944 25.787 27.8875 22.4345 28.6566 18.808C27.7862 18.007 26.7369 17.374 25.5743 16.9492C25.5493 19.1119 25.027 21.2476 24.0361 23.2265C23.0464 25.2053 21.6096 26.9861 19.8138 28.4601C18.129 30.339 17.3312 32.7187 17.5876 35.103C17.8452 37.4873 19.1365 39.692 21.1934 41.2579C24.0337 42.993 27.4952 43.756 30.9282 43.4029C28.5732 43.1654 26.3184 42.4297 24.3569 41.2579C22.3298 39.6731 21.0658 37.4649 20.825 35.0861C20.5841 32.7072 21.383 30.337 23.0583 28.4601Z" fill="white"/>
<path id="Vector_6" opacity="0.3" fill-rule="evenodd" clip-rule="evenodd" d="M30.085 1.77216C31.3251 1.3521 32.7273 1.44017 33.8995 2.03637L59.2785 14.9505C60.6534 15.65 61.5 16.9429 61.5 18.342V44.1705C61.5 45.5693 60.6534 46.8619 59.2785 47.5619L33.8995 60.4759C32.5246 61.1758 30.8314 61.1758 29.4566 60.4759L28.2129 59.8432L51.0975 47.8183C52.4342 47.1163 53.2569 45.8488 53.2653 44.4763L53.4405 16.5726C53.4489 15.2008 52.6428 13.9251 51.3145 13.2096L30.085 1.77216Z" fill="#C31B82"/>
<path id="Vector_7" d="M29.1005 1.52471C30.4754 0.825096 32.1686 0.825096 33.5434 1.52471L58.9225 14.4388C60.2973 15.1383 61.1439 16.4312 61.1439 17.8302V43.6588C61.1439 45.0576 60.2973 46.3503 58.9225 47.0502L33.5434 59.9642C32.1686 60.6642 30.4754 60.6642 29.1005 59.9642L3.72262 47.0502C2.34778 46.3503 1.5 45.0576 1.5 43.6588V17.8302C1.5 16.4312 2.34778 15.1383 3.72262 14.4388L29.1005 1.52471Z" stroke="#FF92D5" stroke-width="2"/>
</g>
</svg>
