<svg width="63" height="62" viewBox="0 0 63 62" fill="none" xmlns="http://www.w3.org/2000/svg">
<g id="madel icon">
<path id="Vector" d="M29.9958 1.23965C30.8655 0.920117 31.8174 0.920117 32.687 1.23965L49.5963 7.45547C50.4659 7.775 51.1963 8.39367 51.6586 9.20268L60.6556 24.9417C61.1179 25.7508 61.2836 26.6986 61.1232 27.6187L57.9982 45.5165C57.8378 46.4364 57.3608 47.27 56.6526 47.8705L42.8683 59.5524C42.159 60.1529 41.2641 60.4821 40.3385 60.4821H22.3443C21.4188 60.4821 20.5238 60.1529 19.8145 59.5524L6.03025 47.8705C5.32209 47.27 4.84503 46.4364 4.68461 45.5165L1.55963 27.6187C1.39921 26.6986 1.5649 25.7508 2.02716 24.9417L11.0243 9.20268C11.4866 8.39367 12.2169 7.775 13.0865 7.45547L29.9958 1.23965Z" fill="#209FB1"/>
<path id="Vector_2" fill-rule="evenodd" clip-rule="evenodd" d="M31.7005 2.42106C32.2472 2.05362 32.1047 1.27181 31.4504 1.33353C31.119 1.3649 30.7897 1.43903 30.471 1.55593L13.5616 7.77173C12.6931 8.09123 11.9627 8.70988 11.5005 9.51899L2.50232 25.258C2.04006 26.0671 1.87435 27.0149 2.03582 27.935L5.15977 45.8327C5.32124 46.7527 5.79725 47.5863 6.50541 48.1868L20.2907 59.8687C20.9989 60.4692 21.895 60.7984 22.8195 60.7984H40.8147C41.7392 60.7984 42.6353 60.4692 43.3434 59.8687L44.689 58.7282C45.2642 58.2408 44.9011 57.2943 44.1518 57.3252L34.9162 57.7062C33.9463 57.7462 32.9954 57.4225 32.2472 56.7971L14.5685 42.0218C13.6651 41.2669 13.1427 40.1444 13.1427 38.9603V17.0288C13.1427 15.6993 13.8002 14.458 14.8967 13.7212L31.7005 2.42106ZM50.1612 7.8055C50.4345 7.91369 50.6931 8.0518 50.9337 8.21637L50.1612 7.8055Z" fill="#047686"/>
<path id="Vector_3" opacity="0.3" fill-rule="evenodd" clip-rule="evenodd" d="M32.354 1.58008C32.5746 1.62 32.792 1.679 33.0041 1.75708L49.9134 7.97287C50.7831 8.29242 51.5123 8.91106 51.9756 9.72018L60.9728 25.4592C61.435 26.2682 61.6007 27.216 61.4403 28.1361L58.3153 46.0338C58.1549 46.9539 57.6778 47.7874 56.9697 48.388L43.1843 60.0698C42.4762 60.6703 41.5802 60.9996 40.6557 60.9996H35.6046L49.7045 48.6444C50.3883 48.0452 50.8464 47.2261 51.0015 46.3254L54.3355 27.0088C54.4885 26.1241 54.3397 25.2133 53.9144 24.4248L44.7453 7.43117C44.2988 6.6054 43.578 5.96601 42.7094 5.62666L32.354 1.58008Z" fill="#047686"/>
<path id="Vector_4" d="M17.7006 44.8233C27.3077 46.7205 38.4019 46.7205 48.009 44.8233C48.7457 44.6448 49.3915 44.2023 49.8242 43.5795C50.257 42.9568 50.4459 42.197 50.3562 41.4442V28.7727C50.2908 28.6553 50.1957 28.5575 50.0797 28.4894C49.9646 28.4213 49.8327 28.3854 49.6987 28.3854C49.5647 28.3854 49.4327 28.4213 49.3177 28.4894C49.2016 28.5575 49.1066 28.6553 49.0411 28.7727L41.0741 35.437C40.995 35.5349 40.8947 35.614 40.7807 35.6683C40.6667 35.7226 40.5422 35.7508 40.4166 35.7508C40.291 35.7508 40.1665 35.7226 40.0525 35.6683C39.9385 35.614 39.8393 35.5349 39.7602 35.437L32.9076 21.8268C32.8379 21.7299 32.7461 21.6511 32.6395 21.5966C32.534 21.5421 32.4168 21.5137 32.2976 21.5137C32.1783 21.5137 32.0601 21.5421 31.9545 21.5966C31.848 21.6511 31.7562 21.7299 31.6865 21.8268L25.2096 35.437C25.1315 35.5193 25.0365 35.5848 24.9321 35.6296C24.8265 35.6743 24.7136 35.6975 24.5996 35.6975C24.4856 35.6975 24.3727 35.6743 24.2683 35.6296C24.1638 35.5848 24.0687 35.5193 23.9896 35.437L16.5745 27.7402C16.4647 27.6529 16.3339 27.5977 16.1957 27.5808C16.0574 27.5639 15.916 27.5858 15.7893 27.6443C15.6627 27.7029 15.555 27.7955 15.478 27.9119C15.4009 28.0283 15.3577 28.1639 15.3534 28.3034V41.4442C15.2173 42.2034 15.3872 42.9859 15.8273 43.6196C16.2674 44.2531 16.9418 44.6861 17.7006 44.8233Z" fill="#047686"/>
<path id="Vector_5" d="M16.1883 41.4618C25.7954 43.3591 35.6811 43.3591 45.2883 41.4618C46.0249 41.2835 46.6708 40.841 47.1035 40.2182C47.5362 39.5954 47.7252 38.8356 47.6344 38.0829V25.4114C47.57 25.294 47.4739 25.1962 47.3589 25.1281C47.2428 25.0599 47.112 25.024 46.9779 25.024C46.8429 25.024 46.712 25.0599 46.5959 25.1281C46.4809 25.1962 46.3848 25.294 46.3204 25.4114L39.5617 32.0756C39.4826 32.1736 39.3824 32.2527 39.2684 32.3069C39.1555 32.3613 39.0309 32.3894 38.9043 32.3894C38.7787 32.3894 38.6541 32.3613 38.5412 32.3069C38.4272 32.2527 38.327 32.1736 38.2478 32.0756L31.3952 18.4655C31.3256 18.3686 31.2338 18.2896 31.1282 18.2353C31.0216 18.1808 30.9045 18.1523 30.7852 18.1523C30.666 18.1523 30.5488 18.1808 30.4422 18.2353C30.3356 18.2896 30.2449 18.3686 30.1752 18.4655L23.6983 32.0756C23.6192 32.1579 23.5242 32.2235 23.4197 32.2682C23.3152 32.313 23.2023 32.3361 23.0883 32.3361C22.9743 32.3361 22.8614 32.313 22.7559 32.2682C22.6514 32.2235 22.5564 32.1579 22.4773 32.0756L15.0622 24.3788C14.9535 24.2915 14.8226 24.2363 14.6833 24.2194C14.545 24.2024 14.4047 24.2245 14.278 24.283C14.1514 24.3414 14.0427 24.4342 13.9656 24.5506C13.8896 24.667 13.8464 24.8025 13.8421 24.9421V38.0829C13.7049 38.8421 13.876 39.6246 14.316 40.2581C14.7561 40.8918 15.4295 41.3248 16.1883 41.4618Z" fill="#A6FFFF"/>
<path id="Vector_6" fill-rule="evenodd" clip-rule="evenodd" d="M47.6345 30.1508V25.4114C47.5691 25.294 47.4741 25.1962 47.358 25.1281C47.243 25.0599 47.111 25.024 46.977 25.024C46.8429 25.024 46.7111 25.0599 46.596 25.1281C46.4799 25.1962 46.3849 25.294 46.3195 25.4114L39.6769 31.9618L41.2716 35.129C41.3507 35.2269 41.451 35.306 41.564 35.3603C41.6779 35.4145 41.8024 35.4428 41.928 35.4428C42.0547 35.4428 42.1793 35.4145 42.2922 35.3603C42.4062 35.306 42.5064 35.2269 42.5855 35.129L47.6345 30.1508ZM16.8206 41.5839C16.8237 41.4347 16.8385 41.2849 16.8659 41.1361V27.9954C16.8701 27.8559 16.9124 27.7203 16.9894 27.6039C17.0664 27.4874 17.1752 27.3948 17.3018 27.3363C17.4285 27.2778 17.5688 27.2558 17.7071 27.2727C17.7725 27.2807 17.8369 27.2972 17.8971 27.3217L15.0613 24.3788C14.9526 24.2915 14.8217 24.2363 14.6834 24.2194C14.5441 24.2024 14.4037 24.2245 14.2771 24.283C14.1504 24.3414 14.0428 24.4342 13.9658 24.5506C13.8887 24.667 13.8455 24.8025 13.8412 24.9421V38.0829C13.7051 38.8421 13.875 39.6246 14.3151 40.2581C14.7552 40.8918 15.4285 41.3248 16.1884 41.4618C16.3984 41.5035 16.6095 41.5441 16.8206 41.5839ZM22.7371 32.2602L25.501 35.129C25.5802 35.2113 25.6752 35.2768 25.7797 35.3216C25.8852 35.3663 25.9971 35.3894 26.1122 35.3894C26.2261 35.3894 26.338 35.3663 26.4435 35.3216C26.548 35.2768 26.643 35.2113 26.7222 35.129L33.0692 21.791L31.3943 18.4655C31.3257 18.3686 31.2339 18.2896 31.1273 18.2353C31.0217 18.1808 30.9036 18.1523 30.7843 18.1523C30.6651 18.1523 30.5479 18.1808 30.4413 18.2353C30.3358 18.2896 30.244 18.3686 30.1743 18.4655L23.6974 32.0756C23.6183 32.1579 23.5244 32.2235 23.4188 32.2682C23.3143 32.313 23.2014 32.3361 23.0874 32.3361C22.9734 32.3361 22.8605 32.313 22.756 32.2682C22.7497 32.2657 22.7434 32.2629 22.7371 32.2602Z" fill="white"/>
<path id="Vector_7" d="M29.9958 1.23965C30.8655 0.920117 31.8174 0.920117 32.687 1.23965L49.5963 7.45547C50.4659 7.775 51.1963 8.39367 51.6586 9.20268L60.6556 24.9417C61.1179 25.7508 61.2836 26.6986 61.1232 27.6187L57.9982 45.5165C57.8378 46.4364 57.3608 47.27 56.6526 47.8705L42.8683 59.5524C42.159 60.1529 41.2641 60.4821 40.3385 60.4821H22.3443C21.4188 60.4821 20.5238 60.1529 19.8145 59.5524L6.03025 47.8705C5.32209 47.27 4.84503 46.4364 4.68461 45.5165L1.55963 27.6187C1.39921 26.6986 1.5649 25.7508 2.02716 24.9417L11.0243 9.20268C11.4866 8.39367 12.2169 7.775 13.0865 7.45547L29.9958 1.23965Z" stroke="#4CE5E5" stroke-width="2"/>
</g>
</svg>
