<svg width="63" height="62" viewBox="0 0 63 62" fill="none" xmlns="http://www.w3.org/2000/svg">
<g id="madel icon">
<path id="Vector" d="M29.6085 1.40268C30.703 0.865772 31.9781 0.865772 33.0727 1.40268L53.8007 11.5691C54.8953 12.106 55.6909 13.1215 55.9612 14.328L61.0811 37.1718C61.3514 38.3783 61.0667 39.6445 60.3098 40.612L45.9655 58.9313C45.2076 59.8988 44.059 60.4623 42.8441 60.4623H19.8371C18.6222 60.4623 17.4736 59.8988 16.7157 58.9313L2.3713 40.612C1.61338 39.6445 1.32981 38.3783 1.60013 37.1718L6.7199 14.328C6.99023 13.1215 7.78485 12.106 8.88042 11.5691L29.6085 1.40268Z" fill="#6D63E6"/>
<path id="Vector_2" fill-rule="evenodd" clip-rule="evenodd" d="M31.4226 2.4634C31.9928 2.07682 31.8194 1.2701 31.1451 1.38874C30.784 1.45222 30.429 1.56671 30.0924 1.73221L9.3643 11.8985C8.26874 12.4355 7.47411 13.451 7.20379 14.6575L2.08402 37.5012C1.8137 38.7077 2.09726 39.9739 2.85518 40.9415L17.1996 59.2607C17.9575 60.2282 19.1061 60.7917 20.321 60.7917H43.328C44.5429 60.7917 45.6915 60.2282 46.4494 59.2607C46.732 58.8998 46.4667 58.3676 46.0138 58.3865L34.9684 58.8461C33.983 58.887 33.019 58.5557 32.259 57.9158L14.3199 42.796C13.4028 42.0235 12.8724 40.8749 12.8724 39.6632V17.2205C12.8724 15.86 13.5405 14.5896 14.6524 13.8357L31.4226 2.4634Z" fill="#473DBF"/>
<path id="Vector_3" opacity="0.3" fill-rule="evenodd" clip-rule="evenodd" d="M30.7749 1.63809C31.6471 1.43633 32.5702 1.5369 33.3914 1.93979L54.1195 12.1062C55.214 12.6431 56.0097 13.6586 56.28 14.8652L61.3998 37.7088C61.6701 38.9154 61.3856 40.1816 60.6287 41.1491L46.2843 59.4684C45.5263 60.4359 44.3777 60.9994 43.1628 60.9994H38.0216C38.2174 60.8255 38.398 60.631 38.5592 60.4176L53.4014 40.8243C54.1164 39.8795 54.3888 38.6623 54.145 37.4952L48.9925 12.7997C48.7426 11.6006 47.9745 10.5805 46.9024 10.0231L30.7749 1.63809Z" fill="#473DBF"/>
<path id="Vector_4" d="M29.6085 1.40268C30.703 0.865772 31.9781 0.865772 33.0727 1.40268L53.8007 11.5691C54.8953 12.106 55.6909 13.1215 55.9612 14.328L61.0811 37.1718C61.3514 38.3783 61.0667 39.6445 60.3098 40.612L45.9655 58.9313C45.2076 59.8988 44.059 60.4623 42.8441 60.4623H19.8371C18.6222 60.4623 17.4736 59.8988 16.7157 58.9313L2.3713 40.612C1.61338 39.6445 1.32981 38.3783 1.60013 37.1718L6.7199 14.328C6.99023 13.1215 7.78485 12.106 8.88042 11.5691L29.6085 1.40268Z" stroke="#C5C0FF" stroke-width="2"/>
<path id="Vector_5" d="M21.0784 37.6898L31.5873 17.8603C32.0422 17.0013 33.3224 17.3307 33.3224 18.3067V29.5737L45.6725 29.0323C46.407 29.0001 46.8824 29.8131 46.5039 30.4553L35.0361 49.9042C34.5547 50.7213 33.3224 50.3735 33.3224 49.4203V38.6704L21.923 39.0756C21.211 39.101 20.7397 38.3288 21.0784 37.6898Z" fill="#473DBF"/>
<path id="Vector_6" d="M18.6175 35.4945L29.1263 15.665C29.5813 14.806 30.8615 15.1353 30.8615 16.1114V27.3783L43.2116 26.8369C43.9461 26.8047 44.4214 27.6178 44.042 28.2599L32.5752 47.7088C32.0937 48.526 30.8615 48.1781 30.8615 47.225V36.4751L19.4621 36.8803C18.7501 36.9056 18.2788 36.1335 18.6175 35.4945Z" fill="#C5C0FF"/>
<path id="Vector_7" d="M18.6175 35.4945L29.1263 15.665C29.5813 14.806 30.8615 15.1353 30.8615 16.1114V27.3783L43.2116 26.8369C43.9461 26.8047 44.4214 27.6178 44.042 28.2599L32.5752 47.7088C32.0937 48.526 30.8615 48.1781 30.8615 47.225V36.4751L19.4621 36.8803C18.7501 36.9056 18.2788 36.1335 18.6175 35.4945Z" fill="#C5C0FF"/>
<path id="Vector_8" fill-rule="evenodd" clip-rule="evenodd" d="M20.1047 32.6895L18.6175 35.4947C18.2788 36.1339 18.7501 36.906 19.4621 36.8807L30.8615 36.4755V47.2254C30.8615 48.1785 32.0937 48.5264 32.5752 47.7092L34.2196 44.9201C33.6565 45.2451 32.8425 44.8701 32.8425 44.0957V32.8785L21.0014 33.299C20.576 33.3141 20.2363 33.0449 20.1047 32.6895Z" fill="#C5C0FF"/>
<path id="Vector_9" fill-rule="evenodd" clip-rule="evenodd" d="M20.1047 32.6895L18.6175 35.4947C18.2788 36.1339 18.7501 36.906 19.4621 36.8807L30.8615 36.4755V47.2254C30.8615 48.1785 32.0937 48.5264 32.5752 47.7092L34.2196 44.9201C33.6565 45.2451 32.8425 44.8701 32.8425 44.0957V32.8785L21.0014 33.299C20.576 33.3141 20.2363 33.0449 20.1047 32.6895Z" fill="white"/>
</g>
</svg>
