<svg width="61" height="60" viewBox="0 0 61 60" fill="none" xmlns="http://www.w3.org/2000/svg">
<g id="madel icon" clip-path="url(#clip0_3112_10497)">
<path id="Vector" d="M28.9958 0.239649C29.8655 -0.0798831 30.8174 -0.0798831 31.687 0.239649L48.5963 6.45547C49.4659 6.775 50.1963 7.39367 50.6586 8.20268L59.6556 23.9417C60.1179 24.7508 60.2836 25.6986 60.1232 26.6187L56.9982 44.5165C56.8378 45.4364 56.3608 46.27 55.6526 46.8705L41.8683 58.5524C41.159 59.1529 40.2641 59.4821 39.3385 59.4821H21.3443C20.4188 59.4821 19.5238 59.1529 18.8145 58.5524L5.03025 46.8705C4.32209 46.27 3.84503 45.4364 3.68461 44.5165L0.559632 26.6187C0.399214 25.6986 0.564901 24.7508 1.02716 23.9417L10.0243 8.20268C10.4866 7.39367 11.2169 6.775 12.0865 6.45547L28.9958 0.239649Z" fill="#209FB1"/>
<path id="Vector_2" fill-rule="evenodd" clip-rule="evenodd" d="M30.7005 1.42106C31.2472 1.05362 31.1047 0.271814 30.4504 0.333529C30.119 0.364898 29.7897 0.43903 29.471 0.555926L12.5616 6.77173C11.6931 7.09123 10.9627 7.70988 10.5005 8.51899L1.50232 24.258C1.04006 25.0671 0.874349 26.0149 1.03582 26.935L4.15977 44.8327C4.32124 45.7527 4.79725 46.5863 5.50541 47.1868L19.2907 58.8687C19.9989 59.4692 20.895 59.7984 21.8195 59.7984H39.8147C40.7392 59.7984 41.6353 59.4692 42.3434 58.8687L43.689 57.7282C44.2642 57.2408 43.9011 56.2943 43.1518 56.3252L33.9162 56.7062C32.9463 56.7462 31.9954 56.4225 31.2472 55.7971L13.5685 41.0218C12.6651 40.2669 12.1427 39.1444 12.1427 37.9603V16.0288C12.1427 14.6993 12.8002 13.458 13.8967 12.7212L30.7005 1.42106ZM49.1612 6.8055C49.4345 6.91369 49.6931 7.0518 49.9337 7.21637L49.1612 6.8055Z" fill="#047686"/>
<path id="Vector_3" opacity="0.3" fill-rule="evenodd" clip-rule="evenodd" d="M31.354 0.580078C31.5746 0.619996 31.792 0.679003 32.0041 0.75708L48.9134 6.97287C49.7831 7.29242 50.5123 7.91106 50.9756 8.72018L59.9728 24.4592C60.435 25.2682 60.6007 26.216 60.4403 27.1361L57.3153 45.0338C57.1549 45.9539 56.6778 46.7874 55.9697 47.388L42.1843 59.0698C41.4762 59.6703 40.5802 59.9996 39.6557 59.9996H34.6046L48.7045 47.6444C49.3883 47.0452 49.8464 46.2261 50.0015 45.3254L53.3355 26.0088C53.4885 25.1241 53.3397 24.2133 52.9144 23.4248L43.7453 6.43117C43.2988 5.6054 42.578 4.96601 41.7094 4.62666L31.354 0.580078Z" fill="#047686"/>
<path id="Vector_4" d="M16.7006 43.8233C26.3077 45.7205 37.4019 45.7205 47.009 43.8233C47.7457 43.6448 48.3915 43.2023 48.8242 42.5795C49.257 41.9568 49.4459 41.197 49.3562 40.4442V27.7727C49.2908 27.6553 49.1957 27.5575 49.0797 27.4894C48.9646 27.4213 48.8327 27.3854 48.6987 27.3854C48.5647 27.3854 48.4327 27.4213 48.3177 27.4894C48.2016 27.5575 48.1066 27.6553 48.0411 27.7727L40.0741 34.437C39.995 34.5349 39.8947 34.614 39.7807 34.6683C39.6667 34.7226 39.5422 34.7508 39.4166 34.7508C39.291 34.7508 39.1665 34.7226 39.0525 34.6683C38.9385 34.614 38.8393 34.5349 38.7602 34.437L31.9076 20.8268C31.8379 20.7299 31.7461 20.6511 31.6395 20.5966C31.534 20.5421 31.4168 20.5137 31.2976 20.5137C31.1783 20.5137 31.0601 20.5421 30.9545 20.5966C30.848 20.6511 30.7562 20.7299 30.6865 20.8268L24.2096 34.437C24.1315 34.5193 24.0365 34.5848 23.9321 34.6296C23.8265 34.6743 23.7136 34.6975 23.5996 34.6975C23.4856 34.6975 23.3727 34.6743 23.2683 34.6296C23.1638 34.5848 23.0687 34.5193 22.9896 34.437L15.5745 26.7402C15.4647 26.6529 15.3339 26.5977 15.1957 26.5808C15.0574 26.5639 14.916 26.5858 14.7893 26.6443C14.6627 26.7029 14.555 26.7955 14.478 26.9119C14.4009 27.0283 14.3577 27.1639 14.3534 27.3034V40.4442C14.2173 41.2034 14.3872 41.9859 14.8273 42.6196C15.2674 43.2531 15.9418 43.6861 16.7006 43.8233Z" fill="#047686"/>
<path id="Vector_5" d="M15.1883 40.4618C24.7954 42.3591 34.6811 42.3591 44.2883 40.4618C45.0249 40.2835 45.6708 39.841 46.1035 39.2182C46.5362 38.5954 46.7252 37.8356 46.6344 37.0829V24.4114C46.57 24.294 46.4739 24.1962 46.3589 24.1281C46.2428 24.0599 46.112 24.024 45.9779 24.024C45.8429 24.024 45.712 24.0599 45.5959 24.1281C45.4809 24.1962 45.3848 24.294 45.3204 24.4114L38.5617 31.0756C38.4826 31.1736 38.3824 31.2527 38.2684 31.3069C38.1555 31.3613 38.0309 31.3894 37.9043 31.3894C37.7787 31.3894 37.6541 31.3613 37.5412 31.3069C37.4272 31.2527 37.327 31.1736 37.2478 31.0756L30.3952 17.4655C30.3256 17.3686 30.2338 17.2896 30.1282 17.2353C30.0216 17.1808 29.9045 17.1523 29.7852 17.1523C29.666 17.1523 29.5488 17.1808 29.4422 17.2353C29.3356 17.2896 29.2449 17.3686 29.1752 17.4655L22.6983 31.0756C22.6192 31.1579 22.5242 31.2235 22.4197 31.2682C22.3152 31.313 22.2023 31.3361 22.0883 31.3361C21.9743 31.3361 21.8614 31.313 21.7559 31.2682C21.6514 31.2235 21.5564 31.1579 21.4773 31.0756L14.0622 23.3788C13.9535 23.2915 13.8226 23.2363 13.6833 23.2194C13.545 23.2024 13.4047 23.2245 13.278 23.283C13.1514 23.3414 13.0427 23.4342 12.9656 23.5506C12.8896 23.667 12.8464 23.8025 12.8421 23.9421V37.0829C12.7049 37.8421 12.876 38.6246 13.316 39.2581C13.7561 39.8918 14.4295 40.3248 15.1883 40.4618Z" fill="#A6FFFF"/>
<path id="Vector_6" fill-rule="evenodd" clip-rule="evenodd" d="M46.6345 29.1508V24.4114C46.5691 24.294 46.4741 24.1962 46.358 24.1281C46.243 24.0599 46.111 24.024 45.977 24.024C45.8429 24.024 45.7111 24.0599 45.596 24.1281C45.4799 24.1962 45.3849 24.294 45.3195 24.4114L38.6769 30.9618L40.2716 34.129C40.3507 34.2269 40.451 34.306 40.564 34.3603C40.6779 34.4145 40.8024 34.4428 40.928 34.4428C41.0547 34.4428 41.1793 34.4145 41.2922 34.3603C41.4062 34.306 41.5064 34.2269 41.5855 34.129L46.6345 29.1508ZM15.8206 40.5839C15.8237 40.4347 15.8385 40.2849 15.8659 40.1361V26.9954C15.8701 26.8559 15.9124 26.7203 15.9894 26.6039C16.0664 26.4874 16.1752 26.3948 16.3018 26.3363C16.4285 26.2778 16.5688 26.2558 16.7071 26.2727C16.7725 26.2807 16.8369 26.2972 16.8971 26.3217L14.0613 23.3788C13.9526 23.2915 13.8217 23.2363 13.6834 23.2194C13.5441 23.2024 13.4037 23.2245 13.2771 23.283C13.1504 23.3414 13.0428 23.4342 12.9658 23.5506C12.8887 23.667 12.8455 23.8025 12.8412 23.9421V37.0829C12.7051 37.8421 12.875 38.6246 13.3151 39.2581C13.7552 39.8918 14.4285 40.3248 15.1884 40.4618C15.3984 40.5035 15.6095 40.5441 15.8206 40.5839ZM21.7371 31.2602L24.501 34.129C24.5802 34.2113 24.6752 34.2768 24.7797 34.3216C24.8852 34.3663 24.9971 34.3894 25.1122 34.3894C25.2261 34.3894 25.338 34.3663 25.4435 34.3216C25.548 34.2768 25.643 34.2113 25.7222 34.129L32.0692 20.791L30.3943 17.4655C30.3257 17.3686 30.2339 17.2896 30.1273 17.2353C30.0217 17.1808 29.9036 17.1523 29.7843 17.1523C29.6651 17.1523 29.5479 17.1808 29.4413 17.2353C29.3358 17.2896 29.244 17.3686 29.1743 17.4655L22.6974 31.0756C22.6183 31.1579 22.5244 31.2235 22.4188 31.2682C22.3143 31.313 22.2014 31.3361 22.0874 31.3361C21.9734 31.3361 21.8605 31.313 21.756 31.2682C21.7497 31.2657 21.7434 31.2629 21.7371 31.2602Z" fill="white"/>
<path id="Vector_7" d="M28.9958 0.239649C29.8655 -0.0798831 30.8174 -0.0798831 31.687 0.239649L48.5963 6.45547C49.4659 6.775 50.1963 7.39367 50.6586 8.20268L59.6556 23.9417C60.1179 24.7508 60.2836 25.6986 60.1232 26.6187L56.9982 44.5165C56.8378 45.4364 56.3608 46.27 55.6526 46.8705L41.8683 58.5524C41.159 59.1529 40.2641 59.4821 39.3385 59.4821H21.3443C20.4188 59.4821 19.5238 59.1529 18.8145 58.5524L5.03025 46.8705C4.32209 46.27 3.84503 45.4364 3.68461 44.5165L0.559632 26.6187C0.399214 25.6986 0.564901 24.7508 1.02716 23.9417L10.0243 8.20268C10.4866 7.39367 11.2169 6.775 12.0865 6.45547L28.9958 0.239649Z" stroke="#4CE5E5" stroke-width="2"/>
</g>
<defs>
<clipPath id="clip0_3112_10497">
<rect width="60" height="60" fill="white" transform="translate(0.5)"/>
</clipPath>
</defs>
</svg>
