<svg width="61" height="62" viewBox="0 0 61 62" fill="none" xmlns="http://www.w3.org/2000/svg">
<g id="madel icon">
<path id="Vector" d="M58.5369 28.1081C60.0863 29.7054 60.0863 32.2943 58.5369 33.8917L33.3974 59.8028C31.8478 61.3991 29.3355 61.3991 27.786 59.8028L2.64655 33.8917C1.09698 32.2943 1.09698 29.7054 2.64655 28.1081L27.786 2.19798C29.3355 0.600675 31.8478 0.600675 33.3974 2.19798L58.5369 28.1081Z" fill="#FCD454"/>
<path id="Vector_2" fill-rule="evenodd" clip-rule="evenodd" d="M58.5487 28.1081C60.0982 29.7054 60.0982 32.2953 58.5487 33.8916L54.4706 38.0947C54.4197 38.1472 54.3284 38.0848 54.3511 38.0145C54.3721 37.9492 54.2959 37.9037 54.2487 37.9522L33.211 59.6355C31.6616 61.2328 29.1492 61.2328 27.5996 59.6355L2.46018 33.7244C2.03625 33.288 2.50502 32.9535 2.92895 33.3899L22.4419 53.5016C23.9915 55.0989 26.5038 55.0989 28.0533 53.5016L49.7033 31.1879C50.0133 30.8682 50.0133 30.3507 49.7033 30.031L28.2515 7.92114C26.7019 6.32384 24.1897 6.32384 22.6401 7.92114L2.88094 28.2862C2.65693 28.5168 2.43435 28.3397 2.65837 28.1081L27.7978 2.19798C29.3474 0.600675 31.8597 0.600675 33.4092 2.19798L58.5487 28.1081Z" fill="#F6C459"/>
<path id="Vector_3" opacity="0.2" fill-rule="evenodd" clip-rule="evenodd" d="M1.66213 33.7254C0.112625 32.1281 0.112625 29.5382 1.66213 27.9418L1.84956 27.7489C2.12341 27.4658 2.57844 27.5133 2.85239 27.7954L3.15956 28.1121C3.23887 28.1942 3.36821 28.1902 3.44752 28.1081L28.587 2.19798C30.1365 0.600675 32.6488 0.600675 34.1984 2.19798L59.3378 28.1081C60.8874 29.7054 60.8874 32.2953 59.3378 33.8917L58.4031 34.8556C58.3864 34.8724 58.3593 34.8724 58.3427 34.8556L57.9604 34.4617C57.6506 34.142 57.1481 34.142 56.8381 34.4617L32.413 59.6355C31.8321 60.2343 31.1157 60.6084 30.3656 60.7588C30.3443 60.7627 30.3362 60.7895 30.3514 60.8053C30.3707 60.8251 30.3525 60.8577 30.3263 60.8508C30.2724 60.835 30.2187 60.8182 30.1653 60.8004C30.1548 60.7974 30.1435 60.7964 30.1325 60.7974C28.95 60.9597 27.7103 60.5717 26.8016 59.6355L1.66213 33.7254ZM10.7576 35.9432C10.4892 35.6671 10.4428 35.2267 10.7033 34.9417C10.73 34.913 10.7572 34.8833 10.7849 34.8556L31.7581 13.2386C33.3076 11.6413 35.82 11.6413 37.3695 13.2386L54.5568 30.9534C54.8667 31.273 54.8667 31.7906 54.5568 32.1103L33.6032 53.7065C32.0537 55.3038 29.5414 55.3038 27.9918 53.7065L10.7576 35.9432Z" fill="#F6C459"/>
<path id="Vector_4" d="M58.5369 28.1081C60.0863 29.7054 60.0863 32.2943 58.5369 33.8916L33.3974 59.8028C31.8478 61.3991 29.3355 61.3991 27.786 59.8028L2.64655 33.8916C1.09698 32.2943 1.09698 29.7054 2.64655 28.1081L27.786 2.19798C29.3355 0.600675 31.8478 0.600675 33.3974 2.19798L58.5369 28.1081Z" stroke="#FFF5C0" stroke-width="2"/>
<path id="Vector_5" d="M16.5432 33.5528C16.5432 40.6107 22.0945 46.3322 28.9423 46.3322C35.7901 46.3322 41.3413 40.6107 41.3413 33.5528C41.3413 26.495 35.7901 20.7734 28.9423 20.7734C22.0945 20.7734 16.5432 26.495 16.5432 33.5528Z" fill="#F6C459"/>
<path id="Vector_6" d="M18.4622 31.0021C18.4622 38.0599 24.0134 43.7815 30.8612 43.7815C37.709 43.7815 43.2603 38.0599 43.2603 31.0021C43.2603 23.9442 37.709 18.2227 30.8612 18.2227C24.0134 18.2227 18.4622 23.9442 18.4622 31.0021Z" fill="#FFF5C0"/>
<path id="Vector_7" opacity="0.7" fill-rule="evenodd" clip-rule="evenodd" d="M19.8013 25.2492C22.0753 22.5118 25.4527 20.7779 29.2231 20.7779C36.071 20.7779 41.6222 26.4991 41.6222 33.5573C41.6222 35.6267 41.145 37.5803 40.2979 39.3102C42.1539 37.0756 43.2751 34.1739 43.2751 31.0021C43.2751 23.9438 37.7238 18.2227 30.8759 18.2227C26.0358 18.2227 21.8435 21.0808 19.8013 25.2492Z" fill="white"/>
</g>
</svg>
