<svg width="28" height="28" viewBox="0 0 28 28" fill="none" xmlns="http://www.w3.org/2000/svg">
<g id="icon" clip-path="url(#clip0_1353_34286)">
<g id="content">
<g id="Layer 2">
<g id="06.messenger">
<path id="Vector" d="M14 28C21.732 28 28 21.732 28 14C28 6.26801 21.732 0 14 0C6.26801 0 0 6.26801 0 14C0 21.732 6.26801 28 14 28Z" fill="#0084FF"/>
<path id="Vector_2" d="M22.75 13.6728C22.75 18.148 18.8316 21.7753 14 21.7753C13.1517 21.7759 12.3073 21.6619 11.4895 21.4364L8.50977 23.0703V19.9808C6.52273 18.4964 5.25 16.2294 5.25 13.6728C5.25 9.19759 9.16841 5.57031 14 5.57031C18.8316 5.57031 22.75 9.19918 22.75 13.6728Z" fill="white"/>
<path id="Vector_3" d="M19.654 11.4023L14.8701 16.4773L12.6429 14.1021L8.29492 16.4789L13.0788 11.4023L15.3617 13.7776L19.654 11.4023Z" fill="#2196F3"/>
</g>
</g>
</g>
</g>
<defs>
<clipPath id="clip0_1353_34286">
<rect width="28" height="28" fill="white"/>
</clipPath>
</defs>
</svg>
