<svg viewBox="0 0 512 512" xmlns="http://www.w3.org/2000/svg"><g id="Layer_2" data-name="Layer 2"><g id="Layer_1-2" data-name="Layer 1"><g id="_13" data-name="13"><path d="m512 256a256.08 256.08 0 0 1 -7.06 59.92c-26.94 112.48-128.2 196.08-248.94 196.08h-2.39c-101.05-.94-188.12-60.42-228.91-146.17a254.87 254.87 0 0 1 -24.7-109.83c0-141.38 114.62-256 256-256s256 114.62 256 256z" fill="#20599e"/><path d="m504.94 315.92c-26.94 112.48-128.2 196.08-248.94 196.08h-2.39c-101.05-.94-188.12-60.42-228.91-146.17 28.57-18.42 71.12-31.65 113.49 7.67 0 0 13.81 16.5 49.81 6.5s68-81 139-46c0 0 31 8 59 33 0 0 21.64 21.38 46.32-6.81 22.1-25.19 42.15-49.53 72.62-44.27z" fill="#0a0e3b"/><g fill="#fff"><path d="m335.28 133.57 2.64 5.34 5.89.86-4.27 4.15 1.01 5.87-5.27-2.77-5.27 2.77 1.01-5.87-4.27-4.15 5.89-.86z"/><path d="m419.08 144.18 1.83 3.71 4.09.59-2.96 2.89.7 4.07-3.66-1.92-3.66 1.92.7-4.07-2.96-2.89 4.09-.59z"/><path d="m413.45 201.72 1.22 2.47 2.73.4-1.97 1.92.46 2.71-2.44-1.28-2.44 1.28.47-2.71-1.97-1.92 2.72-.4z"/><path d="m247.1 90.4 1.22 2.47 2.72.4-1.97 1.92.47 2.72-2.44-1.29-2.44 1.29.47-2.72-1.98-1.92 2.73-.4z"/><path d="m286.1 40.4 1.22 2.47 2.73.4-1.98 1.92.47 2.72-2.44-1.29-2.44 1.29.47-2.72-1.98-1.92 2.73-.4z"/><path d="m367.1 48.4 1.22 2.47 2.73.4-1.98 1.92.47 2.72-2.44-1.29-2.44 1.29.47-2.72-1.98-1.92 2.73-.4z"/><path d="m442.1 259.4 1.22 2.47 2.73.4-1.98 1.92.47 2.71-2.44-1.28-2.44 1.28.47-2.71-1.98-1.92 2.73-.4z"/><path d="m319.1 285.4 1.22 2.47 2.73.4-1.98 1.92.47 2.71-2.44-1.28-2.44 1.28.47-2.71-1.98-1.92 2.73-.4z"/><path d="m471.1 176.4 1.22 2.47 2.73.4-1.98 1.92.47 2.72-2.44-1.29-2.44 1.29.47-2.72-1.98-1.92 2.73-.4z"/><path d="m282.5 117.14 1.22 2.47 2.72.4-1.97 1.92.47 2.71-2.44-1.28-2.44 1.28.47-2.71-1.98-1.92 2.73-.4z"/><path d="m300.26 234.87 1.22 2.47 2.72.39-1.97 1.93.47 2.71-2.44-1.28-2.44 1.28.47-2.71-1.98-1.93 2.73-.39z"/><path d="m387.81 251.62 1.21 2.47 2.73.39-1.97 1.93.47 2.71-2.44-1.28-2.44 1.28.46-2.71-1.97-1.93 2.73-.39z"/><path d="m326.26 71.11 2.12 4.31 4.76.69-3.44 3.35.81 4.74-4.25-2.24-4.25 2.24.81-4.74-3.44-3.35 4.75-.69z"/><path d="m397.56 92.49 1.35 2.74 3.03.44-2.19 2.14.51 3.01-2.7-1.43-2.71 1.43.52-3.01-2.19-2.14 3.03-.44z"/><path d="m247.36 187.44 2.03 4.12 4.54.65-3.29 3.2.78 4.52-4.06-2.13-4.06 2.13.78-4.52-3.29-3.2 4.54-.65z"/><path d="m381.55 128.49 1.93 3.91 4.32.63-3.12 3.05.73 4.3-3.86-2.03-3.87 2.03.74-4.3-3.12-3.05 4.32-.63z"/><path d="m350.29 193.8 1.35 2.74 3.03.44-2.19 2.14.52 3.01-2.71-1.42-2.71 1.42.52-3.01-2.19-2.14 3.03-.44z"/><path d="m102.29 51.8 1.35 2.75 3.03.43-2.19 2.14.52 3.01-2.71-1.42-2.71 1.42.52-3.01-2.19-2.14 3.03-.43z"/><path d="m62.29 104.8 1.35 2.75 3.03.43-2.19 2.14.52 3.01-2.71-1.42-2.71 1.42.52-3.01-2.19-2.14 3.03-.43z"/><path d="m36.29 288.8 1.35 2.75 3.03.43-2.19 2.14.51 3.01-2.7-1.42-2.71 1.42.52-3.01-2.19-2.14 3.03-.43z"/><path d="m114.29 314.8 1.35 2.75 3.03.43-2.19 2.14.52 3.01-2.71-1.42-2.71 1.42.52-3.01-2.19-2.14 3.03-.43z"/><path d="m47.29 197.8 1.35 2.74 3.03.44-2.19 2.14.51 3.01-2.7-1.42-2.71 1.42.52-3.01-2.19-2.14 3.03-.44z"/><circle cx="145.5" cy="176.5" opacity=".23" r="67.5"/><circle cx="145.5" cy="176.5" r="54.5"/></g></g></g></g></svg>