<?xml version="1.0" encoding="UTF-8"?>
<svg xmlns="http://www.w3.org/2000/svg" version="1.1" viewBox="0 0 512 512">
  <defs>
    <style>
      .cls-1 {
        fill: #20599e;
      }

      .cls-2 {
        isolation: isolate;
        opacity: .2;
      }

      .cls-2, .cls-3 {
        fill: #fff;
      }

      .cls-4 {
        font-family: Cairo-Bold, Cairo;
        font-size: 39px;
        font-weight: 700;
      }

      .cls-5 {
        fill: #c5e5fe;
      }

      .cls-6 {
        fill: #0a0e3b;
      }

      .cls-7 {
        fill: #efefef;
      }

      .cls-8 {
        fill: #4ba5c8;
      }
    </style>
  </defs>
  <!-- Generator: Adobe Illustrator 28.7.1, SVG Export Plug-In . SVG Version: 1.2.0 Build 142)  -->
  <g>
    <g id="Layer_1">
      <g id="Icons">
        <g>
          <g id="Layer_2">
            <g id="Layer_1-2">
              <g id="_13">
                <path class="cls-1" d="M455.6,218c0,15.8-1.8,31.6-5.5,47-21.1,88.1-100.5,153.7-195.1,153.7h-1.9c-79.2-.7-147.4-47.3-179.4-114.5-12.8-26.9-19.4-56.3-19.4-86.1,0-110.8,89.8-200.6,200.6-200.6s200.6,89.8,200.6,200.6Z"/>
                <path class="cls-6" d="M450,265c-21.1,88.1-100.5,153.7-195.1,153.7h-1.9c-79.2-.7-147.4-47.3-179.4-114.5,22.4-14.4,55.7-24.8,88.9,6,0,0,10.8,12.9,39,5.1,28.2-7.8,53.3-63.5,108.9-36,0,0,24.3,6.3,46.2,25.9,0,0,17,16.8,36.3-5.3,17.3-19.7,33-38.8,56.9-34.7h0Z"/>
                <g>
                  <path class="cls-3" d="M317.1,122.1l2.1,4.2,4.6.7-3.3,3.3.8,4.6-4.1-2.2-4.1,2.2.8-4.6-3.3-3.3,4.6-.7,2.1-4.2Z"/>
                  <path class="cls-3" d="M382.7,130.4l1.4,2.9,3.2.5-2.3,2.3.5,3.2-2.9-1.5-2.9,1.5.5-3.2-2.3-2.3,3.2-.5,1.4-2.9Z"/>
                  <path class="cls-3" d="M378.3,175.5l1,1.9,2.1.3-1.5,1.5.4,2.1-1.9-1-1.9,1,.4-2.1-1.5-1.5,2.1-.3,1-1.9Z"/>
                  <path class="cls-3" d="M248,88.2l1,1.9,2.1.3-1.5,1.5.4,2.1-1.9-1-1.9,1,.4-2.1-1.6-1.5,2.1-.3,1-1.9Z"/>
                  <path class="cls-3" d="M278.5,49.1l1,1.9,2.1.3-1.6,1.5.4,2.1-1.9-1-1.9,1,.4-2.1-1.6-1.5,2.1-.3,1-1.9Z"/>
                  <path class="cls-3" d="M342,55.3l1,1.9,2.1.3-1.6,1.5.4,2.1-1.9-1-1.9,1,.4-2.1-1.6-1.5,2.1-.3,1-1.9Z"/>
                  <path class="cls-3" d="M400.8,220.7l1,1.9,2.1.3-1.6,1.5.4,2.1-1.9-1-1.9,1,.4-2.1-1.6-1.5,2.1-.3,1-1.9Z"/>
                  <path class="cls-3" d="M304.4,241l1,1.9,2.1.3-1.6,1.5.4,2.1-1.9-1-1.9,1,.4-2.1-1.6-1.5,2.1-.3,1-1.9Z"/>
                  <path class="cls-3" d="M423.5,155.6l1,1.9,2.1.3-1.6,1.5.4,2.1-1.9-1-1.9,1,.4-2.1-1.6-1.5,2.1-.3,1-1.9Z"/>
                  <path class="cls-3" d="M275.7,109.2l1,1.9,2.1.3-1.5,1.5.4,2.1-1.9-1-1.9,1,.4-2.1-1.6-1.5,2.1-.3,1-1.9Z"/>
                  <path class="cls-3" d="M289.6,201.5l1,1.9,2.1.3-1.5,1.5.4,2.1-1.9-1-1.9,1,.4-2.1-1.6-1.5,2.1-.3,1-1.9Z"/>
                  <path class="cls-3" d="M358.2,214.6l.9,1.9,2.1.3-1.5,1.5.4,2.1-1.9-1-1.9,1,.4-2.1-1.5-1.5,2.1-.3,1-1.9Z"/>
                  <path class="cls-3" d="M310,73.1l1.7,3.4,3.7.5-2.7,2.6.6,3.7-3.3-1.8-3.3,1.8.6-3.7-2.7-2.6,3.7-.5,1.7-3.4Z"/>
                  <path class="cls-3" d="M365.9,89.9l1.1,2.1,2.4.3-1.7,1.7.4,2.4-2.1-1.1-2.1,1.1.4-2.4-1.7-1.7,2.4-.3,1.1-2.1Z"/>
                  <path class="cls-3" d="M248.2,164.3l1.6,3.2,3.6.5-2.6,2.5.6,3.5-3.2-1.7-3.2,1.7.6-3.5-2.6-2.5,3.6-.5,1.6-3.2Z"/>
                  <path class="cls-3" d="M353.3,118.1l1.5,3.1,3.4.5-2.4,2.4.6,3.4-3-1.6-3,1.6.6-3.4-2.4-2.4,3.4-.5,1.5-3.1Z"/>
                  <path class="cls-3" d="M328.8,169.3l1.1,2.1,2.4.3-1.7,1.7.4,2.4-2.1-1.1-2.1,1.1.4-2.4-1.7-1.7,2.4-.3,1.1-2.1Z"/>
                  <path class="cls-3" d="M134.5,58l1.1,2.2,2.4.3-1.7,1.7.4,2.4-2.1-1.1-2.1,1.1.4-2.4-1.7-1.7,2.4-.3,1.1-2.2Z"/>
                  <path class="cls-3" d="M103.2,99.5l1.1,2.2,2.4.3-1.7,1.7.4,2.4-2.1-1.1-2.1,1.1.4-2.4-1.7-1.7,2.4-.3,1.1-2.2Z"/>
                  <path class="cls-3" d="M82.8,243.7l1.1,2.2,2.4.3-1.7,1.7.4,2.4-2.1-1.1-2.1,1.1.4-2.4-1.7-1.7,2.4-.3,1.1-2.2Z"/>
                  <path class="cls-3" d="M143.9,264.1l1.1,2.2,2.4.3-1.7,1.7.4,2.4-2.1-1.1-2.1,1.1.4-2.4-1.7-1.7,2.4-.3,1.1-2.2Z"/>
                  <path class="cls-3" d="M91.4,172.4l1.1,2.1,2.4.3-1.7,1.7.4,2.4-2.1-1.1-2.1,1.1.4-2.4-1.7-1.7,2.4-.3,1.1-2.1Z"/>
                  <circle class="cls-2" cx="168.4" cy="155.7" r="52.9"/>
                  <circle class="cls-3" cx="168.4" cy="155.7" r="42.7"/>
                </g>
              </g>
            </g>
          </g>
          <path class="cls-8" d="M364,391.3c-31.3,19.5-68.3,30.8-108,30.8s-76.6-11.3-108-30.8c2.4-16.4,16.6-29,33.6-29h148.7c17,0,31.2,12.6,33.6,29Z"/>
          <path class="cls-7" d="M161.7,479.2v-82.8c0-11,9-20,20-20h148.7c11,0,20,9,20,20v82.8c0,11-9,20-20,20h-148.7c-11,0-20-9-20-20Z"/>
          <path class="cls-3" d="M426.4,288.9c-2.6-1-3.9-3.9-2.9-6.5,8-20.7,12.1-42.6,12.1-65,0-89-66.4-165.5-154.5-177.9-2.7-.4-4.6-2.9-4.3-5.6.4-2.7,2.9-4.6,5.6-4.3,93,13.1,163.1,93.8,163.1,187.8s-4.3,46.7-12.8,68.6c-1,2.6-3.9,3.9-6.5,2.9h0ZM262,37.9c0,0-.1,0-.2,0-1.9,0-3.9,0-5.8,0-2.8,0-5-2.2-5-5s2.2-5,5-5,4.1,0,6.2,0c2.8,0,4.9,2.4,4.8,5.2,0,2.7-2.3,4.8-5,4.8h0Z"/>
          <path class="cls-5" d="M371.4,361.7c-1.8-2.1-1.5-5.3.6-7,1.5-1.3,3-2.5,4.4-3.8,2-1.8,5.2-1.7,7.1.4,1.8,2,1.7,5.2-.4,7.1-1.5,1.4-3.1,2.7-4.6,4-2.1,1.8-5.3,1.5-7-.6ZM390.5,344.1c-2.1-1.8-2.2-5-.4-7.1,14.4-16.1,25.7-34.5,33.5-54.6,1-2.6,3.9-3.9,6.5-2.9,2.6,1,3.9,3.9,2.9,6.5-8.2,21.2-20.1,40.6-35.3,57.7-1.8,2.1-5,2.2-7.1.4h0Z"/>
          <path d="M440.5,285.1c2.1,1.7,5.3,1.4,7-.8,1.8-2.3,1.2-5.4-.8-7-2.1-1.7-5.4-1.3-7,.8-1.8,2.2-1.4,5.4.8,7h0Z"/>
          <path d="M283.5,483.3c1.4,0,2.5-1.1,2.5-2.5v-30.8c0-2.5-3.3-3.4-4.6-1.3l-8.8,14.3-8.8-14.3c-1.3-2.1-4.6-1.2-4.6,1.3v30.8c0,1.4,1.1,2.5,2.5,2.5s2.5-1.1,2.5-2.5v-22l6.3,10.3c1,1.6,3.3,1.6,4.3,0l6.3-10.3v22c0,1.4,1.1,2.5,2.5,2.5h0Z"/>
          <path d="M227.4,447.6c-1.4,0-2.5,1.1-2.5,2.5v30.8c0,1.4,1.1,2.5,2.5,2.5s2.5-1.1,2.5-2.5v-9.4h10c6.6,0,11.9-5.3,11.9-11.9s-5.3-11.9-11.9-11.9h-12.5ZM246.8,459.5c0,3.8-3.1,6.9-6.9,6.9h-10v-13.8h10c3.8,0,6.9,3.1,6.9,6.9Z"/>
          <circle cx="290.3" cy="499.2" r="5"/>
          <path d="M256,7.8h0c-87.3,0-161.7,53.3-193.3,128.3-1,2.4,0,5.4,2.7,6.5,2.5,1.1,5.5,0,6.5-2.7C101.9,68.8,172.6,17.8,256,17.8h0c110.1,0,199.7,89.6,199.7,199.7s-2.9,39.4-8.7,58.2c0,.4,0,.8,0,1.2,3.3,2.5,2.3,9.1-2.9,9.1h-4.9l-4,4h6.9c-16.6,42.8-47.3,78.2-87.3,101h0c-2.5-11.2-12.5-19.6-24.4-19.6h-148.7c-11.9,0-21.9,8.4-24.4,19.6-40-22.8-70.6-58.2-87.3-101h1.8c-3.2-3.5-5.6-7.9-6.6-12.6-.1-.6-.2-1.1-.1-1.6-5.8-18.8-8.7-38.4-8.7-58.3s1.4-27.1,4.1-40.3c.6-2.7-1.2-5.4-3.9-5.9-2.7-.6-5.4,1.2-5.9,3.9t0,0c-2.8,13.8-4.3,28.1-4.3,42.3,0,76.7,41.6,147.6,110.3,184.6v77.1c0,13.8,11.2,25,25,25s0,0,0,0h88.6c2.8,0,5-2.2,5-5s-2.2-5-5-5h-88.7s0,0,0,0c-8.2,0-14.9-6.7-14.9-15v-82.8c0-8.3,6.7-15,15-15h148.7c8.3,0,15,6.7,15,15v82.8c0,8.2-6.7,15-14.9,15,0,0,0,0,0,0h-20c-2.8,0-5,2.3-5,5s2.2,5,5,5h19.9s0,0,0,0c13.8,0,25-11.2,25-25v-77.1c68.7-37,110.3-107.9,110.3-184.6,0-115.6-94-209.7-209.6-209.7Z"/>
          <path d="M59,161.6c2.5.8,5.4-.5,6.3-3.3.8-2.5-.6-5.4-3.3-6.3-2.6-.8-5.5.7-6.3,3.3-.8,2.7.7,5.5,3.3,6.2h0Z"/>
          <text class="cls-4" transform="translate(188.1 428.4)"><tspan x="0" y="0" xml:space="preserve">مساء  ً</tspan></text>
        </g>
      </g>
    </g>
  </g>
</svg>