<?xml version="1.0" encoding="UTF-8"?>
<svg xmlns="http://www.w3.org/2000/svg" version="1.1" viewBox="0 0 512 512">
  <defs>
    <style>
      .cls-1 {
        font-family: Cairo-Bold, Cairo;
        font-size: 39px;
        font-weight: 700;
      }

      .cls-2 {
        fill: #fff;
      }

      .cls-3 {
        fill: #c5e5fe;
      }

      .cls-4 {
        fill: #f0c020;
      }

      .cls-5 {
        fill: #fc5d3d;
      }

      .cls-6 {
        fill: #ffcbc3;
      }

      .cls-7 {
        fill: #efefef;
      }

      .cls-8 {
        fill: #72c2e9;
      }

      .cls-9 {
        fill: #4ba5c8;
      }

      .cls-10 {
        fill: #b25035;
      }

      .cls-11 {
        fill: #e8a61e;
      }
    </style>
  </defs>
  <!-- Generator: Adobe Illustrator 28.7.1, SVG Export Plug-In . SVG Version: 1.2.0 Build 142)  -->
  <g>
    <g id="Layer_1">
      <g id="Icons">
        <g>
          <path class="cls-6" d="M460.7,217.5c0,23.7-4,46.4-11.4,67.5-27.9,79.8-103.9,137.1-193.2,137.1s-165.4-57.3-193.2-137.1c-7.4-21.1-11.4-43.9-11.4-67.5C51.3,104.4,143,12.8,256,12.8s204.7,91.6,204.7,204.7h0Z"/>
          <path class="cls-4" d="M319.6,286.3l-16.2,12.8,2.4,20.5c.6,5.6-4.1,10.3-9.7,9.7l-20.5-2.4c-.1.2-11.3,14.3-12.7,16,0,0,0,.1-.1.1-3.5,4.4-10.2,4.4-13.7,0,0,0,0,0,0,0h0c0,0,0,0,0-.1,0,0-.1-.1-.1-.1h0c-.8-1-12.4-15.6-12.6-16l-20.5,2.4c-5.6.6-10.3-4.1-9.7-9.7l2.4-20.5-16.2-12.8c-4.4-3.5-4.4-10.2,0-13.7l2.1-1.6,14.1-11.2-2.4-20.5c-.6-5.6,4.1-10.3,9.7-9.7l20.5,2.4,12.8-16.2c3.5-4.4,10.2-4.4,13.7,0l12.8,16.2,20.5-2.4c5.6-.6,10.3,4.1,9.7,9.7l-2.4,20.5,14.1,11.2,2.1,1.6c4.4,3.5,4.4,10.2,0,13.7h0Z"/>
          <path class="cls-11" d="M319.6,286.3l-16.2,12.8,2.4,20.5c.6,5.6-4.1,10.3-9.7,9.7l-20.5-2.4c-.1.2-11.3,14.3-12.7,16,0,0,0,.1-.1.1-3.5,4.4-10.2,4.4-13.7,0,0,0,0,0,0,0h0c0,0,0,0,0-.1,0,0-.1-.1-.1-.1h0c-.8-1-12.4-15.6-12.6-16l-20.5,2.4c-5.6.6-10.3-4.1-9.7-9.7l2.4-20.5-16.2-12.8c-4.4-3.5-4.4-10.2,0-13.7l2.1-1.6h123l2.1,1.6c4.4,3.5,4.4,10.2,0,13.7h0Z"/>
          <path class="cls-5" d="M256,309c-19.7,0-34-19-28.3-38,3.6-12.2,14.9-21.1,28.3-21.1s24.7,8.9,28.3,21.1c5.7,19-8.6,38-28.3,38Z"/>
          <path class="cls-10" d="M256,309c-19.7,0-34-19-28.3-38h56.6c5.7,19-8.6,38-28.3,38Z"/>
          <path class="cls-8" d="M449.2,285c-15.5,44.4-45.9,81.9-85.3,106.4-31.3,19.5-68.3,30.8-108,30.8s-76.6-11.3-108-30.8c-39.3-24.5-69.8-61.9-85.3-106.4h386.5Z"/>
          <path class="cls-9" d="M364,391.3c-31.3,19.5-68.3,30.8-108,30.8s-76.6-11.3-108-30.8c2.4-16.4,16.6-29,33.6-29h148.7c17,0,31.2,12.6,33.6,29Z"/>
          <path class="cls-7" d="M161.7,479.2v-82.8c0-11,9-20,20-20h148.7c11,0,20,9,20,20v82.8c0,11-9,20-20,20h-148.7c-11,0-20-9-20-20Z"/>
          <path class="cls-2" d="M426.4,288.9c-2.6-1-3.9-3.9-2.9-6.5,8-20.7,12.1-42.6,12.1-65,0-89-66.4-165.5-154.5-177.9-2.7-.4-4.6-2.9-4.3-5.6.4-2.7,2.9-4.6,5.6-4.3,93,13.1,163.1,93.8,163.1,187.8s-4.3,46.7-12.8,68.6c-1,2.6-3.9,3.9-6.5,2.9h0ZM262,37.9c0,0-.1,0-.2,0-1.9,0-3.9,0-5.8,0-2.8,0-5-2.2-5-5s2.2-5,5-5,4.1,0,6.2,0c2.8,0,4.9,2.4,4.8,5.2,0,2.7-2.3,4.8-5,4.8h0Z"/>
          <path class="cls-3" d="M371.4,361.7c-1.8-2.1-1.5-5.3.6-7,1.5-1.3,3-2.5,4.4-3.8,2-1.8,5.2-1.7,7.1.4,1.8,2,1.7,5.2-.4,7.1-1.5,1.4-3.1,2.7-4.6,4-2.1,1.8-5.3,1.5-7-.6ZM390.5,344.1c-2.1-1.8-2.2-5-.4-7.1,14.4-16.1,25.7-34.5,33.5-54.6,1-2.6,3.9-3.9,6.5-2.9,2.6,1,3.9,3.9,2.9,6.5-8.2,21.2-20.1,40.6-35.3,57.7-1.8,2.1-5,2.2-7.1.4h0Z"/>
          <path d="M271.4,260.3c2.1,1.7,5.3,1.4,7-.8,1.8-2.3,1.2-5.4-.8-7-2.1-1.7-5.4-1.3-7,.8-1.8,2.2-1.4,5.4.8,7h0Z"/>
          <path d="M232.9,306.2h-7.1c-2.8,0-5,2.2-5,5s2.2,5,5,5h7.1c2.8,0,5-2.2,5-5s-2.2-5-5-5Z"/>
          <path d="M161.7,328.1h-7.1c-2.8,0-5,2.2-5,5s2.2,5,5,5h7.1c2.8,0,5-2.2,5-5s-2.2-5-5-5Z"/>
          <path d="M292.1,341.3h-7.1c-2.8,0-5,2.2-5,5s2.2,5,5,5h7.1c2.8,0,5-2.2,5-5s-2.2-5-5-5Z"/>
          <path d="M367.5,320.2h-7.1c-2.8,0-5,2.2-5,5s2.2,5,5,5h7.1c2.8,0,5-2.2,5-5s-2.2-5-5-5Z"/>
          <circle cx="290.3" cy="499.2" r="5"/>
          <path d="M256,7.8h0c-87.3,0-161.7,53.3-193.3,128.3-1,2.4,0,5.4,2.7,6.5,2.5,1.1,5.5,0,6.5-2.7C101.9,68.8,172.6,17.8,256,17.8h0c110.1,0,199.7,89.6,199.7,199.7s-3.4,42.4-10,62.5h-117.8c.2-4.6-1.8-8.7-5.2-11.3l-14-11,2.1-17.7c1-8.8-6.4-16.2-15.2-15.2l-17.7,2.1-11.1-14c-5.5-6.9-16.1-6.9-21.5,0l-11.1,14-17.7-2.1c-8.8-1-16.2,6.4-15.2,15.2l2.1,17.7-14,11c-3.3,2.6-5.4,6.7-5.2,11.3h-117.8c-6.6-20.1-10-41.1-10-62.5s1.4-27.1,4.1-40.3c.6-2.7-1.2-5.4-3.9-5.9-2.7-.6-5.4,1.2-5.9,3.9t0,0c-2.8,13.8-4.3,28.1-4.3,42.3,0,76.7,41.6,147.6,110.3,184.6v77.1c0,13.8,11.2,25,25,25s0,0,0,0h88.6c2.8,0,5-2.2,5-5s-2.2-5-5-5h-88.7s0,0,0,0c-8.2,0-14.9-6.7-14.9-15v-82.8c0-8.3,6.7-15,15-15h148.7c8.3,0,15,6.7,15,15v82.8c0,8.2-6.7,15-14.9,15,0,0,0,0,0,0h-20c-2.8,0-5,2.3-5,5s2.2,5,5,5h19.9s0,0,0,0c13.8,0,25-11.2,25-25v-77.1c68.7-37,110.3-107.9,110.3-184.6,0-115.6-94-209.7-209.6-209.7h0ZM195.5,276.5l16.2-12.8c1.4-1.1,2.1-2.8,1.9-4.5l-2.4-20.5c-.3-2.4,1.8-4.4,4.1-4.1l20.5,2.4c1.7.2,3.4-.5,4.5-1.9l12.8-16.2c1.5-1.9,4.4-1.8,5.8,0l12.8,16.2c1.1,1.4,2.8,2,4.5,1.9l20.5-2.4c2.4-.3,4.4,1.7,4.1,4.1l-2.4,20.5c-.2,1.7.5,3.4,1.9,4.5l16.2,12.8c1,.8,1.6,2,1.3,3.5h-27.3c0-2.3-.2-5.3-.8-8-.6-2.6-3.3-4.4-6-3.8-2.7.6-4.4,3.3-3.8,6,.5,2.3.6,4,.6,5.9h-49.1c-.3-14.1,11.1-25.1,24.5-25.1s5-2.2,5-5-2.2-5-5-5c-19.1,0-34.8,15.7-34.5,35.1h-27.3c-.2-1.4.4-2.7,1.3-3.5h0ZM354.7,391c-2.5-11.2-12.5-19.6-24.4-19.6h-148.7c-11.9,0-21.9,8.4-24.4,19.6-40-22.8-70.6-58.2-87.3-101h372c-16.6,42.8-47.3,78.2-87.3,101h0Z"/>
          <path d="M59,161.6c2.5.8,5.4-.5,6.3-3.3.8-2.5-.6-5.4-3.3-6.3-2.6-.8-5.5.7-6.3,3.3-.8,2.7.7,5.5,3.3,6.2h0Z"/>
          <path class="cls-8" d="M264.2,175.8l33.4-33.4c4.5-4.5,4.5-11.9,0-16.4-4.5-4.5-11.9-4.5-16.4,0l-13.6,13.6v-59c0-6.4-5.2-11.6-11.6-11.6s-11.6,5.2-11.6,11.6v59l-13.6-13.6c-4.5-4.5-11.9-4.5-16.4,0-4.5,4.5-4.5,11.9,0,16.4l33.4,33.4c4.5,4.6,11.9,4.5,16.4,0Z"/>
          <path d="M256,184.2c-4.4,0-8.6-1.7-11.7-4.9l-33.4-33.4c-3.1-3.1-4.9-7.3-4.9-11.8s1.7-8.6,4.9-11.8c6.5-6.5,17-6.5,23.5,0l5,5v-46.9c0-9.2,7.5-16.6,16.6-16.6s16.6,7.5,16.6,16.6v46.9l5-5c6.5-6.5,17-6.5,23.5,0,6.5,6.5,6.5,17,0,23.5l-33.4,33.4c-3.1,3.1-7.3,4.9-11.8,4.9ZM222.6,127.6c-1.8,0-3.4.7-4.7,1.9s-1.9,2.9-1.9,4.7.7,3.4,1.9,4.7l33.4,33.4c2.5,2.5,6.9,2.5,9.4,0,0,0,0,0,0,0l33.4-33.4c2.6-2.6,2.6-6.8,0-9.4-2.6-2.6-6.8-2.6-9.4,0l-13.6,13.6c-1.4,1.4-3.6,1.9-5.5,1.1-1.9-.8-3.1-2.6-3.1-4.6v-59c0-3.7-3-6.6-6.6-6.6s-6.6,3-6.6,6.6v59c0,2-1.2,3.8-3.1,4.6-1.9.8-4,.3-5.4-1.1l-13.6-13.6c-1.2-1.2-2.9-1.9-4.7-1.9h0Z"/>
          <text class="cls-1" transform="translate(196.3 428.4)"><tspan x="0" y="0" xml:space="preserve">ظهرا  ً</tspan></text>
          <text class="cls-1" transform="translate(203.5 479.5)"><tspan x="0" y="0">NOON</tspan></text>
        </g>
      </g>
    </g>
  </g>
</svg>