<svg xmlns="http://www.w3.org/2000/svg" version="1.1" xmlns:xlink="http://www.w3.org/1999/xlink" width="512" height="512" x="0" y="0" viewBox="0 0 48 48" style="enable-background:new 0 0 512 512" xml:space="preserve" class=""><g><path d="M18.66 17.96h3.38v2h-3.38zM25.96 17.96h3.39v2h-3.39zM21.15 25.52h5.71v2h-5.71z" fill="#ffffff" opacity="1" data-original="#000000" class=""></path><path d="M1.5 47.5h44.6c.55 0 1-.45 1-1V36.06c0-.39-.23-.75-.59-.91l-13.72-6.14c.88-1.07 1.57-2.31 2.02-3.68 4.27-.67 12.69-2.53 12.69-6.74 0-1.54-1.14-2.76-2.78-3.73L24.58.68c-.35-.24-.81-.24-1.15 0L3.9 14.52C1.93 15.53.5 16.86.5 18.59c0 4.22 8.42 6.07 12.69 6.74a11.37 11.37 0 0 0 1.91 3.55L1.09 35.15c-.36.16-.59.52-.59.91V46.5c0 .55.45 1 1 1zm15.72-16.59c-.1.5-.37.94-.73 1.27l-1.45-1.08 1.55-.69c.2.17.41.34.63.5zm-2.34 2.57v1.34c.51 0 .99-.1 1.44-.26L30.95 45.5h-6.81L9.15 33.73l3.8-1.7zM45.1 45.5H34.29L18.1 33.39c.37-.41.67-.88.87-1.41 1.53.75 3.24 1.18 5.03 1.18s3.5-.43 5.03-1.18c.63 1.66 2.22 2.84 4.09 2.84v-2c-1.15 0-2.12-.82-2.34-1.91.17-.12.33-.25.49-.39l13.82 6.18v8.8zm-9.8-22.27c.06-.48.09-.97.09-1.46v-7.79c3.8.66 6.55 1.59 8.21 2.55l1.16.82v-.01c.49.44.73.87.73 1.26.01 1.47-3.49 3.48-10.19 4.63zM24.01 2.72l13.75 9.68c-1.22-.27-2.35-.46-3.22-.59-3.3-.5-6.84-.75-10.54-.75-.92 0-1.84.02-2.74.05-2.71.09-5.32.33-7.8.7-.83.12-1.91.31-3.07.56zM2.5 18.59c0-.29.13-.59.4-.91l2.05-1.45c1.7-.85 4.26-1.66 7.66-2.25v7.79c0 .49.03.98.09 1.46C6 22.08 2.5 20.07 2.5 18.59zm12.11 3.18v-8.09l.91-.12.99-.12c.4-.04.81-.07 1.22-.11l-.77 1.46 4.51 2.39.94-1.77-4.04-2.14c.19-.01.38-.03.58-.05.55-.04 1.1-.06 1.66-.09.28-.01.56-.03.84-.04.84-.03 1.69-.04 2.55-.04s1.71.02 2.55.04c.28.01.56.03.83.04.56.02 1.11.05 1.66.09.19.01.38.03.58.05l-4.04 2.14.94 1.77 4.51-2.39-.77-1.46c.41.04.82.07 1.22.11l1 .12.91.12v8.09c0 .83-.11 1.64-.32 2.42-.42 1.59-1.24 3-2.34 4.12v-1.39c0-2.42-1.97-4.39-4.38-4.39h-1.14v2h1.14c1.31 0 2.38 1.07 2.38 2.39v2.95c-1.4.82-3.02 1.29-4.74 1.29-1.71 0-3.33-.47-4.74-1.29v-2.95a2.39 2.39 0 0 1 2.39-2.39h1.14v-2h-1.14c-2.42 0-4.39 1.97-4.39 4.39v1.39a9.371 9.371 0 0 1-2.34-4.13c-.19-.77-.3-1.59-.3-2.41zM2.5 36.71l4.59-2.05L20.91 45.5H2.5z" fill="#ffffff" opacity="1" data-original="#000000" class=""></path></g></svg>