<svg width="32" height="41" viewBox="0 0 32 41" fill="none" xmlns="http://www.w3.org/2000/svg">
<g id="content">
<path id="Vector" d="M15.997 28.5898C14.0647 28.5898 12.2581 29.1278 10.7188 30.0616V30.5623H21.2758V30.0616C19.7364 29.1278 17.9299 28.5898 15.9976 28.5898H15.997Z" fill="#FED100"/>
<path id="Vector_2" d="M22.6719 30.5625H9.32031V38.9077H22.6719V30.5625Z" fill="#97512C"/>
<path id="Vector_3" d="M23.5944 38.9102H8.39844V40.1729H23.5944V38.9102Z" fill="#7C3E25"/>
<path id="Vector_4" d="M17.0521 20.3938C16.7238 20.5167 16.3686 20.5836 15.9972 20.5836C15.6258 20.5836 15.2712 20.5167 14.9428 20.3944L14.9446 20.3904C14.9446 19.7726 14.6482 19.1287 14.055 18.6769L14.0439 18.6711C11.9707 17.2779 10.2986 15.334 9.23728 13.0488H9.2367C7.38065 9.08696 6.34375 4.66458 6.34375 0H25.6506C25.6506 4.66458 24.6137 9.08696 22.7571 13.0488H22.7565C21.6952 15.3334 20.0231 17.2773 17.9499 18.6705L17.9394 18.6764C17.3462 19.1287 17.0498 19.7726 17.0498 20.3898L17.051 20.3938H17.0521Z" fill="#FED100"/>
<path id="Vector_5" d="M16.8946 20.4473C16.8946 21.0324 17.152 21.5197 17.5595 21.8777H17.5607C17.7021 22.0076 17.7906 22.1927 17.7906 22.4C17.7906 22.7929 17.4722 23.1114 17.0792 23.1114C17.0722 23.1114 17.0652 23.1114 17.0588 23.1114H14.9349C14.928 23.1114 14.921 23.1114 14.9146 23.1114C14.5216 23.1114 14.2031 22.7929 14.2031 22.4C14.2031 22.1927 14.2916 22.0081 14.4331 21.8777H14.4343C14.8418 21.5203 15.0991 21.0324 15.0991 20.4473H16.8946Z" fill="#FED100"/>
<path id="Vector_6" d="M17.8011 29.1974C17.2311 29.3656 16.6274 29.4559 16.0021 29.4559C15.3768 29.4559 14.7737 29.3656 14.2031 29.1974L14.2084 29.1805V28.0027C14.6549 26.9472 14.9018 25.7863 14.9018 24.5683C14.9018 24.067 14.8598 23.5756 14.7795 23.0977H17.2242C17.1438 23.5762 17.1019 24.0676 17.1019 24.5683C17.1019 25.7868 17.3487 26.9472 17.7953 28.0027V29.1805L17.8005 29.1974H17.8011Z" fill="#FFDB31"/>
<path id="Vector_7" d="M9.18012 18.431C8.68816 18.431 8.21192 18.2546 7.83932 17.9349C7.53774 17.6765 7.50339 17.2223 7.76188 16.9208C8.02038 16.6192 8.4745 16.5848 8.77608 16.8433C8.85525 16.9114 8.98974 16.993 9.18012 16.993C9.52304 16.993 9.80191 16.7141 9.80191 16.3712C9.80191 16.3223 9.79609 16.2734 9.78503 16.2268C9.6878 15.8833 9.50266 15.5695 9.24766 15.3162C9.17779 15.2632 9.12714 15.2079 9.09512 15.1718L2.80096 9.26484C0.714943 7.30806 -0.813912 4.24337 0.472166 1.80919C1.0206 0.770549 2.1163 0.0887934 3.28594 0.0486216C3.3034 0.0474572 3.32087 0.046875 3.33833 0.046875H3.39539C3.41227 0.046875 3.42916 0.0474572 3.44604 0.0486216C5.18682 0.105677 6.58584 1.53963 6.58584 3.29438C6.58584 4.11063 6.28193 4.89077 5.73001 5.49102C5.46103 5.78328 5.00633 5.8025 4.71407 5.5341C4.42181 5.26513 4.40259 4.81043 4.67099 4.51817C4.97839 4.18398 5.14781 3.74908 5.14781 3.29438C5.14781 2.30639 4.35194 1.50121 3.36744 1.48549C2.69442 1.49597 2.05982 1.88488 1.74427 2.48105C0.81741 4.2358 2.15239 6.68395 3.78546 8.2163L10.1 14.1425C10.118 14.1594 10.1332 14.1751 10.146 14.1891C10.1623 14.2019 10.1786 14.2159 10.1937 14.2304C10.6636 14.6723 11.0024 15.233 11.1742 15.8518C11.1759 15.8577 11.1771 15.8635 11.1788 15.8693C11.2196 16.0329 11.2405 16.2017 11.2405 16.3712C11.2405 17.507 10.3166 18.431 9.1807 18.431H9.18012ZM9.11259 15.1887C9.11259 15.1887 9.11491 15.1905 9.1155 15.1916L9.11259 15.1887Z" fill="#FED100"/>
<path id="Vector_8" d="M20.7578 16.3712C20.7578 16.2017 20.7788 16.0329 20.8195 15.8693C20.8213 15.8635 20.8224 15.8577 20.8242 15.8518C20.9959 15.233 21.3348 14.6723 21.8046 14.2304C21.8203 14.2159 21.836 14.2019 21.8523 14.1891C21.8652 14.1751 21.8803 14.1594 21.8983 14.1425L28.2129 8.2163C29.8454 6.68395 31.1809 4.2358 30.2541 2.48105C29.9385 1.8843 29.3039 1.49597 28.6309 1.48549C27.6464 1.50063 26.8505 2.30639 26.8505 3.29438C26.8505 3.74908 27.0199 4.1834 27.3273 4.51817C27.5963 4.81043 27.5771 5.26571 27.2843 5.5341C26.992 5.80308 26.5367 5.78387 26.2683 5.49102C25.7164 4.89019 25.4125 4.11004 25.4125 3.29438C25.4125 1.53963 26.8115 0.105677 28.5523 0.0486216C28.5692 0.0474572 28.5861 0.046875 28.6029 0.046875H28.66C28.6775 0.046875 28.6949 0.0474572 28.7124 0.0486216C29.8815 0.0887934 30.9777 0.771131 31.5262 1.80919C32.8122 4.24337 31.2834 7.30806 29.198 9.26484L22.9038 15.1718C22.8718 15.2079 22.8211 15.2627 22.7513 15.3162C22.4963 15.5695 22.3111 15.8827 22.2139 16.2268C22.2028 16.2734 22.197 16.3223 22.197 16.3712C22.197 16.7141 22.4759 16.993 22.8188 16.993C23.0092 16.993 23.1437 16.912 23.2228 16.8433C23.5244 16.5848 23.9785 16.6192 24.237 16.9208C24.4955 17.2223 24.4612 17.6765 24.1596 17.9349C23.787 18.2546 23.3108 18.431 22.8188 18.431C21.6829 18.431 20.759 17.507 20.759 16.3712H20.7578ZM22.8823 15.1916C22.8823 15.1916 22.884 15.1899 22.8852 15.1887L22.8823 15.1916Z" fill="#FED100"/>
<path id="Vector_9" d="M10.447 0.879488H7.17969C7.17969 4.20909 7.83059 7.38731 9.01245 10.2925C8.8343 9.40521 8.74056 8.48767 8.74056 7.548C8.74056 5.13071 9.36002 2.8578 10.4476 0.878906L10.447 0.879488Z" fill="#FFDF5A"/>
<path id="Vector_10" d="M9.32031 38.9077H22.6719V30.5625C22.6719 30.5625 18.2099 38.9077 9.32031 38.9077Z" fill="#8D492B"/>
<path id="Vector_11" d="M20.8701 32.4883H11.1328V37.2565H20.8701V32.4883Z" fill="#FED100"/>
<path id="Vector_12" d="M1.01725 2.7623C1.60003 1.65961 2.76385 0.934777 4.00626 0.892276C4.02489 0.891112 4.04294 0.890529 4.06215 0.890529H4.1227C4.14075 0.890529 4.1588 0.891112 4.17685 0.892276C4.55353 0.904502 4.91507 0.978441 5.25217 1.10303C4.75555 0.643095 4.09825 0.353742 3.37516 0.329872C3.36002 0.328707 3.34488 0.328125 3.32975 0.328125H3.27851C3.26279 0.328125 3.24707 0.328707 3.23135 0.329872C2.18398 0.365968 1.20297 0.976695 0.711596 1.90647C0.182959 2.90727 0.18587 4.02684 0.524128 5.11497C0.479298 4.30454 0.624848 3.50577 1.01725 2.7623Z" fill="#FFDF5A"/>
<path id="Vector_13" d="M11.2422 16.1653C12.0573 17.1225 13.0016 17.9667 14.0484 18.6705L14.0594 18.6764C14.6527 19.1287 14.949 19.7726 14.949 20.3898L14.9473 20.3939C15.2757 20.5161 15.6308 20.5831 16.0017 20.5831C16.3725 20.5831 16.7283 20.5161 17.0566 20.3933L17.0554 20.3892C17.0554 19.7715 17.3518 19.1276 17.945 18.6758L17.9555 18.67C20.0287 17.2768 21.7008 15.3328 22.7622 13.0477H22.7627C24.6182 9.08697 25.6551 4.66458 25.6551 0C21.3893 16.8983 11.2888 16.1653 11.2422 16.1653Z" fill="#FCC200"/>
</g>
</svg>
