<svg width="128" height="95" viewBox="0 0 128 95" fill="none" xmlns="http://www.w3.org/2000/svg">
<g id="image">
<path id="Vector" d="M64.0012 74.9752C83.9122 74.9752 100.053 58.8341 100.053 38.9231C100.053 19.0121 83.9122 2.87109 64.0012 2.87109C44.0903 2.87109 27.9492 19.0121 27.9492 38.9231C27.9492 58.8341 44.0903 74.9752 64.0012 74.9752Z" fill="white"/>
<path id="tape right" d="M78.9478 52.3468L91.2284 75.1012C91.3389 75.3059 91.3872 75.5384 91.3676 75.7703C91.348 76.0021 91.2611 76.2232 91.1177 76.4064C90.9744 76.5896 90.7807 76.7271 90.5603 76.8019C90.34 76.8767 90.1027 76.8856 89.8774 76.8276L80.9325 74.5234C80.6407 74.4482 80.3312 74.486 80.066 74.6291C79.8008 74.7722 79.5994 75.0102 79.5021 75.2954L76.5188 84.0372C76.4436 84.2574 76.3059 84.4509 76.1224 84.594C75.939 84.7371 75.7178 84.8236 75.4859 84.8429C75.2541 84.8622 75.0216 84.8135 74.8171 84.7027C74.6125 84.5918 74.4447 84.4238 74.3342 84.219L62.0536 61.4646C61.9789 61.3264 61.9323 61.1748 61.9163 61.0186C61.9003 60.8623 61.9152 60.7044 61.9601 60.5539C62.0051 60.4034 62.0793 60.2633 62.1785 60.1415C62.2777 60.0196 62.3998 59.9185 62.5381 59.8439L77.3271 51.8623C77.4653 51.7877 77.6169 51.741 77.7731 51.725C77.9294 51.709 78.0873 51.7239 78.2378 51.7689C78.3882 51.8139 78.5284 51.888 78.6502 51.9872C78.7721 52.0864 78.8731 52.2085 78.9478 52.3468Z" fill="#800000"/>
<path id="tape left" d="M49.053 52.3468L36.7724 75.1012C36.6619 75.3059 36.6135 75.5384 36.6332 75.7703C36.6528 76.0021 36.7397 76.2232 36.883 76.4064C37.0264 76.5896 37.2201 76.7271 37.4404 76.8019C37.6607 76.8767 37.8981 76.8856 38.1234 76.8276L47.0683 74.5234C47.3601 74.4482 47.6696 74.486 47.9348 74.6291C48.2 74.7722 48.4013 75.0102 48.4987 75.2954L51.482 84.0372C51.5572 84.2574 51.6949 84.4509 51.8783 84.594C52.0618 84.7371 52.283 84.8236 52.5148 84.8429C52.7467 84.8622 52.9792 84.8135 53.1837 84.7027C53.3883 84.5918 53.5561 84.4238 53.6666 84.219L65.9472 61.4646C66.0218 61.3264 66.0685 61.1748 66.0845 61.0186C66.1005 60.8623 66.0856 60.7044 66.0406 60.5539C65.9956 60.4034 65.9214 60.2633 65.8223 60.1415C65.7231 60.0196 65.6009 59.9185 65.4627 59.8439L50.6737 51.8623C50.5355 51.7877 50.3839 51.741 50.2277 51.725C50.0714 51.709 49.9135 51.7239 49.763 51.7689C49.6125 51.8139 49.4724 51.888 49.3506 51.9872C49.2287 52.0864 49.1276 52.2085 49.053 52.3468Z" fill="#800000"/>
<g id="Layer 2">
<path id="Vector_2" d="M101.447 61.1403L100.82 61.9504L98.2988 59.3229L95.7773 56.6953L98.9312 58.5243L102.08 60.3417L101.447 61.1403Z" fill="#141414"/>
<path id="Vector_3" d="M27.5082 22.6024L28.0601 21.7461L30.8259 24.1092L33.5794 26.4695L30.2741 24.9654L26.9688 23.4613L27.5082 22.6024Z" fill="#141414"/>
<path id="Vector_4" d="M99.8813 8.05956L101.192 9.40854L95.7712 13.3278L90.363 17.2471L94.4731 11.979L98.5834 6.71094L99.8813 8.05956Z" fill="#141414"/>
<path id="Vector_5" d="M25.3405 58.6104L24.613 57.3516L29.4169 55.4387L34.2113 53.5234L30.1348 56.6951L26.0584 59.8667L25.3405 58.6104Z" fill="#141414"/>
</g>
<path id="lin circle 3" d="M34.2128 13.8905C33.8347 13.8905 33.465 13.7783 33.1505 13.5682C32.8361 13.3581 32.591 13.0595 32.4463 12.7101C32.3016 12.3608 32.2637 11.9763 32.3375 11.6054C32.4113 11.2345 32.5934 10.8938 32.8608 10.6264C33.1282 10.359 33.4689 10.1769 33.8398 10.1031C34.2107 10.0294 34.5951 10.0672 34.9445 10.212C35.2939 10.3567 35.5925 10.6017 35.8026 10.9162C36.0127 11.2306 36.1249 11.6003 36.1249 11.9784C36.1243 12.4854 35.9226 12.9714 35.5642 13.3298C35.2057 13.6883 34.7197 13.8899 34.2128 13.8905ZM34.2128 10.659C33.9519 10.659 33.6968 10.7364 33.4798 10.8814C33.2628 11.0263 33.0937 11.2324 32.9938 11.4735C32.8939 11.7146 32.8678 11.9799 32.9187 12.2359C32.9696 12.4918 33.0953 12.7269 33.2798 12.9114C33.4644 13.096 33.6995 13.2216 33.9554 13.2725C34.2114 13.3234 34.4767 13.2973 34.7177 13.1975C34.9588 13.0976 35.1649 12.9285 35.3099 12.7115C35.4549 12.4945 35.5323 12.2394 35.5323 11.9784C35.5319 11.6286 35.3927 11.2933 35.1454 11.0459C34.898 10.7985 34.5626 10.6594 34.2128 10.659Z" fill="#141414"/>
<path id="lin circle 2" d="M100.054 33.8115C99.4563 33.8115 98.8718 33.6342 98.3747 33.302C97.8776 32.9698 97.4902 32.4977 97.2614 31.9454C97.0326 31.393 96.9727 30.7852 97.0893 30.1988C97.206 29.6124 97.4939 29.0738 97.9166 28.651C98.3394 28.2283 98.878 27.9403 99.4644 27.8237C100.051 27.7071 100.659 27.7669 101.211 27.9957C101.763 28.2245 102.235 28.612 102.568 29.1091C102.9 29.6062 103.077 30.1907 103.077 30.7885C103.076 31.59 102.757 32.3584 102.191 32.9251C101.624 33.4918 100.856 33.8106 100.054 33.8115ZM100.054 28.3582C99.5735 28.3582 99.1036 28.5008 98.7039 28.7678C98.3043 29.0348 97.9928 29.4144 97.8088 29.8585C97.6249 30.3026 97.5768 30.7912 97.6705 31.2627C97.7643 31.7341 97.9958 32.1672 98.3357 32.507C98.6756 32.8469 99.1086 33.0784 99.58 33.1722C100.051 33.2659 100.54 33.2178 100.984 33.0339C101.428 32.8499 101.808 32.5384 102.075 32.1388C102.342 31.7391 102.484 31.2692 102.484 30.7885C102.484 30.1442 102.227 29.5265 101.772 29.0709C101.316 28.6152 100.699 28.359 100.054 28.3582Z" fill="#141414"/>
<path id="lin circle 1" d="M15.8648 52.3273C14.9791 52.3273 14.1133 52.0646 13.3769 51.5726C12.6405 51.0805 12.0665 50.3811 11.7276 49.5628C11.3886 48.7446 11.3 47.8442 11.4728 46.9755C11.6456 46.1068 12.0721 45.3089 12.6984 44.6827C13.3246 44.0564 14.1226 43.6299 14.9912 43.4571C15.8599 43.2844 16.7603 43.373 17.5786 43.712C18.3968 44.0509 19.0962 44.6249 19.5883 45.3614C20.0803 46.0978 20.3429 46.9636 20.3429 47.8493C20.3416 49.0365 19.8693 50.1748 19.0298 51.0143C18.1903 51.8538 17.052 52.326 15.8648 52.3273ZM15.8648 43.9637C15.0963 43.9637 14.3451 44.1916 13.7061 44.6185C13.0672 45.0455 12.5692 45.6523 12.2751 46.3623C11.981 47.0723 11.904 47.8535 12.054 48.6072C12.2039 49.3609 12.5739 50.0532 13.1173 50.5966C13.6607 51.14 14.353 51.5101 15.1068 51.66C15.8605 51.81 16.6417 51.733 17.3517 51.439C18.0617 51.1449 18.6685 50.6469 19.0955 50.0079C19.5224 49.369 19.7503 48.6178 19.7503 47.8493C19.7492 46.8191 19.3394 45.8315 18.611 45.1031C17.8826 44.3746 16.8949 43.9649 15.8648 43.9637Z" fill="#141414"/>
<path id="Vector_6" d="M64.0015 67.4444C79.8741 67.4444 92.7413 54.5772 92.7413 38.7046C92.7413 22.8321 79.8741 9.96484 64.0015 9.96484C48.129 9.96484 35.2617 22.8321 35.2617 38.7046C35.2617 54.5772 48.129 67.4444 64.0015 67.4444Z" fill="#800000" fill-opacity="0.2"/>
<path id="Vector_7" d="M63.9973 67.7443C57.2796 67.7444 50.7698 65.4151 45.5769 61.1535C40.384 56.8918 36.8295 50.9615 35.5189 44.3729C34.2083 37.7843 35.2228 30.9451 38.3895 25.0206C41.5562 19.0961 46.6791 14.4529 52.8855 11.8822C59.0918 9.3114 65.9975 8.97213 72.4259 10.9222C78.8544 12.8722 84.4078 16.9909 88.1399 22.5764C91.8721 28.162 93.5521 34.8688 92.8936 41.5541C92.2352 48.2395 89.2791 54.4897 84.5289 59.2398C81.839 61.9445 78.6393 64.0889 75.115 65.5487C71.5907 67.0085 67.8119 67.7548 63.9973 67.7443ZM63.9973 10.2648C48.3135 10.2648 35.5539 23.0245 35.5539 38.7083C35.5539 54.392 48.3135 67.1517 63.9973 67.1517C79.6811 67.1517 92.4409 54.392 92.4409 38.7083C92.4409 23.0245 79.6811 10.2648 63.9973 10.2648Z" fill="#141414"/>
<path id="Vector_8" d="M87.3431 38.7067C87.3432 41.7722 86.7394 44.8077 85.5663 47.6399C84.3933 50.4721 82.6738 53.0455 80.5062 55.2132C78.3385 57.3808 75.7651 59.1003 72.9329 60.2734C70.1007 61.4465 67.0652 62.0502 63.9997 62.0501C51.1072 62.0501 40.6563 51.5979 40.6563 38.7067C40.6562 35.6412 41.2599 32.6056 42.433 29.7734C43.6061 26.9412 45.3255 24.3679 47.4932 22.2002C49.6608 20.0325 52.2342 18.3131 55.0664 17.14C57.8986 15.9669 60.9341 15.3632 63.9997 15.3633C76.8921 15.3633 87.3431 25.8142 87.3431 38.7067Z" fill="#DCE7F9"/>
<path id="Vector_9" d="M87.3426 38.7067C87.3507 44.2312 85.3915 49.578 81.816 53.7894C77.604 57.3693 72.2541 59.3312 66.7262 59.323C53.8338 59.323 43.3828 48.8721 43.3828 35.9796C43.3747 30.4518 45.3365 25.1019 48.9165 20.8898C53.1276 17.314 58.4746 15.3547 63.9991 15.3633C76.8916 15.3633 87.3426 25.8143 87.3426 38.7067Z" fill="white"/>
<path id="Vector_10" d="M63.9987 62.3452C50.9639 62.3452 40.3594 51.7405 40.3594 38.7058C40.3594 25.671 50.9639 15.0664 63.9987 15.0664C64.0773 15.0664 64.1527 15.0976 64.2082 15.1532C64.2638 15.2088 64.295 15.2841 64.295 15.3627C64.295 15.4413 64.2638 15.5166 64.2082 15.5722C64.1527 15.6278 64.0773 15.659 63.9987 15.659C51.2907 15.659 40.952 25.9977 40.952 38.7058C40.952 51.4138 51.2907 61.7526 63.9987 61.7526C76.7067 61.7526 87.0455 51.4138 87.0455 38.7058C87.0455 38.6272 87.0767 38.5518 87.1323 38.4962C87.1878 38.4407 87.2632 38.4095 87.3418 38.4095C87.4203 38.4095 87.4957 38.4407 87.5513 38.4962C87.6069 38.5518 87.6381 38.6272 87.6381 38.7058C87.6381 51.7405 77.0336 62.3452 63.9987 62.3452Z" fill="#141414"/>
<path id="Vector_11" d="M63.0002 31.0213L65.3017 35.6846C65.3633 35.8093 65.4543 35.9173 65.5668 35.999C65.6794 36.0808 65.8101 36.134 65.9478 36.154L71.094 36.9018C71.2525 36.9248 71.4013 36.9917 71.5237 37.0949C71.6462 37.1981 71.7373 37.3335 71.7867 37.4858C71.8362 37.6381 71.8421 37.8011 71.8037 37.9566C71.7653 38.112 71.6843 38.2537 71.5696 38.3654L67.8457 41.9953C67.7461 42.0924 67.6716 42.2123 67.6286 42.3446C67.5856 42.4769 67.5754 42.6177 67.599 42.7548L68.478 47.8802C68.5051 48.038 68.4875 48.2003 68.4272 48.3486C68.3668 48.4969 68.2662 48.6254 68.1367 48.7195C68.0071 48.8136 67.8539 48.8696 67.6942 48.8811C67.5345 48.8927 67.3747 48.8593 67.233 48.7848L62.6301 46.3649C62.5069 46.3002 62.3699 46.2663 62.2308 46.2663C62.0917 46.2663 61.9546 46.3002 61.8315 46.3649L57.2285 48.7848C57.0868 48.8593 56.9271 48.8927 56.7674 48.8811C56.6077 48.8696 56.4544 48.8136 56.3249 48.7195C56.1953 48.6254 56.0947 48.4969 56.0344 48.3486C55.9741 48.2003 55.9564 48.038 55.9835 47.8802L56.8626 42.7548C56.8861 42.6177 56.8759 42.4769 56.8329 42.3446C56.7899 42.2123 56.7154 42.0924 56.6158 41.9953L52.8919 38.3654C52.7773 38.2537 52.6962 38.112 52.6578 37.9566C52.6194 37.8011 52.6253 37.6381 52.6748 37.4858C52.7243 37.3335 52.8154 37.1981 52.9378 37.0949C53.0602 36.9917 53.2091 36.9248 53.3675 36.9018L58.5137 36.154C58.6514 36.134 58.7822 36.0808 58.8947 35.999C59.0073 35.9173 59.0983 35.8093 59.1598 35.6846L61.4613 31.0213C61.5321 30.8777 61.6418 30.7568 61.7778 30.6723C61.9137 30.5878 62.0707 30.543 62.2308 30.543C62.3909 30.543 62.5478 30.5878 62.6838 30.6723C62.8198 30.7568 62.9294 30.8777 63.0002 31.0213Z" fill="#141414"/>
<path id="Vector_12" d="M64.7699 29.9861L67.0714 34.6494C67.1329 34.7742 67.2239 34.8821 67.3365 34.9639C67.449 35.0456 67.5798 35.0988 67.7175 35.1188L72.8637 35.8666C73.0221 35.8896 73.171 35.9565 73.2934 36.0597C73.4158 36.1629 73.5069 36.2983 73.5564 36.4506C73.6059 36.6029 73.6117 36.766 73.5734 36.9214C73.535 37.0769 73.4539 37.2185 73.3392 37.3302L69.6154 40.9601C69.5158 41.0572 69.4413 41.1771 69.3983 41.3094C69.3553 41.4417 69.3451 41.5825 69.3686 41.7196L70.2477 46.8451C70.2748 47.0029 70.2571 47.1651 70.1968 47.3134C70.1365 47.4617 70.0359 47.5902 69.9063 47.6843C69.7768 47.7784 69.6235 47.8344 69.4638 47.846C69.3041 47.8575 69.1444 47.8242 69.0027 47.7496L64.3997 45.3297C64.2766 45.265 64.1395 45.2312 64.0004 45.2312C63.8613 45.2312 63.7243 45.265 63.6011 45.3297L58.9982 47.7496C58.8565 47.8242 58.6967 47.8575 58.537 47.846C58.3773 47.8344 58.2241 47.7784 58.0945 47.6843C57.965 47.5902 57.8644 47.4617 57.804 47.3134C57.7437 47.1651 57.7261 47.0029 57.7532 46.8451L58.6322 41.7196C58.6558 41.5825 58.6456 41.4417 58.6026 41.3094C58.5596 41.1771 58.4851 41.0572 58.3855 40.9601L54.6616 37.3302C54.5469 37.2185 54.4658 37.0769 54.4275 36.9214C54.3891 36.766 54.395 36.6029 54.4445 36.4506C54.4939 36.2983 54.585 36.1629 54.7075 36.0597C54.8299 35.9565 54.9787 35.8896 55.1372 35.8666L60.2834 35.1188C60.4211 35.0988 60.5518 35.0456 60.6644 34.9639C60.7769 34.8821 60.8679 34.7742 60.9295 34.6494L63.231 29.9861C63.3018 29.8426 63.4114 29.7217 63.5474 29.6371C63.6834 29.5526 63.8403 29.5078 64.0004 29.5078C64.1605 29.5078 64.3175 29.5526 64.4534 29.6371C64.5894 29.7217 64.699 29.8426 64.7699 29.9861Z" fill="#FF710F"/>
<path id="Vector_13" d="M58.5971 48.1452C58.4291 48.1447 58.2632 48.1076 58.111 48.0364C57.9588 47.9653 57.8239 47.8618 57.7157 47.7333C57.6075 47.6047 57.5286 47.4541 57.4846 47.292C57.4405 47.1298 57.4323 46.96 57.4605 46.7944L58.3396 41.6689C58.355 41.5792 58.3483 41.487 58.3202 41.4004C58.292 41.3138 58.2432 41.2353 58.178 41.1718L54.4541 37.5419C54.2998 37.3915 54.1907 37.201 54.1391 36.9919C54.0875 36.7827 54.0954 36.5633 54.162 36.3585C54.2285 36.1536 54.3511 35.9714 54.5158 35.8326C54.6805 35.6938 54.8807 35.6038 55.0939 35.5728L60.2402 34.825C60.3303 34.8119 60.4159 34.7771 60.4896 34.7236C60.5633 34.67 60.6228 34.5994 60.6631 34.5177L62.9646 29.8544C63.0592 29.6607 63.2066 29.4976 63.3897 29.3838C63.5727 29.27 63.7842 29.2101 63.9998 29.2109C64.2153 29.2101 64.4268 29.27 64.6099 29.3838C64.793 29.4976 64.9403 29.6607 65.0349 29.8544L67.3365 34.5177C67.3767 34.5994 67.4363 34.67 67.51 34.7236C67.5837 34.7771 67.6692 34.8119 67.7594 34.825L72.9057 35.5728C73.1188 35.6038 73.3191 35.6938 73.4837 35.8327C73.6484 35.9715 73.771 36.1537 73.8375 36.3585C73.9041 36.5634 73.912 36.7828 73.8604 36.9919C73.8087 37.201 73.6996 37.3916 73.5454 37.5419L69.8215 41.1717C69.7563 41.2353 69.7075 41.3138 69.6794 41.4004C69.6512 41.487 69.6445 41.5792 69.6599 41.669L70.539 46.7945C70.5754 47.0067 70.5517 47.225 70.4705 47.4245C70.3894 47.624 70.254 47.7968 70.0798 47.9234C69.9055 48.05 69.6993 48.1254 69.4845 48.1409C69.2697 48.1564 69.0548 48.1115 68.8641 48.0113L64.2612 45.5914C64.1806 45.5491 64.0909 45.5269 63.9998 45.5269C63.9087 45.5269 63.8189 45.5491 63.7383 45.5914L59.1354 48.0113C58.9695 48.0989 58.7847 48.1449 58.5971 48.1452ZM63.9998 29.8035C63.8947 29.8023 63.7914 29.8311 63.7022 29.8866C63.6129 29.9421 63.5413 30.0219 63.4959 30.1167L61.1945 34.78C61.1117 34.9478 60.9893 35.093 60.8379 35.203C60.6865 35.313 60.5106 35.3845 60.3254 35.4115L55.1791 36.1593C55.0754 36.1743 54.9779 36.2181 54.8978 36.2857C54.8176 36.3533 54.758 36.4419 54.7256 36.5416C54.6932 36.6413 54.6893 36.7481 54.7145 36.8499C54.7396 36.9517 54.7927 37.0444 54.8678 37.1175L58.5916 40.7474C58.7256 40.878 58.8259 41.0393 58.8837 41.2173C58.9416 41.3953 58.9553 41.5847 58.9236 41.7692L58.0445 46.8946C58.0268 46.9979 58.0383 47.1042 58.0778 47.2013C58.1173 47.2983 58.1832 47.3825 58.268 47.4441C58.3528 47.5057 58.4532 47.5423 58.5577 47.5499C58.6623 47.5574 58.7668 47.5355 58.8596 47.4868L63.4626 45.0669C63.6282 44.9798 63.8126 44.9343 63.9997 44.9343C64.1869 44.9343 64.3713 44.9798 64.5369 45.0669L69.1398 47.4868C69.2326 47.5356 69.3372 47.5574 69.4417 47.5499C69.5463 47.5423 69.6466 47.5057 69.7314 47.4441C69.8163 47.3825 69.8821 47.2984 69.9216 47.2013C69.9611 47.1042 69.9727 46.9979 69.955 46.8946L69.0759 41.7691C69.0443 41.5847 69.058 41.3953 69.1158 41.2173C69.1736 41.0393 69.2739 40.878 69.4079 40.7474L73.1317 37.1175C73.2068 37.0444 73.2599 36.9517 73.2851 36.8499C73.3102 36.7481 73.3064 36.6414 73.274 36.5417C73.2416 36.442 73.182 36.3533 73.1018 36.2857C73.0217 36.2181 72.9242 36.1743 72.8205 36.1593L67.6742 35.4115C67.489 35.3845 67.3131 35.313 67.1616 35.203C67.0102 35.093 66.8878 34.9478 66.805 34.78L64.5035 30.1167C64.4581 30.0219 64.3866 29.9421 64.2973 29.8866C64.2081 29.8311 64.1048 29.8023 63.9998 29.8035Z" fill="#141414"/>
</g>
</svg>
