<svg width="161" height="160" viewBox="0 0 161 160" fill="none" xmlns="http://www.w3.org/2000/svg">
<g id="content">
<path id="Ellipse 2163" d="M154.343 79.9973C154.343 120.781 121.281 153.842 80.4978 153.842C39.7144 153.842 6.65283 120.781 6.65283 79.9973C6.65283 39.2139 39.7144 6.15234 80.4978 6.15234C121.281 6.15234 154.343 39.2139 154.343 79.9973ZM11.0835 79.9973C11.0835 118.334 42.1614 149.412 80.4978 149.412C118.834 149.412 149.912 118.334 149.912 79.9973C149.912 41.6609 118.834 10.583 80.4978 10.583C42.1614 10.583 11.0835 41.6609 11.0835 79.9973Z" fill="white"/>
<g id="Content">
<path id="Ellipse 2164" d="M86.936 6.43694C99.3271 7.52102 111.244 11.7175 121.58 18.6369L119.115 22.3187C109.399 15.8145 98.1974 11.8698 86.5499 10.8508L86.936 6.43694Z" fill="#FF710F"/>
<path id="Ellipse 2170" d="M45.8319 14.7997C56.8143 8.9602 69.0939 5.98947 81.5311 6.16313L81.4692 10.5934C69.7782 10.4302 58.2355 13.2226 47.912 18.7118L45.8319 14.7997Z" fill="#FF710F"/>
<path id="Ellipse 2171" d="M15.9137 44.2002C21.944 33.3213 30.6245 24.1419 41.1498 17.5138L43.5108 21.263C33.617 27.4935 25.4573 36.1221 19.7889 46.3482L15.9137 44.2002Z" fill="#FF710F"/>
<path id="Ellipse 2172" d="M6.8349 85.1521C5.96724 72.744 8.24788 60.3178 13.4652 49.0265L17.4873 50.885C12.583 61.4988 10.4392 73.1794 11.2548 84.843L6.8349 85.1521Z" fill="#FF710F"/>
<path id="Ellipse 2165" d="M124.941 21.0257C134.875 28.5113 142.757 38.3849 147.856 49.7302L143.814 51.5464C139.021 40.8818 131.612 31.6007 122.275 24.5642L124.941 21.0257Z" fill="#FF710F"/>
<path id="Ellipse 2166" d="M149.44 53.5373C153.898 65.1495 155.35 77.6995 153.662 90.0229L149.272 89.4215C150.859 77.8376 149.494 66.0406 145.304 55.1251L149.44 53.5373Z" fill="#FF710F"/>
<path id="Ellipse 2167" d="M152.988 94.0912C150.615 106.301 145.196 117.714 137.234 127.27L133.83 124.434C141.314 115.451 146.408 104.723 148.639 93.2458L152.988 94.0912Z" fill="#FF710F"/>
<path id="Ellipse 2168" d="M21.5248 124.442C14.0392 114.508 9.18405 102.845 7.40998 90.5333L11.7954 89.9014C13.463 101.474 18.0268 112.438 25.0633 121.775L21.5248 124.442Z" fill="#FF710F"/>
</g>
</g>
</svg>
