<svg width="28" height="28" viewBox="0 0 28 28" fill="none" xmlns="http://www.w3.org/2000/svg">
<g id="icon" clip-path="url(#clip0_1353_34293)">
<g id="content">
<g id="Layer 2">
<g id="09.whatsapp">
<path id="Vector" d="M14 28C21.732 28 28 21.732 28 14C28 6.26801 21.732 0 14 0C6.26801 0 0 6.26801 0 14C0 21.732 6.26801 28 14 28Z" fill="#29A71A"/>
<g id="Content">
<path id="Vector_2" d="M20.1731 7.82725C18.7165 6.35613 16.7822 5.45395 14.719 5.28342C12.6558 5.1129 10.5996 5.68526 8.92123 6.89727C7.24289 8.10928 6.05289 9.88115 5.5659 11.8933C5.07891 13.9054 5.32697 16.0253 6.26535 17.8707L5.34422 22.3427C5.33466 22.3872 5.33439 22.4332 5.34342 22.4778C5.35245 22.5225 5.3706 22.5647 5.39672 22.602C5.43498 22.6586 5.48959 22.7022 5.55327 22.7269C5.61695 22.7516 5.68665 22.7564 5.75308 22.7404L10.136 21.7016C11.9762 22.6162 14.0811 22.8483 16.0764 22.3566C18.0716 21.8649 19.8276 20.6813 21.0321 19.0164C22.2365 17.3515 22.8113 15.3132 22.654 13.2643C22.4967 11.2154 21.6176 9.28881 20.1731 7.82725ZM18.8065 18.7345C17.7987 19.7395 16.5009 20.4029 15.0961 20.6312C13.6913 20.8596 12.2502 20.6413 10.976 20.0072L10.3651 19.705L7.67808 20.3413L7.68603 20.3079L8.24285 17.6034L7.94376 17.0132C7.2927 15.7345 7.06303 14.2826 7.28765 12.8654C7.51227 11.4482 8.17966 10.1385 9.19422 9.12384C10.469 7.84943 12.1978 7.13351 14.0004 7.13351C15.8029 7.13351 17.5317 7.84943 18.8065 9.12384C18.8173 9.13629 18.829 9.14798 18.8415 9.15884C20.1005 10.4365 20.8033 12.1601 20.7968 13.9539C20.7902 15.7476 20.0748 17.4661 18.8065 18.7345Z" fill="white"/>
<path id="Vector_3" d="M18.5674 16.751C18.238 17.2696 17.7178 17.9044 17.0639 18.0619C15.9185 18.3387 14.1605 18.0714 11.973 16.0319L11.946 16.008C10.0226 14.2246 9.52303 12.7403 9.64394 11.563C9.71076 10.8948 10.2676 10.2903 10.7369 9.89575C10.8111 9.83243 10.8991 9.78734 10.9938 9.7641C11.0886 9.74086 11.1874 9.74011 11.2825 9.76191C11.3776 9.7837 11.4662 9.82745 11.5414 9.88964C11.6166 9.95183 11.6761 10.0307 11.7153 10.1201L12.4233 11.711C12.4693 11.8141 12.4863 11.9279 12.4726 12.04C12.4588 12.1521 12.4149 12.2583 12.3453 12.3473L11.9874 12.8119C11.9105 12.9078 11.8642 13.0245 11.8543 13.147C11.8444 13.2695 11.8713 13.3921 11.9317 13.4992C12.1321 13.8508 12.6126 14.3678 13.1455 14.8467C13.7437 15.3876 14.4071 15.8823 14.8271 16.051C14.9395 16.0969 15.0631 16.1081 15.1819 16.0831C15.3007 16.0582 15.4093 15.9982 15.4937 15.911L15.9089 15.4926C15.9891 15.4136 16.0887 15.3572 16.1977 15.3293C16.3067 15.3013 16.4211 15.3028 16.5294 15.3335L18.211 15.8108C18.3038 15.8392 18.3888 15.8885 18.4596 15.9549C18.5304 16.0212 18.585 16.1029 18.6194 16.1936C18.6538 16.2843 18.667 16.3817 18.658 16.4783C18.6489 16.5749 18.618 16.6682 18.5674 16.751Z" fill="white"/>
</g>
</g>
</g>
</g>
</g>
<defs>
<clipPath id="clip0_1353_34293">
<rect width="28" height="28" fill="white"/>
</clipPath>
</defs>
</svg>
